<?xml version="1.0" encoding="utf-8"?>
<!-- Generator: Adobe Illustrator 24.0.1, SVG Export Plug-In . SVG Version: 6.00 Build 0)  -->
<svg version="1.1" id="Layer_1" xmlns="http://www.w3.org/2000/svg" xmlns:xlink="http://www.w3.org/1999/xlink" x="0px" y="0px"
	 viewBox="0 0 1000 579" style="enable-background:new 0 0 1000 579;" xml:space="preserve">
<style type="text/css">
	.st0{fill:#566B30;stroke:#84AA30;stroke-miterlimit:10;}
</style>
<g>
	<path id="YEM99" class="st0" d="M-17.1,535.5l-1.1,1.5l-3-4.6l-0.4-1.7l3.5-3.6l1.7,1.9v2.7l0.6,3.2L-17.1,535.5L-17.1,535.5z
		 M34.4,398.4v1.5l-1.5,1.5l-11-1.5l-3.7,0.5l-1.3-0.7l0.4-3.4l-0.9-3.2l0.9-1.2h1.1l7.3,4.4l0.4,0.5L34.4,398.4L34.4,398.4z"/>
	<path id="YEM150" class="st0" d="M468.6,48.1l-3.9,65.3l-14.5,8.3l-10.2-1.2l-11,0.2l-11.7,2.9l-9.7,3.9l-22.9,13.1l-3.2,3.6
		l-6.9,11.2l-2.4,2.4l-3,6.3l-1.7,1.7l-2.6,0.5l-3.2,3.9l-7.1,5.3l-2.6,1.2l-1.3,1.2l-4.3,1.9l-3.9,3.4l-2.2,3.6l-3.5,7.3l-2.2,10.4
		l-2.6,7l-12.3,4.1l-7.3-0.2l-8-1.7l-17.7-8.3l-12.3-3.6h-6.9l-4.5,1.7l-2.4,1.9l-5,2.9l-3.5,1.7l-22.5,6.1l-19.5-1.9l-13.2,1
		l-3.7-0.5l-3-1.9l-29.4-9.7l-3.5-2.4l-1.1-4.9l-1.5-3.2l-0.4-2.7l2.6-4.4l4.3-3.2l0.9-2.2l-0.2-2.4l-1.3-2.4l-1.7-1.5l-6.5-2.2
		l-1.9-1.7l-2.2-7.5l-3.7-8l-0.6-3.4l1.1-5.1l2.8-8l0.9-3.9v-4.4l-1.1-4.6l-1.3-3.4l-0.6-3.4l0.9-4.1l3.7-8l1.1-4.4l-0.2-4.6
		l1.1-4.1l3.7-3.2l4.5-2.2l3.9-1l4.1-2.2l0.4-4.1l-1.7-4.6l-3.5-2.9l-9.9-3.6l0.4-1l8.4-11.7L177.7,42L193,31.3l3.9-1.7l3.9-0.7l3,1
		l6.1,0.2l2.8,0.7l12.8,6.3l7.3,5.1l12.3,15.3l7.1,6.6l3.5,1.2h3.2l6.5-0.7l6.9,0.7l3-0.2l4.1-1.2l1.1,0.5v2.2l-0.4,4.1l1.1,2.7
		l3.2,1l4.1-0.5l2.6-3.2l2.4-4.1l2.6-3.4l3.7-2.2l3,0.2l6.7,3.9l4.5,0.7l3.2-1.7l2.8-3.6l2.4-5.1l2.6-2.2l3.7,0.5l7.3,2.4l3.2-0.2
		l13.4-3.4l16.9-1.9l10.6,0.2l11.9,2.9l5-0.2l11-4.9l3.7-1L468.6,48.1L468.6,48.1z"/>
	<path id="YEM151" class="st0" d="M70.7,814l-0.4-2.9l1.3-4.1l4.5-8.7l7.3-6.1l3.7-1.5l2.2,1.9l-0.6,3.9l-5.2,6.3l-1.3,4.4l-1.7,1.9
		L70.7,814L70.7,814z M88.2,761l-1.3,1.2h-4.8l2.4-5.8l-3.7-1.5l-4.3-2.7l-3.7-3.6l-1.5-5.1l1.5-3.2l3.5-3.6l4.1-2.7l2.8-1l1.3-1.5
		l4.8,7l1.1,2.7v2.2l-2.4,7.5l-0.2,6.3L88.2,761z M52.1,464.4l1.9,0.5l2.2-0.7l2.4-1.5l1.5,0.2v2.4l-1.9,7.8l-0.4,2.7l0.2,1.7
		l-0.4,1.7l0.2,2.2l-3.5,5.8l-2.2,2.2l-2.4-0.2l-1.9-1.7l-1.9-3.4v-4.6l1.7-4.9l0.6-10.4l1.9-3.6l3.9-4.1l1.5-3.2l3.9-2.2l1.3,0.5
		l0.9,1.9l-4.5,3.2l-0.6,1.5l0.9,1.2l-0.6,1.2l-1.5,1.5l-2.6,1.5L52.1,464.4L52.1,464.4z M179.6,440.4l0.4,8.5l0.9,2.4l0.2,4.4
		l0.9,3.4l0.2,5.8l-0.6,6.8l0.9,4.6l0.4,5.6l4.8,8l3.9,3.2l4.3,4.4l7.1,2.2l1.7,3.6l1.9,5.6l3.5,6.8l1.9,6.1l2.6,4.4l5.4,6.1
		l4.3,2.7l5.8,6.1l5.4,3.4l4.8,1.2h3.2l3.5-0.5l4.1,4.4v2.2l-1.1,1l-2.8,4.9l-2.4,1.9l-2.6,0.5l-5.4-2.4l-1.9-0.2l-1.3,2.9l-5.2,6.1
		l-3.2,3.2l-3.2,5.3l-2.8,8.7l2.4,15.1l-0.9,3.2l-2.2,2.9l-0.4,3.6l0.6,6.6l-0.6,3.4l0.6,3.9l6.7,20.4l0.6,3.2l2.2,5.1l0.6,2.4v5.3
		l-0.4,3.6l-6.3,8.5l-3.5,0.2l-1.1,2.7l5.8,27.7v6.8l2.4,6.8l3,2.9l3.9,2.9l5.4,1.9l9.7,6.8l3.5,1.5l2.8-0.2l2.2-2.4l2.6-1.7
		l2.2-1.9l2.8-1.2l0.4,5.6l0.9,3.4l-1.1,5.6l-6.7,12.1l-2.8,1.9l-1.5-1.2l-2.8-1.2l-3,1.5l-0.6,2.7l2.4,3.6l1.5,2.4l0.2,3.2
		l-1.9-0.5l-4.5,1.7l-14.5,2.7l-4.3,1.5l-6.3,3.2L206,790.7l-1.7,3.9l-1.9,2.7l-3.9,0.7l-6.1,1.9l-5,2.4l-12.3,11.2l-0.6,0.2
		l0.2-4.4l-0.6-7l-5.8-12.6l-0.9-1.9l-1.7-16.8l-1.1-1.7L153,755.5l-3.9-10.9l-3.7-9l-3.9-6.3l-1.9-15.3l-1.5-7l-1.7-6.1l-3.2-10.4
		l-5-18.7l-1.3-4.1l-0.9-6.3l-2.2-5.8l-0.6-6.3l-0.4-1.9l-1.1-1l-3-2.7l-0.9-1.2l0.4-2.4l0.9-1l1.3,0.5l1.7,1.5l1.7,4.1l2.2,9.2
		l2.6,2.7l0.2-6.1l-0.4-2.7l-1.1-2.4l2.6-8.3l-1.9-6.8l-3.2-6.1l-1.9-6.6l0.4-1.5l1.5-2.2l0.2-2.4l-0.9-1l-0.9-2.4l-2.4-1.7
		l-2.6-4.1l-1.3-6.8l-0.2-2.2l-1.7-7.3l-8.4-11.7l-1.9-7.5l-0.2-4.1l0.2-2.2l1.3,0.2l0.9,1.7l-0.9,2.9v2.2l1.3,3.9l2.2,4.1l2.8,3.6
		l3.2,2.4l0.2-2.9l1.1-6.8v-4.1l-1.9-7.3l-0.6-6.8l-1.1-2.4l-1.3-2.2l-4.5-4.9l-1.9-2.7l-1.1-3.4l-0.6-4.6l0.9-10.9l-0.9-3.6
		l-2.2-3.4l-6.3-3.2l-5.6-5.3l-3.5-2.7l-3.9-2.2l-3.7-1.5l-3.9-1h-3.5l-2.4,1.7l-1.1,4.1l-1.9,0.7l-3.9-1.7l-3.5-3.4l-0.2-4.6
		l-1.1-2.7l1.9-0.2l5.8,1.5l3-0.5l1.7-1.5l1.1-2.2l0.6-2.7l-0.2-2.2l-1.7-2.9l-0.4-2.7l4.5-9.5l1.3-2.2l1.1,2.7l-0.6,3.2l-1.1,3.2
		l-1.5,2.2l3.2,1.7l2.6,1.7l7.1,6.8l0.9,1.5l0.4,2.7l-0.4,3.9l0.4,1.2l2.4,1.2v-2.7l-1.3-1.5l2.6-3.2l1.1-4.6l-0.4-15.5l-1.5-7
		l-2.8-5.8l-0.6-2.9v-2.2l0.6-4.6l-0.6-4.6l-0.6-2.7l-2.4-4.9L76.1,428l0.4-1.7l1.9-2.7l-3.2-4.4l-1.1-2.9l-0.4-3.4l1.7-7.3
		l-0.4-2.9l-3.7-1.5l1.3-3.2l1.7-1.7l1.9-1.5l2.2-2.2l1.5-1.9l0.6-1.9l0.2-5.3l1.1-5.6l2.2-3.9l3.2-2.9l3-2.2l3.2-2.9l1.7-3.6
		l0.9-4.4l28.3,19.2l11.7-1.9l7.6,0.7l3.7-2.2l2.6-2.2l6.7-1.7l17.9-1.7l4.5,3.9l2.2,5.6l-0.4,6.6l-1.1,5.1l-1.1,3.4l-1.5,2.9v3.6
		l2.2,6.8l-1.3,11.7l-0.9,2.2l-0.2,2.7L179.6,440.4L179.6,440.4z"/>
	<path id="YEM152" class="st0" d="M296.3,441.3l-2.2,9l-0.9,8.7l-3,3.6l-6.9,5.3l-3.7,1.9l-12.3,10l-6.5,7.5l-11.7,2.7l-1.9,2.2
		l-10.8,7.5l-3,4.4l-1.3,5.3l0.6,10l-1.7,4.9l-2.2,2.2l-4.5,8.3l-4.3-2.7l-5.4-6.1l-2.6-4.4l-1.9-6.1l-3.5-6.8l-1.9-5.6l-1.7-3.6
		l-7.1-2.2l-4.3-4.4l-3.9-3.2l-4.8-8l-0.4-5.6l-0.9-4.6l0.6-6.8L182,459l-0.9-3.4l-0.2-4.4l-0.9-2.4l-0.4-8.5l9.7-3.9l30.7-3.4
		l3.7,0.5l3.7-0.2l15.8,1.9l4.8,1.7l3.9-0.5l3.2-1.2l9.1,0.2l7.8-3.4l3.2-2.7l3.2,0.5l2.4,1l1.5,2.4l3.2,2.2L296.3,441.3
		L296.3,441.3z"/>
	<path id="YEM153" class="st0" d="M450.4,593.3l-13.2,18l-4.3,19.9l-3.2,28.6l-4.3,9.7l-5.8,6.3l-6.5,3.6l-4.1,10.7l-3.5,1.7
		l-5.2-2.4l-9.9-3.9l-8-5.8l-4.1-1.9l-5-1.9l-3.9-2.7l-8.6-2.7l-3.9-1.9l-3.2-3.9l-7.6-7l-2.8-1.2l-2.2,0.7l-1.9,3.4l-0.2,2.7
		l-1.3,3.4l-1.9,3.4l-8,3.6l-4.5-1.2l-1.3-2.9l-2.4-10.4l-2.6-0.5l-3.2,1.5l-4.1,5.1l-4.8,4.4l-3.9,5.6h-4.1l-2.8,1.5l-1.3,1.9v3.4
		l1.5,3.2l0.4,4.6l-0.2,4.6l-4.5,9.7l-4.1,2.4l-4.8,1.2l-2.8-1.5l-0.6-3.6l0.6-4.4l-0.9-1.9l-1.5,0.2l-1.3,3.2l-2.8,4.6l-2.8,8.5
		l-2.4,3.9l-2.6,6.6l-2.8,1.2l-2.2,1.9l-2.6,1.7l-2.2,2.4l-2.8,0.2l-3.5-1.5l-9.7-6.8l-5.4-1.9l-3.9-2.9l-3-2.9l-2.4-6.8v-6.8
		l-5.8-27.7l1.1-2.7l3.5-0.2l4.1-0.2l3-0.2l10.4-6.6l6.1-5.8l1.7-2.7l3-1.5l5.2-0.2l3.9,1.7l2.6,0.2l4.5-0.7l2.8-1l2.6-2.2l11-7.5
		l3-3.4l3-2.7l5.2-7.8l1.5-4.9l-1.5-3.6l-2.8-4.4l-1.9-5.3l-3.5-6.3l-11.5-14.3l-4.1-6.3l-1.9-7l-0.2-3.6l2.6-2.7l8.2,1l6.7-0.7
		l3.9-1.2l6.1-6.3l3.2-2.2l3.5-2.4l4.1-2.7l9.5-7.8l6.1-2.4l5.6-1.2l4.8-0.2l3,2.4l4.8,1.9l3.5,4.4l4.1,3.9l13.4,3.2l5.2-1.9
		l2.4-3.6l0.9-3.9l1.5-3.2l4.3,0.7l3,4.4l4.5,3.4l4.8,0.5l7.1-3.2l3.7-2.2l3.9-5.3l3-5.1l4.1-3.2l3.7-0.5l4.5,0.5l4.3-0.5l4.5,0.5
		l3.9,2.9l5,8.3l2.6,13.6l3.2,7.5l6.9,10.9l1.7,4.6L450.4,593.3L450.4,593.3z"/>
	<path id="YEM154" class="st0" d="M229.5,216.3l-0.9,35.2l2.6,27.9l-0.4,3.4l-0.4,4.4l0.2,3.6l0.4,2.9v3.2l1.1,2.2l5.2,4.1l1.9,3.4
		l-0.2,6.1l0.6,5.1l0.2,4.6l6.9,15.8l-0.2,2.9l-1.5,2.2l-4.1,3.6l-1.7,4.4l2.2,2.2l1.9-0.5l6.7-8.7l1.7-0.7l1.7,1l2.2,2.2l4.3,8
		l1.7,7.8l1.1,8l-0.6,3.9l-0.6,7.3l1.1,5.1l0.4,3.9l3,2.9l1.1,1.9l-0.9,7.3l-1.3,5.6l-1.7,2.4l-2.8,0.7l-3.2-1l-2.8,0.2l-2.2,1.7
		l-1.5,1.7l-0.9,2.2l-0.6,2.7v2.7l2.4,4.9l-0.2,2.9l-3.5,7.5l-4.8-1.7l-15.8-1.9l-3.7,0.2l-3.7-0.5l-30.7,3.4l-9.7,3.9l-2.6-17.7
		l0.2-2.7l0.9-2.2l1.3-11.7l-2.2-6.8v-3.6l1.5-2.9l1.1-3.4l1.1-5.1l0.4-6.6l-2.2-5.6l-4.5-3.9l-17.9,1.7l-6.7,1.7l-2.6,2.2l-3.7,2.2
		l-7.6-0.7l-11.7,1.9l-28.3-19.2l1.5-28.2l-0.6-9.2L92.3,292l-0.6-15.3l-1.3-5.6v-2.7l-2.2-3.6l8.4-3.4l6.1-2.9l4.5-3.4l1.5-3.4
		l-0.6-6.3l0.6-2.7l1.9-1l6.7-1.5l2.6-1l7.6-5.1l3.7-3.2l2.2-3.4l4.5-13.4l0.9-3.9l0.2-4.4l0.9-2.9l2.2-1l4.3,1l6.9,2.4l3-0.7
		l1.1-4.1l3.5,2.4l29.4,9.7l3,1.9l3.7,0.5l13.2-1L229.5,216.3L229.5,216.3z"/>
	<path id="YEM155" class="st0" d="M332,211.7l9.1,6.8l2.8,1.5l9.9,8.5l2.6,3.2l1.1,3.4l-0.9,2.9l-1.7,2.4v3.6l2.6,5.8l1.5,7.5
		l1.5,5.3l2.4,4.9l0.6,4.6l-0.4,4.1l-0.9,3.6l0.9,2.7l1.1,1.9l0.2,2.9l-3.9,13.4l1.7,5.3l0.2,6.3l0.9,5.6l5.6,11.2l4.3,5.6l-9.5,0.7
		l-10.2,4.4l-10.2,6.1l-1.7,4.6l-1.5,5.3l0.9,11.2l1.1,5.6l1.3,3.9l-0.2,4.4l-0.9,3.9l-3.7,5.8l-5,4.1l-3.2,5.3l-0.2,9.2l-1.9,8.5
		l-10.6,9.5l-5,2.7l-5.6,1l-6.7-0.7l-2.4,2.9l0.2,3.2l-1.9,5.1l-10.8-5.8l-3.2-2.2l-1.5-2.4l-2.4-1l-3.2-0.5l-3.2,2.7l-7.8,3.4
		l-9.1-0.2l-3.2,1.2l-3.9,0.5l3.5-7.5l0.2-2.9l-2.4-4.9V419l0.6-2.7l0.9-2.2l1.5-1.7l2.2-1.7l2.8-0.2l3.2,1l2.8-0.7l1.7-2.4l1.3-5.6
		l0.9-7.3l-1.1-1.9l-3-2.9l-0.4-3.9l-1.1-5.1l0.6-7.3l0.6-3.9l-1.1-8l-1.7-7.8l-4.3-8l-2.2-2.2l-1.7-1l-1.7,0.7l-6.7,8.7l-1.9,0.5
		l-2.2-2.2l1.7-4.4l4.1-3.6l1.5-2.2l0.2-2.9l-6.9-15.8l-0.2-4.6l-0.6-5.1l0.2-6.1l-1.9-3.4l-5.2-4.1l-1.1-2.2v-3.2l-0.4-2.9
		l-0.2-3.6l0.4-4.4l0.4-3.4l-2.6-27.9l0.9-35.2l22.5-6.1l3.5-1.7l5-2.9l2.4-1.9l4.5-1.7h6.9l12.3,3.6l17.7,8.3l8,1.7l7.3,0.2
		L332,211.7L332,211.7z"/>
	<path id="YEM156" class="st0" d="M408.9,690.2l5.8,4.1l-0.2,11.4l1.7,2.9l1.9,0.7l6.1,4.1l-1.9,6.3l-2.6,2.4l-3.5-0.2l-3.7,0.5
		l-1.5,1.7l-0.2,2.7l-1.7,4.4l-2.8,3.2l-1.3,4.4l1.1,4.1l3.2,3.4l-1.7,3.6l-3.2,1h-3.5l-4.1,1l-4.5,1.9l-4.3,3.4l-2.8,5.1l-0.4,3.6
		l-1.3,5.8l-1.7,1.2l-1.9-0.2l-2.2,1.5l-2.6,8.3l-2.8,1.9l-1.3,3.6l0.2,1.2l-1.1,5.1l-1.7,2.9l-2.4,3.2l-6.5,5.1l-4.3,0.5l-3.7-1.5
		l-2.6-1.5l-3.5-1.5l-6.3-0.2l-13-4.6l-4.3-2.9l-8.9-1.2l-20.1-6.6l-1.3-2.7l0.9-2.4v-3.9l-2.6-1.2l-8,3.6l-1.5-2.2l0.2-3.6
		l-1.1-2.9l-8.2,1.2l-3.7,1.9l-4.3-1.5l-3.9,2.2l-10.4-0.5l-4.8-10.2l4.5-1.7l1.9,0.5l-0.2-3.2l-1.5-2.4l-2.4-3.6l0.6-2.7l3-1.5
		l2.8,1.2l1.5,1.2l2.8-1.9l6.7-12.1l1.1-5.6l-0.9-3.4l-0.4-5.6l2.6-6.6l2.4-3.9l2.8-8.5l2.8-4.6l1.3-3.2l1.5-0.2l0.9,1.9l-0.6,4.4
		l0.6,3.6l2.8,1.5l4.8-1.2l4.1-2.4l4.5-9.7l0.2-4.6l-0.4-4.6l-1.5-3.2v-3.4l1.3-1.9l2.8-1.5h4.1l3.9-5.6l4.8-4.4l4.1-5.1l3.2-1.5
		l2.6,0.5l2.4,10.4l1.3,2.9l4.5,1.2l8-3.6l1.9-3.4l1.3-3.4l0.2-2.7l1.9-3.4l2.2-0.7l2.8,1.2l7.6,7l3.2,3.9l3.9,1.9l8.6,2.7l3.9,2.7
		l5,1.9l4.1,1.9l8,5.8l9.9,3.9l5.2,2.4L408.9,690.2L408.9,690.2z"/>
	<path id="YEM157" class="st0" d="M544,767.1l-6.5,1.9l-1.3,3.2l-0.6,6.3l0.6,4.1l-0.6,3.2l-5,3.2l-6.5,1.7l-2.2,2.4l-1.3,3.2
		l0.6,3.2v3.4l-0.4,2.9l-3.2,2.9l-6.7,4.6v2.7l2.6,1.5l8.9,0.5l3,1.5l0.9,1.9l-1.7,2.7l-9.7,12.4l-4.8,8.3l-0.4,8l0.6,5.8l2.4,3.2
		l2.6,1.7l2.2,2.4l0.2,2.4l-1.5,4.4l-8.4,6.6l-11.5,35.7l-5.6,45.6l-1.1,2.4l-14.7,1.2l-31.8,9.7l-36.1,6.8l-15.8,6.6l-7.8,5.1
		l-12.1,21.1l-0.4-2.2l-0.9-0.2l-4.1,1.7l-5,1.5l-11.2,6.1l-3.9,0.5l-3.5-0.5h-3.5l-6.5,4.1h-3.9l-3.2-1.2l-2.2-2.9l2.4,0.2l4.3,1
		l2.4,0.2l1.5-1.5v-2.7l-1.3-1.7l-1.9,1.7l-4.5-0.7l-5.6,2.7l-10.4,6.3l-5,1.5h-2.8l-4.5-1.7l-5.2,2.7l-2.6,0.2l-3.5-2.4l-3-7
		l-2.6-1.5l-3.5-0.5l-3-1.5l-4.8-3.6l-2.8-1.7l-3.2-1.2l-3.7-1l-3.9-0.2l-2.4-1l-6.7-4.4l-3.5-1.5h-6.3l-1.5-0.7l-2.8-2.2l-3.2-1.5
		l-2.2,1l-9.9,11.2l6.3-14.3l13.4-23.1l9.9-11.2l6.1-10.4l0.4-4.6l-0.6-3.2l-1.5-2.4v-3.4l2.4-1.9l6.3-1l2.6-1.5l3-1.7l2.6-2.9
		l3.5-1.7l3.5-1l3.5,0.5l3.2,1.7l3.2,1.2l6.5,4.4l3.2,3.2l4.8,2.4l3.2,0.2l0.9-3.2l-0.6-10l1.3-1.2l6.7,4.6l4.1,0.7l1.9-1.9l0.9-4.4
		l1.7-3.9l2.2-0.7l3.9-0.5l1.9-1.7l-0.2-6.1l3.9-3.6l2.2-4.4l7.3,1.5l7.3-0.2l9.1-2.4l4.1-3.6l0.6-4.6l-0.9-3.9l0.4-5.1l-0.2-3.4
		l-1.5-3.9l1.1-2.7l3.9-1.2l11.2-0.2l1.7-2.2l-0.4-3.6l-1.9-2.7l-5.2-0.7l-2.4-1.5l-3-1.5l-1.3-2.9l1.3-3.4l2.8-1.9l3-1.5l5-1
		l1.3-1.2l-0.2-2.7l0.6-1.5l2.2-0.7h2.4l3-1.5l1.7-2.2l1.5-2.4l2.4-1.2l1.5-4.4l6.9,2.9l2.4,3.2l7.1,6.1l4.8-1l6.3-4.9l11.9-5.6
		l2.8-3.9l2.8-1.9l6.9,2.9l3.9-0.5l1.1-4.1l-0.6-4.9l0.2-14.8l4.3-1l5.6-0.5l14.3-6.6l7.8-5.8l7.3-3.9l6.3-6.8l10.8-27.2l10.2,0.2
		l2.8,0.5l5.4-3.2l3.9-3.9l9.1-6.6l3.9-0.7l2.8,1.7l2.2,10.2L544,767.1L544,767.1z"/>
	<path id="YEM158" class="st0" d="M203.2,1017.4l-0.2,2.7l-2.2,1.5l-1.1-0.5l-3-3.6l-2.2,0.5l-1.1-0.5l-0.4-2.7l2.8-1.5l3.9-0.2
		l2.4,1.5C202.1,1014.5,203.2,1017.4,203.2,1017.4z M370,794.3l3.2,5.6l0.4,4.6l-0.6,4.9l-1.5,4.6l-0.2,4.1l2.6,3.2l3.7,1.2l3.9-1
		l3.9,0.2l5.4,3.2l0.9,2.4l0.4,4.1l-1.5,4.4l-2.4,1.2l-1.5,2.4l-1.7,2.2l-3,1.5h-2.4l-2.2,0.7l-0.6,1.5l0.2,2.7l-1.3,1.2l-5,1
		l-3,1.5l-2.8,1.9l-1.3,3.4l1.3,2.9l3,1.5l2.4,1.5l5.2,0.7l1.9,2.7l0.4,3.6l-1.7,2.2l-11.2,0.2l-3.9,1.2l-1.1,2.7l1.5,3.9l0.2,3.4
		l-0.4,5.1l0.9,3.9l-0.6,4.6l-4.1,3.6l-9.1,2.4l-7.3,0.2l-7.3-1.5l-2.2,4.4l-3.9,3.6l0.2,6.1l-1.9,1.7l-3.9,0.5l-2.2,0.7l-1.7,3.9
		l-0.9,4.4l-1.9,1.9l-4.1-0.7l-6.7-4.6l-1.3,1.2l0.6,10l-0.9,3.2l-3.2-0.2l-4.8-2.4l-3.2-3.2l-6.5-4.4l-3.2-1.2l-3.2-1.7l-3.5-0.5
		l-3.5,1l-3.5,1.7l-2.6,2.9l-3,1.7l-2.6,1.5l-6.3,1l-2.4,1.9v3.4l1.5,2.4l0.6,3.2l-0.4,4.6l-6.1,10.4l-9.9,11.2l-13.4,23.1
		l-6.3,14.3l-0.9,1.2l-2.4,1.5l-3.7,0.5l-4.1-0.7l-0.9-1.9l3.2-16l0.2-7.8l-1.7-7l-3.5-6.3l-5.2-5.6l-1.3-4.6l-2.4-2.9l-0.6-1.5
		l-0.2-3.9l-0.6-3.9l-1.1-3.6l-1.7-3.2l-6.1-7.8l-1.3-4.1l-2.2-4.6l-1.7-5.1l-0.6-1.7l-10.4-14.8l-3.9-14.3l2.2-6.3l1.5-6.8
		l1.1-35.7l3.7-6.3l0.9-3.4l0.6-1.2l1.9-1l-2.4-6.3l0.4-9.7l0.6-0.2l12.3-11.2l5-2.4l6.1-1.9l3.9-0.7l1.9-2.7l1.7-3.9l13.2-19.4
		l6.3-3.2l4.3-1.5l14.5-2.7l4.8,10.2l10.4,0.5l3.9-2.2l4.3,1.5l3.7-1.9l8.2-1.2l1.1,2.9l-0.2,3.6l1.5,2.2l8-3.6l2.6,1.2v3.9
		l-0.9,2.4l1.3,2.7l20.1,6.6l8.9,1.2l4.3,2.9l13,4.6l6.3,0.2l3.5,1.5l2.6,1.5l3.7,1.5l4.3-0.5l6.5-5.1l2.4-3.2L370,794.3L370,794.3z
		"/>
	<path id="YEM332" class="st0" d="M1484.7,524.1l-0.4-1.2l-0.2-3.9l-1.5-2.9l-1.3-3.6l-1.9-3.6l-1.3-5.1l-1.9-3.9l-1.5-3.9l-3.2-5.1
		l-3.9-2.2l-9.5-1.7l-11.7-3.4l-11.7,0.7l-3.9,1.7l-4.5,1.2l-13.4,1.5l-8.6-0.2l-11-4.4l-2.6-3.4l-1.1-3.4l-0.2-3.9l0.4-3.4l2.2-3.6
		l2.6-3.6l3.2-6.6l2.8-2.4l1.9-3.2l0.9-8.3l-1.1-3.9l-1.7-1.9l-7.3-2.4l-5-0.5l-5.4-1.9l-3-4.6l-1.7-7l1.5-8l1.3-5.1l1.7-4.4
		l-0.2-3.6l-0.6-4.9l-0.2-5.6l1.7-5.8v-5.1l1.5-7l2.8-3.6l3-5.8l6.7-20.9l-1.1-7l-1.9-5.3l-3.9-2.4l-2.4-2.9l-2.8-3.9l0.4-7.5
		l13.6-59.2l-1.5-7.3l-1.9-4.4l-0.2-4.6l3-8l3.7-5.3l4.1-3.9l7.3-5.1l30.7-14.3l14-10.7l13.4-18l70-65.3l22.7-37.9l21.4-53.9
		l16.4-58.5l10.6-61.7l30-85.2l47.6-79.1l27.2,73.1l7.6,19.9l14.9,39.8l7.3,19.9l22.3,59.7l22.5,59.5l7.3,19.9l20.5,54.4l-1.5,0.2
		l2.6,1.9l6.5,0.5l3,1.2l1.9,2.7l28.3,72.8l21.8,55.3l-3.7,2.2l-8.2,2.4l-6.5-1.7l-1.9,1.9l-3.9,0.5l-1.9,1.2l-3.2,3.9l-1.9,1.7
		l-4.3,1.5l-6.1,3.9l-7.1,1.7l-3.7,1.7l-6.3,4.4l-2.8,1.5l-24.2,7l-11.2,6.1l-19.7,15.5l-17.7,16.3l-4.5,5.6l-2.2,4.1l-3.2,7
		l-5.6,7.5l-1.3,2.4l-0.9,2.4l0.4,4.6l0.9,2.4l-1.3,3.9l-3.9,5.1l-1.7,8.3l-4.3,5.6l-0.6,3.6l1.3,3.9l2.4,4.6l1.7,4.9l-1.9,8.3
		l2.8,3.2l5.6,3.2l0.2,3.2l-1.5,14.6l0.9,8.7l1.7,8.7l1.9,2.2l0.2,2.4l-0.9,1.9l-0.4,2.7l-1.3,2.7l-1.5,0.5l-3.7,0.5l-26.6,8.3
		l-3.7,3.9l-1.5,0.5l-4.3,0.7l-13.8,6.1l-6.7,4.9l0.2,4.6l-1.3,1.2l0.2,2.4l-0.6,0.2l-3.2-1.9l-1.5-1.5l-1.5-0.5l-3.5,2.7l-8.9,2.2
		l-13.8,8.5l-2.2,2.4l-0.9,2.9l1.1,3.9l1.5,2.2v1.5l-3.7,1.5l-18.6,1.9l-3.2,1.2l-3,1.9l-2.6,1.9l-4.1,5.6l-3.5,0.2l-1.5,0.5
		l-0.4,1.5h-1.9l-8.9,4.4l-2.4,1.7l-4.5-1.7l-4.8,2.4l-4.5,3.2l-3.5,1.7l-34.6,10.7l-38,8L1484.7,524.1L1484.7,524.1z"/>
	<path id="YEM333" class="st0" d="M572.3,606.9H592l4.1,2.2l3,2.9l-0.9,3.9l-2.2,4.1l-1.3,4.1l-0.2,4.9l3.2,3.2l7.6,1.9l3.9,3.6
		l9.9,29.9l3.9,6.8l6.1,4.6l8,1.7l7.3,3.4l3.5,2.7l0.4,2.4v2.2l0.6,2.4l0.2,2.7l1.5,3.4l0.6,3.4l3.9,4.1l-2.6,17l-4.8,7.5l-2.8,9.5
		l-6.5,6.6l-29.8,24.8l-7.1,4.9l-5.4,2.7l-4.8,1.2l-3.7,0.5h-3.5l-6.3-3.6l-2.6-5.6l-5.4-1.9l-24.2-2.7l-1.9-1l1.1-15.5l-2.2-10.2
		l-2.8-1.7l-3.9,0.7l-9.1,6.6l-3.9,3.9l-5.4,3.2l-2.8-0.5l-10.2-0.2l-0.2-5.3l-0.9-4.9l-4.5-6.1l-13-13.8l-4.8-6.8l-3-6.1l-3.9-5.6
		l-5.6-2.4l-7.3-0.2l-4.5-0.7l-3.9,1.7l-2.8,0.5l-2.4,2.2l-3,1.2h-4.8l-5,1l-3.5,2.4l-7.6,3.2l-6.1-4.1l-1.9-0.7l-1.7-2.9l0.2-11.4
		l-5.8-4.1l4.1-10.7l6.5-3.6l5.8-6.3l4.3-9.7l3.2-28.6l4.3-19.9l13.2-18l9.3-1.5l7.3-3.4l7.3-7l9.3,2.2l4.8,2.9l3.5,4.4l0.9,5.3v6.1
		l1.5,10.4l1.7,6.8l0.2,6.6l1.5,4.6l0.4,4.4l1.5,4.4l2.2,3.9l3.5,2.2h5.6l6.7-5.6l1.9-2.7l3-1.2l7.1,1.9l1.3-2.2l-0.9-2.2l1.5-1.9
		l3.2-0.5l5-1.9l5.8-3.2l6.1-0.5l4.5,1.5l3.9,0.7l2.8-1.2v-3.6l-3-6.3l0.2-2.9l1.5-2.2l1.7,0.5l2.2,3.4l1.7,1.2l2.6-1.5l1.3-1.7
		L572.3,606.9L572.3,606.9z"/>
	<path id="YEM334" class="st0" d="M504.9,753.3l-10.8,27.2l-6.3,6.8l-7.3,3.9l-7.8,5.8l-14.3,6.6l-5.6,0.5l-4.3,1l-0.2,14.8l0.6,4.9
		l-1.1,4.1l-3.9,0.5l-6.9-2.9l-2.8,1.9l-2.8,3.9l-11.9,5.6l-6.3,4.9l-4.8,1l-7.1-6.1l-2.4-3.2l-6.9-2.9l-0.4-4.1l-0.9-2.4l-5.4-3.2
		l-3.9-0.2l-3.9,1l-3.7-1.2l-2.6-3.2l0.2-4.1l1.5-4.6l0.6-4.9l-0.4-4.6l-3.2-5.6l1.1-5.1l-0.2-1.2l1.3-3.6l2.8-1.9l2.6-8.3l2.2-1.5
		l1.9,0.2l1.7-1.2l1.3-5.8l0.4-3.6l2.8-5.1l4.3-3.4l4.5-1.9l4.1-1h3.5l3.2-1l1.7-3.6l-3.2-3.4l-1.1-4.1l1.3-4.4l2.8-3.2l1.7-4.4
		l0.2-2.7l1.5-1.7l3.7-0.5l3.5,0.2l2.6-2.4l1.9-6.3l7.6-3.2l3.5-2.4l5-1h4.8l3-1.2l2.4-2.2l2.8-0.5l3.9-1.7l4.5,0.7l7.3,0.2l5.6,2.4
		l3.9,5.6l3,6.1l4.8,6.8l13,13.8l4.5,6.1l0.9,4.9L504.9,753.3L504.9,753.3z"/>
	<path id="YEM335" class="st0" d="M821.4,146.9l7.1,123.3L792.6,310l-145.9,30.6l-52.5,20.9l-22.5,21.8l-19.9,1.9l-36.7-6.6
		l-42.1-25l-58.6-15.5l-11.5-8l-14.9-1.2l-3.5,1.7l-1.5,1.7l-9.7,2.4l-4.3-5.6l-5.6-11.2l-0.9-5.6l-0.2-6.3l-1.7-5.3l3.9-13.4
		l-0.2-2.9l-1.1-1.9l-0.9-2.7l0.9-3.6l0.4-4.1l-0.6-4.6l-2.4-4.9l-1.5-5.3l-1.5-7.5l-2.6-5.8v-3.6l1.7-2.4l0.9-2.9l-1.1-3.4
		l-2.6-3.2l-9.9-8.5l-2.8-1.5l-9.1-6.8l2.6-7l2.2-10.4l3.5-7.3l2.2-3.6l3.9-3.4l4.3-1.9l1.3-1.2l2.6-1.2l7.1-5.3l3.2-3.9l2.6-0.5
		l1.7-1.7l3-6.3l2.4-2.4l6.9-11.2l3.2-3.6l22.9-13.1l9.7-3.9l11.7-2.9l11-0.2l10.2,1.2l14.5-8.3l3.9-65.3l33.5,0.2l9.9,2.4
		l28.3,18.7l8,2.9l155.4,18l67.7-10.4l6.3,4.1l24.2,38.1l14.7,23.1l2.4,1.5L821.4,146.9L821.4,146.9z"/>
	<path id="YEM336" class="st0" d="M1115.3,737.2l-18.6-0.5l-3,1.2l-7.8,7.5l-1.7,0.7l-2.8,0.5l-1.5,1.7l-3.2-4.4l-6.1-1.2h-13.4
		l1.3,2.7l-7.3,0.2l-20.1,6.6l0.9-4.9l-2.8-3.2l-3.9-2.2l-2.6-2.2l-1.1,1.5l-4.8-2.4l-15.6-4.4l-2.6,1.7l-9.3,3.2l-3,0.5l-2.4,1.9
		l-8.9,11.9l-8,4.9l-26.8,10.2l-3.7,2.9l-14.3,17L900,811l-6.7,4.6l-12.8,4.6l-1.7-10.4l-1.3-5.1l-0.2-7.8l-5.4-19.4l-9.1-21.6
		l1.7-4.9l2.4-3.6l2.2-5.1l-0.9-6.6l0.2-9l-2.4-8.5l-6.3-4.6l-24-1.5l-11.7-2.9l-11.2-4.6l-12.5-1.7l-13.2,1.9l-17.5,5.3l-13.8,6.8
		l-20.3,3.9l-3-4.9l-1.1-5.6l-6.1-12.4l-2.4-7.5l-4.1-5.6l-5.2,0.5l-5.4,3.2L693,695l-5.2,4.4l-6.7,3.6l-7.8,2.9l-15.8,1.5l-3.9-4.1
		l-0.6-3.4l-1.5-3.4l-0.2-2.7l-0.6-2.4v-2.2l-0.4-2.4l-3.5-2.7l-7.3-3.4l-8-1.7l-6.1-4.6l-3.9-6.8l-9.9-29.9l-3.9-3.6l-7.6-1.9
		l-3.2-3.2l0.2-4.9l1.3-4.1l2.2-4.1l0.9-3.9l-3-2.9l-4.1-2.2h-19.7l-3.7-2.7l-2.2-2.7l-1.5-5.8l0.4-10.9l0.6-6.1l1.3-5.3l-0.4-4.4
		l2.4-1.7l0.6-2.4v-3.6l1.3-8l4.1-8.5l1.3-4.4l3.7-8.7l24.2-23.1L709,428l245.5-21.4l15.8,6.3l2.2,6.6l-22.7,40.1l-7.8,10.2l-3.9,10
		l-1.7,7l-0.2,5.1l-5,17.2l-0.4,5.6v5.1l4.3,5.1l7.3,10.9v6.1l-2.6,5.8l-28.3,27.2l-4.1,5.6l1.3,5.1l19.5,15.5l12.3,13.6l13.2,10
		l13.6,5.3l17.9,3.2l12.8,0.2l4.3,1.9l4.5,2.7l3.5,4.6l3.5,8l1.7,6.1l4.3,6.6l2.4,5.3l8.6,10l12.8,7l11.7,1.2l13.4-0.5l14.7,4.4
		l16,8.5l3.9,4.9l2.6,4.4l1.5,4.1l0.4,3.4l1.1,3.2l4.8,10l1.3,3.9L1115.3,737.2L1115.3,737.2z"/>
	<path id="YEM337" class="st0" d="M706.8,428l-102.2,80.6l-24.2,23.1l-3.7,8.7l-1.3,4.4l-4.1,8.5l-1.3,8v3.6l-0.6,2.4l-2.4,1.7
		l0.4,4.4l-1.3,5.3l-0.6,6.1l-0.4,10.9l1.5,5.8l2.2,2.7l3.7,2.7l-1.1,6.6l-1.3,1.7l-2.6,1.5l-1.7-1.2l-2.2-3.4l-1.7-0.5l-1.5,2.2
		l-0.2,2.9l3,6.3v3.6l-2.8,1.2l-3.9-0.7l-4.5-1.5l-6.1,0.5l-5.8,3.2l-5,1.9l-3.2,0.5l-1.5,1.9l0.9,2.2l-1.3,2.2l-7.1-1.9l-3,1.2
		l-1.9,2.7l-6.7,5.6h-5.6l-3.5-2.2l-2.2-3.9l-1.5-4.4l-0.4-4.4l-1.5-4.6l-0.2-6.6l-1.7-6.8l-1.5-10.4v-6.1l-0.9-5.3l-3.5-4.4
		l-4.8-2.9l-9.3-2.2l0.2-12.1l0.9-3.2v-3.9l-2.4-2.7l0.4-1.7l1.9-2.4l1.3-3.9l2.2-4.6l3.9-4.6l2.4-5.8l0.9-2.9l2.8-2.4l8.6-4.4
		l2.6-4.9l1.9-6.3l-0.6-4.9l0.6-3.9v-4.4l-1.9-7l-3.2-3.9l-5.4-2.7l-7.8-1l-6.3-1.7l-4.3-4.6l-5.8-7l-7.6-6.8l-3.2-1l-2.6-0.7
		l-3.7,2.4l-1.9,3.6l-2.2,4.9l-6.1,1.9l-5.6-2.4l-6.1-8l-5.8-5.6l-4.1-1.7l-3.9-0.5l-2.6-1.2l-0.9-3.2l3.7-3.9l20.5-16l4.8-5.8
		l3.5-7.8l-3.7-6.8l-11.5-16.3l-2.6-9.2v-14.1l-3-18.9l-8.4-19.4l58.6,15.5l42.1,25l36.7,6.6l19.9-1.9l22.5-21.8l52.5-20.9
		L792.6,310L706.8,428L706.8,428z"/>
	<path id="YEM3496" class="st0" d="M414.3,338.2l8.4,19.4l3,18.9v14.1l2.6,9.2l11.5,16.3l3.7,6.8l-3.5,7.8l-4.8,5.8l-20.5,16
		l-3.7,3.9l0.9,3.2l2.6,1.2l3.9,0.5l4.1,1.7l5.8,5.6l6.1,8l5.6,2.4l6.1-1.9l2.2-4.9l1.9-3.6l3.7-2.4l2.6,0.7l3.2,1l7.6,6.8l5.8,7
		l4.3,4.6l6.3,1.7l7.8,1l5.4,2.7l3.2,3.9l1.9,7v4.4l-0.6,3.9l0.6,4.9l-1.9,6.3l-2.6,4.9l-8.6,4.4l-2.8,2.4l-0.9,2.9l-2.4,5.8
		l-3.9,4.6l-2.2,4.6l-1.3,3.9l-1.9,2.4l-0.4,1.7l2.4,2.7v3.9l-0.9,3.2l-0.2,12.1l-7.3,7l-7.3,3.4l-9.3,1.5l-0.2-7l-1.7-4.6
		l-6.9-10.9l-3.2-7.5l-2.6-13.6l-5-8.3l-3.9-2.9l-4.5-0.5l-4.3,0.5l-4.5-0.5l-3.7,0.5l-4.1,3.2l-3,5.1l-3.9,5.3l-3.7,2.2l-7.1,3.2
		l-4.8-0.5l-4.5-3.4l-3-4.4l-4.3-0.7l-1.5,3.2l-0.9,3.9l-2.4,3.6l-5.2,1.9l-13.4-3.2l-4.1-3.9l-3.5-4.4l-4.8-1.9l-3-2.4l-4.8,0.2
		l-5.6,1.2l-6.1,2.4l-9.5,7.8l-4.1,2.7l-3.5,2.4l-3.2,2.2l-6.1,6.3l-3.9,1.2l-6.7,0.7l-8.2-1l-2.6,2.7l-7.3-2.4l-0.6-2.2l-9.1-1.5
		l-1.3-6.1l-2.8-4.6l2.8-4.9l1.1-1v-2.2L247,545l-3.5,0.5h-3.2l-4.8-1.2l-5.4-3.4l-5.8-6.1l4.5-8.3l2.2-2.2l1.7-4.9l-0.6-10l1.3-5.3
		l3-4.4l10.8-7.5l1.9-2.2l11.7-2.7l6.5-7.5l12.3-10l3.7-1.9l6.9-5.3l3-3.6l0.9-8.7l2.2-9l1.9-5.1l-0.2-3.2l2.4-2.9l6.7,0.7l5.6-1
		l5-2.7l10.6-9.5l1.9-8.5l0.2-9.2l3.2-5.3l5-4.1l3.7-5.8l0.9-3.9l0.2-4.4l-1.3-3.9l-1.1-5.6l-0.9-11.2l1.5-5.3l1.7-4.6l10.2-6.1
		l10.2-4.4l9.5-0.7l9.7-2.4l1.5-1.7l3.5-1.7l14.9,1.2L414.3,338.2L414.3,338.2z M368.5,430.6l-1.3-1.9l-3-2.2l-3.7-4.4l-5.6-2.7
		l-2.4,0.2l-4.1,1.9l-2.2,2.7l-2.2,3.6h-2.4l-1.5,0.7l-1.3,1.7l-3.2,1.2l-1.5,2.2l-0.2,5.3l0.2,2.2l-1.7,0.2l-0.6,1.7l-1.3,1.9
		l-2.2,0.5l-1.1,1.5l-6.9,2.2l-0.2,1.7l0.9,2.4l1.5,1.5l3,1.9l2.4,3.2l0.2,2.2l-2.6,1l-1.3,1.7l-0.9,4.1l0.6,3.4l6.1,4.6l0.6,1.9
		l-0.6,4.4l0.6,1h8.2l1.5-0.2l-0.2-2.9l0.6-1.2l1.7-0.2l1.5-1l0.6-1.7v-3.9l-0.9-2.7l-1.1,0.2l-1.1-1l-0.6-4.4l-1.3-2.7l-0.2-1.9
		l0.4-2.2l-0.2-1.7l0.9-1.9l2.4-2.7l4.8-3.9l0.4-1.9l-0.9-4.6l1.1-1.9l1.3-1.9l1.1,1.9l1.1-1.9l5.4,0.5l0.6-1.5v-2.2l0.6-1.9
		l2.2-1.9l1.9,0.5l-0.6,3.2l1.3,1l2.8-0.2l1.5-1.2l1.1-1.7L368.5,430.6L368.5,430.6z"/>
	<path id="YEM3497" class="st0" d="M1920.9,1124.4l0.4,1.5l-8.2-0.7l-2.6-1.2l3.5-1.5l3.2,0.2L1920.9,1124.4z M1874,1112.1l2.4,1.2
		h2.8l2.4,1.9l0.9,3.2l-0.2,2.9l-2.6,0.7l-2.6,0.5l-5.2-2.2l-3.5-3.4l-3.7-1.2l0.4-1.9l2.8-1l2.2,0.2l1.9-0.7L1874,1112.1
		L1874,1112.1z M1724.2,1105.3l3.7,1.7l2.8-0.2l5.2,1l7.6,0.2l5.2,2.7l9.5-2.7l2.6,0.7l1.1,1.9l-2.4,1l-1.7,2.2l1.3,1.2l1.7,3.4
		l-5-1l-5.2,1.5l-8-1.7l-7.8-0.5l-2.8-4.6h-2.2l-3.7,1.2l-1.9,0.2l-0.6-0.7l-2.4-4.1l-0.9,0.2l-3.5-1.7l-4.3,1.2l-1.7-1.7l-5.8-2.9
		l-0.9-2.7l2.6-1l2.6-0.5l4.3,0.2l5.2,1.2L1724.2,1105.3L1724.2,1105.3z M1967.2,1007.2l5.6,0.7l8.4-1l6.9,7l11.9,10l14.5,4.4
		l3.7-5.1l1.7-4.9l4.8-1l3.2,0.5l3,1.5l5.8-0.7l6.1,0.2l6.5-4.4l2.2-0.7l4.3-3.2l1.7-2.4l4.8-0.5l2.2,2.4l2.6,2.2l3.7,2.7l2.6-0.7
		l2.2-1.5l0.9,0.5l3.2,4.1h3.2l3.9,1l1.7,3.2l2.6,1.2l6.1,2.9l7.1,1.7l7.1,4.6l3.7,1.2l8.4,6.1l4.5-0.7l3.2-2.2l1.9,0.2l2.4,1.5
		l-2.2,2.4l-5.2,1.7l-3.7,1.2l-3.5,0.7l-1.7,1.7l-0.4,5.3l-7.3,3.4l-5.8,1.7l-7.1,3.2l-7.8-0.7l-6.5,2.7l-1.5,1.7l-3.2,5.1l-1.5,1.2
		l-4.5,2.2l-5.2,4.6l-2.4,1.7l-5.2-0.5l-8.2,0.7l-2.8-0.5l-3,0.7l-3.9,3.9l-6.7-2.4l-5.2,1.5l-7.6,1.2l-21,4.6l-7.8,1l-10.2-1.2
		l-9.5-3.2l-8-2.4l-3.7-4.1l-5.6-7.8l-2.4-4.6l-4.5-1.7l-7.3-5.3l-17.9-12.9l-4.3-4.4l-0.4-1.2l1.5-1.2l4.8,1.5l3.5-0.5l4.5-3.2
		l0.4-1.7l1.9-5.8l-1.1-11.7l2.6-1.2l2.8-0.7l7.3-1.2l3.7-6.1l1.5-1.9l3.5-0.5L1967.2,1007.2L1967.2,1007.2z M1484.7,524.1
		l-24.9,7.8l-18.8,2.2l-16.4,7.5l-4.8,3.2l-13,12.6l-2.6,1.7l-7.1,1.5l-10.2,6.1l-11.2,9l-2.6,0.2l-3.2-1.5l-4.3,1l-7.3,3.9l-3.2,1
		l-3.2,0.5l-1.1-4.1l-1.1-2.4l-1.5,0.2l-2.6,1l-11,1.2l-25.1,9.5l-38.5,10.9l-20.5,13.1l-7.3,3.4l-7.8,1.2l-3.7,2.2l-6.9,5.3
		l-14.5,7.8l-6.7,5.3l-1.5,6.6l-1.7-0.5l-2.6-1.5l-3.5-1.5l-4.1,0.5l-3.7,2.2l-2.6,2.7l-8.6,14.1l-3.2,7.3l-1.5,8.3l1.3,1.2v2.2
		l-0.9,3.6l-1.9,1.7l-7.3,3.2l-1.5,1.5l-0.9,4.9l-2.6,1.7l-3,0.7l-3,1.5l-1.1,3.2v4.6l-0.6,1.2l-2.4,2.4l-1.9,5.6l-2.8,2.2l-6.7,3.2
		l-10.4,14.6l-3.2,2.2l-0.9,0.5l-2.2,1.7l-2.2,0.7l-3-0.2l-0.4-4.4l-1.3-3.9l-4.8-10l-1.1-3.2l-0.4-3.4l-1.5-4.1l-2.6-4.4l-3.9-4.9
		l-16-8.5l-14.7-4.4l-13.4,0.5l-11.7-1.2l-12.8-7l-8.6-10l-2.4-5.3l-4.3-6.6l-1.7-6.1l-3.5-8l-3.5-4.6l-4.5-2.7l-4.3-1.9l-12.8-0.2
		l-17.9-3.2l-13.6-5.3l-13.2-10L926,601.1l-19.5-15.5l-1.3-5.1l4.1-5.6l28.3-27.2l2.6-5.8v-6.1l-7.3-10.9l-4.3-5.1v-5.1l0.4-5.6
		l5-17.2l0.2-5.1l1.7-7l3.9-10l7.8-10.2l22.7-40.1l-2.2-6.6l-15.8-6.3L706.8,428l85.8-118l35.9-39.8l-7.1-123.3l22.9,1l5.6-0.7
		l5.2-2.4l41.3-27.2l5.2-8l19.9-61.9l3-6.3l43-60.7l27.5-38.8l15.8-22.3l13.6-19.2l3.9-3.2l52.3-30.1l63.1-36.7l32.9-18.9l16.2-6.8
		l22.5-3.6l223.3-35.7l27.9-4.4l27.9-4.6l195-31.1l1.3,3.4l-47.6,79.1l-30,85.2l-10.6,61.7l-16.4,58.5L1564.5,67l-22.7,37.9
		l-70,65.3l-13.4,18l-14,10.7l-30.7,14.3l-7.3,5.1l-4.1,3.9l-3.7,5.3l-3,8l0.2,4.6l1.9,4.4l1.5,7.3l-13.6,59.2l-0.4,7.5l2.8,3.9
		l2.4,2.9l3.9,2.4l1.9,5.3l1.1,7l-6.7,20.9l-3,5.8l-2.8,3.6l-1.5,7v5.1l-1.7,5.8l0.2,5.6l0.6,4.9l0.2,3.6l-1.7,4.4l-1.3,5.1l-1.5,8
		l1.7,7l3,4.6l5.4,1.9l5,0.5l7.3,2.4l1.7,1.9l1.1,3.9l-0.9,8.3l-1.9,3.2l-2.8,2.4l-3.2,6.6l-2.6,3.6l-2.2,3.6l-0.4,3.4l0.2,3.9
		l1.1,3.4l2.6,3.4l11,4.4l8.6,0.2l13.4-1.5l4.5-1.2l3.9-1.7l11.7-0.7l11.7,3.4l9.5,1.7l3.9,2.2l3.2,5.1l1.5,3.9l1.9,3.9l1.3,5.1
		l1.9,3.6l1.3,3.6l1.5,2.9l0.2,3.9L1484.7,524.1L1484.7,524.1z"/>
	<path id="YEM3498" class="st0" d="M368.5,430.6l0.2,1.7l-1.1,1.7l-1.5,1.2l-2.8,0.2l-1.3-1l0.6-3.2l-1.9-0.5l-2.2,1.9l-0.6,1.9v2.2
		l-0.6,1.5l-5.4-0.5l-1.1,1.9l-1.1-1.9l-1.3,1.9l-1.1,1.9l0.9,4.6l-0.4,1.9l-4.8,3.9l-2.4,2.7l-0.9,1.9l0.2,1.7l-0.4,2.2l0.2,1.9
		l1.3,2.7l0.6,4.4l1.1,1l1.1-0.2l0.9,2.7v3.9l-0.6,1.7l-1.5,1l-1.7,0.2l-0.6,1.2l0.2,2.9l-1.5,0.2h-8.2l-0.6-1l0.6-4.4L330,477
		l-6.1-4.6l-0.6-3.4l0.9-4.1l1.3-1.7l2.6-1l-0.2-2.2l-2.4-3.2l-3-1.9l-1.5-1.5l-0.9-2.4l0.2-1.7l6.9-2.2l1.1-1.5l2.2-0.5l1.3-1.9
		l0.6-1.7l1.7-0.2l-0.2-2.2l0.2-5.3l1.5-2.2l3.2-1.2l1.3-1.7l1.5-0.7h2.4l2.2-3.6l2.2-2.7l4.1-1.9l2.4-0.2l5.6,2.7l3.7,4.4l3,2.2
		L368.5,430.6L368.5,430.6z"/>
	<path id="YEM3499" class="st0" d="M247.3,557.4l2.8,4.6l1.3,6.1l9.1,1.5l0.6,2.2l7.3,2.4l0.2,3.6l1.9,7l4.1,6.3l11.5,14.3l3.5,6.3
		l1.9,5.3l2.8,4.4l1.5,3.6l-1.5,4.9l-5.2,7.8l-3,2.7l-3,3.4l-11,7.5l-2.6,2.2l-2.8,1l-4.5,0.7l-2.6-0.2l-3.9-1.7l-5.2,0.2l-3,1.5
		l-1.7,2.7l-6.1,5.8l-10.4,6.6l-3,0.2l-4.1,0.2l6.3-8.5l0.4-3.6V653l-0.6-2.4l-2.2-5.1l-0.6-3.2l-6.7-20.4l-0.6-3.9l0.6-3.4
		l-0.6-6.6l0.4-3.6l2.2-2.9l0.9-3.2l-2.4-15.1l2.8-8.7l3.2-5.3l3.2-3.2l5.2-6.1l1.3-2.9l1.9,0.2l5.4,2.4l2.6-0.5L247.3,557.4
		L247.3,557.4z"/>
	<path id="YEM3510" class="st0" d="M371.3,1013.3l12.1-21.1l7.8-5.1l15.8-6.6l36.1-6.8l31.8-9.7l14.7-1.2l-1.1,3.4l-0.6,4.1
		l-4.1,12.1l-0.4,1.9l0.9,8l-0.6,2.9l-3.2,1.2l-3.9-0.7l-3.9-1.9l-2.6-2.4l0.2-3.2l2.8-1.2l3.5,0.5l3.2-0.5l1.1-3.4l-0.6-0.2
		l-2.6-3.9l-0.6-1.7l0.4-1.5h-2.2v1.9l-1.5,2.7l-1.3,0.2l-2.8-1.2l-3.9,0.2l-1.7,0.7l-2.2,4.4l-2.8,2.4l-3.2,0.7l-2.4-2.9l-2.2,1.5
		l-0.9,1.7l0.9,5.1l2.4-1.7l5.4,0.7l0.6,0.7l-0.2,2.4l-1.1,2.2l-2.6,2.2l-2.8,1.5l-2.4-0.5l-5-2.2L444,998l-1.1-1.5l-0.4-1.7l-2.2-1
		l-4.3-0.5l-3.5,1.2l-6.5,4.9l-1.3-2.9l0.9-1.9l-1.1-2.9l-2.2-2.7L420,987l-7.1-2.9l-7.3-0.2l-6.5,1.5l-5.2,2.9l-9.3,8.7l-9.9,12.1
		l-1.5,3.6L371.3,1013.3L371.3,1013.3z"/>
	<path id="YEM3511" class="st0" d="M878.4,820.3l-27.5,9.5l-44.5,10.4l-15.1,11.7l-21.6,9.2l-3,0.5l-3.5-0.5l-6.1-2.2H753l-3.7,1.2
		l-7.6,3.6l-3.7,0.7h-35.9l-7.8-1.5l-3.7-2.4l-2.4-0.7l-1.7,1.5l-4.8,1.7l-14.9,2.7l-29.8,1.5l-3,1l-5.6,2.7l-2.6,0.5l-7.3-0.5
		l-3.2,0.5l-1.9,1.5l-24,6.1l-5.8,3.4l-16.9,19.4l-4.8,4.1l-2.6,2.7l-2.2,7.5l-8.2,11.9l-5.4,5.6l-6.5,3.4l-30,8.3l-6.9,4.1
		l-6.3,6.1l-2.4,3.4l-0.9,1.7l5.6-45.6l11.5-35.7l8.4-6.6l1.5-4.4l-0.2-2.4l-2.2-2.4l-2.6-1.7l-2.4-3.2l-0.6-5.8l0.4-8l4.8-8.3
		l9.7-12.4l1.7-2.7l-0.9-1.9l-3-1.5l-8.9-0.5l-2.6-1.5v-2.7l6.7-4.6l3.2-2.9l0.4-2.9v-3.4l-0.6-3.2l1.3-3.2l2.2-2.4l6.5-1.7l5-3.2
		l0.6-3.2l-0.6-4.1l0.6-6.3l1.3-3.2l6.5-1.9l1.9,1l24.2,2.7l5.4,1.9l2.6,5.6l6.3,3.6h3.5l3.7-0.5l4.8-1.2l5.4-2.7l7.1-4.9l29.8-24.8
		l6.5-6.6l2.8-9.5l4.8-7.5l2.6-17l15.8-1.5l7.8-2.9l6.7-3.6l5.2-4.4l15.3-6.3l5.4-3.2l5.2-0.5l4.1,5.6l2.4,7.5l6.1,12.4l1.1,5.6
		l3,4.9l20.3-3.9l13.8-6.8L785,705l13.2-1.9l12.5,1.7l11.2,4.6l11.7,2.9l24,1.5l6.3,4.6l2.4,8.5l-0.2,9l0.9,6.6l-2.2,5.1l-2.4,3.6
		l-1.7,4.9l9.1,21.6l5.4,19.4l0.2,7.8l1.3,5.1L878.4,820.3L878.4,820.3z"/>
	<polygon id="_x30_" class="st0" points="413,468 413,468 413,468 	"/>
	<polygon id="_x31_" class="st0" points="435.5,343.3 435.5,343.3 435.5,343.3 	"/>
	<polygon id="_x32_" class="st0" points="165.8,106.1 165.8,106.1 165.8,106.1 	"/>
</g>
</svg>
