<?xml version="1.0" encoding="utf-8"?>
<!-- Generator: Adobe Illustrator 24.0.1, SVG Export Plug-In . SVG Version: 6.00 Build 0)  -->
<svg version="1.1" id="Layer_1" xmlns="http://www.w3.org/2000/svg" xmlns:xlink="http://www.w3.org/1999/xlink" x="0px" y="0px"
	 viewBox="0 0 1000 579" style="enable-background:new 0 0 1000 579;" xml:space="preserve">
<style type="text/css">
	.st0{fill:#37517E;stroke:#E4EBF4;stroke-miterlimit:10;}
	.st1{fill:#F7F8F9;}
</style>
<g>
	<path id="YEM99" class="st0" d="M82.7,342l-0.4,0.6l-1.1-1.7l-0.1-0.6l1.3-1.3l0.6,0.7v1l0.2,1.2L82.7,342L82.7,342z M102,290.6
		v0.6l-0.6,0.6l-4.1-0.6l-1.4,0.2l-0.5-0.3l0.1-1.3l-0.3-1.2l0.3-0.4H96l2.7,1.6l0.1,0.2L102,290.6L102,290.6z"/>
	<path id="YEM150" class="st0" d="M264.7,159.2l-1.5,24.5l-5.4,3.1l-3.8-0.4l-4.1,0.1l-4.4,1.1l-3.6,1.5l-8.6,4.9l-1.2,1.3l-2.6,4.2
		l-0.9,0.9l-1.1,2.4l-0.6,0.6l-1,0.2l-1.2,1.5l-2.7,2l-1,0.4l-0.5,0.4l-1.6,0.7l-1.5,1.3l-0.8,1.3l-1.3,2.7l-0.8,3.9l-1,2.6
		l-4.6,1.5l-2.7-0.1l-3-0.6l-6.6-3.1l-4.6-1.3h-2.6l-1.7,0.6l-0.9,0.7l-1.9,1.1l-1.3,0.6l-8.4,2.3l-7.3-0.7l-4.9,0.4l-1.4-0.2
		l-1.1-0.7l-11-3.6l-1.3-0.9l-0.4-1.8l-0.6-1.2l-0.1-1l1-1.6l1.6-1.2l0.3-0.8l-0.1-0.9l-0.5-0.9l-0.6-0.6l-2.4-0.8l-0.7-0.6
		l-0.8-2.8l-1.4-3l-0.2-1.3l0.4-1.9l1-3l0.3-1.5v-1.6l-0.4-1.7l-0.5-1.3l-0.2-1.3l0.3-1.5l1.4-3l0.4-1.6l-0.1-1.7l0.4-1.5l1.4-1.2
		l1.7-0.8l1.5-0.4l1.5-0.8l0.1-1.5l-0.6-1.7l-1.3-1.1l-3.7-1.3l0.1-0.4l3.1-4.4l5.6-5.4l5.7-4l1.5-0.6l1.5-0.3l1.1,0.4l2.3,0.1
		l1,0.3l4.8,2.4l2.7,1.9l4.6,5.7l2.7,2.5l1.3,0.4h1.2l2.4-0.3l2.6,0.3l1.1-0.1l1.5-0.4l0.4,0.2v0.8l-0.1,1.5l0.4,1l1.2,0.4l1.5-0.2
		l1-1.2l0.9-1.5l1-1.3l1.4-0.8l1.1,0.1l2.5,1.5l1.7,0.3l1.2-0.6l1-1.3l0.9-1.9l1-0.8l1.4,0.2l2.7,0.9l1.2-0.1l5-1.3l6.3-0.7l4,0.1
		l4.5,1.1l1.9-0.1l4.1-1.8l1.4-0.4L264.7,159.2L264.7,159.2z"/>
	<path id="YEM151" class="st0" d="M115.6,446.4l-0.1-1.1l0.5-1.5l1.7-3.3l2.7-2.3l1.4-0.6l0.8,0.7l-0.2,1.5l-1.9,2.4l-0.5,1.6
		l-0.6,0.7L115.6,446.4L115.6,446.4z M122.1,426.5l-0.5,0.4h-1.8l0.9-2.2l-1.4-0.6l-1.6-1l-1.4-1.3l-0.6-1.9l0.6-1.2l1.3-1.3l1.5-1
		l1-0.4l0.5-0.6l1.8,2.6l0.4,1v0.8l-0.9,2.8l-0.1,2.4L122.1,426.5z M108.6,315.3l0.7,0.2l0.8-0.3l0.9-0.6l0.6,0.1v0.9l-0.7,2.9
		l-0.1,1l0.1,0.6l-0.1,0.6l0.1,0.8l-1.3,2.2l-0.8,0.8l-0.9-0.1L107,324l-0.7-1.3V321l0.6-1.8l0.2-3.9l0.7-1.3l1.5-1.5l0.6-1.2
		l1.5-0.8l0.5,0.2l0.3,0.7l-1.7,1.2l-0.2,0.6l0.3,0.4l-0.2,0.4l-0.6,0.6l-1,0.6L108.6,315.3L108.6,315.3z M156.4,306.3l0.1,3.2
		l0.3,0.9l0.1,1.6l0.3,1.3l0.1,2.2l-0.2,2.5l0.3,1.7l0.1,2.1l1.8,3l1.5,1.2l1.6,1.6l2.7,0.8l0.6,1.3l0.7,2.1l1.3,2.5l0.7,2.3l1,1.6
		l2,2.3l1.6,1l2.2,2.3l2,1.3l1.8,0.4h1.2l1.3-0.2l1.5,1.6v0.8l-0.4,0.4l-1,1.8l-0.9,0.7l-1,0.2l-2-0.9l-0.7-0.1l-0.5,1.1l-1.9,2.3
		l-1.2,1.2l-1.2,2l-1,3.3l0.9,5.7l-0.3,1.2L171,368l-0.1,1.3l0.2,2.5l-0.2,1.3l0.2,1.5l2.5,7.6l0.2,1.2l0.8,1.9l0.2,0.9v2l-0.1,1.3
		l-2.4,3.2l-1.3,0.1l-0.4,1l2.2,10.4v2.5l0.9,2.5l1.1,1.1l1.5,1.1l2,0.7l3.6,2.5l1.3,0.6l1-0.1l0.8-0.9l1-0.6l0.8-0.7l1-0.4l0.1,2.1
		l0.3,1.3L188,418l-2.5,4.5l-1,0.7l-0.6-0.4l-1-0.4l-1.1,0.6l-0.2,1l0.9,1.3l0.6,0.9l0.1,1.2l-0.7-0.2l-1.7,0.6l-5.4,1l-1.6,0.6
		l-2.4,1.2l-4.9,7l-0.6,1.5l-0.7,1l-1.5,0.3l-2.3,0.7l-1.9,0.9l-4.6,4.2l-0.2,0.1l0.1-1.6l-0.2-2.6l-2.2-4.7l-0.3-0.7l-0.6-6.3
		l-0.4-0.6l-4.3-5.2l-1.5-4.1l-1.4-3.4l-1.5-2.4l-0.7-5.7l-0.6-2.6l-0.6-2.3l-1.2-3.9l-1.9-7l-0.5-1.5l-0.3-2.4l-0.8-2.2l-0.2-2.4
		l-0.1-0.7l-0.4-0.4l-1.1-1l-0.3-0.4l0.1-0.9l0.3-0.4l0.5,0.2l0.6,0.6l0.6,1.5l0.8,3.4l1,1l0.1-2.3l-0.1-1l-0.4-0.9l1-3.1l-0.7-2.5
		l-1.2-2.3l-0.7-2.5l0.1-0.6l0.6-0.8l0.1-0.9l-0.3-0.4l-0.3-0.9l-0.9-0.6l-1-1.5l-0.5-2.5l-0.1-0.8l-0.6-2.7l-3.1-4.4l-0.7-2.8
		l-0.1-1.5l0.1-0.8l0.5,0.1l0.3,0.6l-0.3,1.1v0.8l0.5,1.5l0.8,1.5l1,1.3l1.2,0.9l0.1-1.1l0.4-2.5v-1.5l-0.7-2.7l-0.2-2.5l-0.4-0.9
		l-0.5-0.8l-1.7-1.8l-0.7-1l-0.4-1.3l-0.2-1.7l0.3-4.1l-0.3-1.3l-0.8-1.3l-2.4-1.2l-2.1-2l-1.3-1l-1.5-0.8l-1.4-0.6l-1.5-0.4h-1.3
		l-0.9,0.6l-0.4,1.5l-0.7,0.3l-1.5-0.6l-1.3-1.3l-0.1-1.7l-0.4-1l0.7-0.1l2.2,0.6l1.1-0.2l0.6-0.6l0.4-0.8l0.2-1l-0.1-0.8l-0.6-1.1
		l-0.1-1l1.7-3.6l0.5-0.8l0.4,1l-0.2,1.2l-0.4,1.2l-0.6,0.8l1.2,0.6l1,0.6l2.7,2.5l0.3,0.6l0.1,1l-0.1,1.5l0.1,0.4l0.9,0.4v-1
		l-0.5-0.6l1-1.2l0.4-1.7l-0.1-5.8l-0.6-2.6l-1-2.2l-0.2-1.1V312l0.2-1.7l-0.2-1.7l-0.2-1l-0.9-1.8l-2.7-4.1l0.1-0.6l0.7-1l-1.2-1.6
		l-0.4-1.1l-0.1-1.3l0.6-2.7l-0.1-1.1l-1.4-0.6l0.5-1.2l0.6-0.6l0.7-0.6l0.8-0.8l0.6-0.7l0.2-0.7l0.1-2l0.4-2.1l0.8-1.5l1.2-1.1
		l1.1-0.8l1.2-1.1l0.6-1.3l0.3-1.6l10.6,7.2l4.4-0.7l2.8,0.3l1.4-0.8l1-0.8l2.5-0.6l6.7-0.6l1.7,1.5l0.8,2.1l-0.1,2.5l-0.4,1.9
		l-0.4,1.3l-0.6,1.1v1.3l0.8,2.5l-0.5,4.4l-0.3,0.8l-0.1,1L156.4,306.3L156.4,306.3z"/>
	<path id="YEM152" class="st0" d="M200.1,306.6l-0.8,3.4l-0.3,3.3l-1.1,1.3l-2.6,2l-1.4,0.7l-4.6,3.7l-2.4,2.8l-4.4,1l-0.7,0.8
		l-4,2.8l-1.1,1.6l-0.5,2l0.2,3.7l-0.6,1.8l-0.8,0.8l-1.7,3.1l-1.6-1l-2-2.3l-1-1.6l-0.7-2.3l-1.3-2.5l-0.7-2.1l-0.6-1.3l-2.7-0.8
		l-1.6-1.6l-1.5-1.2l-1.8-3l-0.1-2.1l-0.3-1.7l0.2-2.5l-0.1-2.1L157,312l-0.1-1.6l-0.3-0.9l-0.1-3.2l3.6-1.5l11.5-1.3l1.4,0.2
		l1.4-0.1l5.9,0.7l1.8,0.6l1.5-0.2l1.2-0.4l3.4,0.1l2.9-1.3l1.2-1l1.2,0.2l0.9,0.4l0.6,0.9l1.2,0.8L200.1,306.6L200.1,306.6z"/>
	<path id="YEM153" class="st0" d="M257.9,363.6l-4.9,6.7l-1.6,7.5l-1.2,10.7l-1.6,3.6l-2.2,2.4l-2.4,1.3l-1.5,4l-1.3,0.6l-1.9-0.9
		l-3.7-1.5l-3-2.2l-1.5-0.7l-1.9-0.7l-1.5-1l-3.2-1l-1.5-0.7l-1.2-1.5l-2.8-2.6l-1-0.4l-0.8,0.3l-0.7,1.3l-0.1,1l-0.5,1.3l-0.7,1.3
		l-3,1.3l-1.7-0.4l-0.5-1.1l-0.9-3.9l-1-0.2l-1.2,0.6l-1.5,1.9l-1.8,1.6l-1.5,2.1h-1.5l-1,0.6l-0.5,0.7v1.3l0.6,1.2l0.1,1.7
		l-0.1,1.7l-1.7,3.6l-1.5,0.9l-1.8,0.4l-1-0.6l-0.2-1.3l0.2-1.6l-0.3-0.7l-0.6,0.1l-0.5,1.2l-1,1.7l-1,3.2l-0.9,1.5l-1,2.5l-1,0.4
		l-0.8,0.7l-1,0.6l-0.8,0.9l-1,0.1l-1.3-0.6l-3.6-2.5l-2-0.7l-1.5-1.1l-1.1-1.1l-0.9-2.5v-2.5l-2.2-10.4l0.4-1l1.3-0.1l1.5-0.1
		l1.1-0.1l3.9-2.5l2.3-2.2l0.6-1l1.1-0.6l1.9-0.1l1.5,0.6l1,0.1l1.7-0.3l1-0.4l1-0.8l4.1-2.8l1.1-1.3l1.1-1l1.9-2.9l0.6-1.8
		l-0.6-1.3l-1-1.6l-0.7-2l-1.3-2.4l-4.3-5.4l-1.5-2.4l-0.7-2.6l-0.1-1.3l1-1l3.1,0.4l2.5-0.3l1.5-0.4l2.3-2.4l1.2-0.8l1.3-0.9l1.5-1
		l3.6-2.9l2.3-0.9l2.1-0.4l1.8-0.1l1.1,0.9l1.8,0.7l1.3,1.6l1.5,1.5l5,1.2l1.9-0.7l0.9-1.3l0.3-1.5l0.6-1.2l1.6,0.3l1.1,1.6l1.7,1.3
		l1.8,0.2l2.7-1.2l1.4-0.8l1.5-2l1.1-1.9l1.5-1.2l1.4-0.2l1.7,0.2l1.6-0.2l1.7,0.2l1.5,1.1l1.9,3.1l1,5.1l1.2,2.8l2.6,4.1l0.6,1.7
		L257.9,363.6L257.9,363.6z"/>
	<path id="YEM154" class="st0" d="M175.1,222.3l-0.3,13.2l1,10.5l-0.1,1.3l-0.1,1.6l0.1,1.3l0.1,1.1v1.2l0.4,0.8l1.9,1.5l0.7,1.3
		l-0.1,2.3l0.2,1.9l0.1,1.7l2.6,5.9l-0.1,1.1l-0.6,0.8l-1.5,1.3l-0.6,1.6l0.8,0.8l0.7-0.2l2.5-3.3l0.6-0.3l0.6,0.4l0.8,0.8l1.6,3
		l0.6,2.9l0.4,3l-0.2,1.5l-0.2,2.7l0.4,1.9l0.1,1.5l1.1,1.1l0.4,0.7l-0.3,2.7l-0.5,2.1l-0.6,0.9l-1,0.3l-1.2-0.4l-1,0.1l-0.8,0.6
		l-0.6,0.6l-0.3,0.8l-0.2,1v1l0.9,1.8l-0.1,1.1l-1.3,2.8l-1.8-0.6l-5.9-0.7l-1.4,0.1l-1.4-0.2l-11.5,1.3l-3.6,1.5l-1-6.6l0.1-1
		l0.3-0.8l0.5-4.4l-0.8-2.5v-1.3l0.6-1.1l0.4-1.3l0.4-1.9l0.1-2.5l-0.8-2.1l-1.7-1.5l-6.7,0.6l-2.5,0.6l-1,0.8l-1.4,0.8l-2.8-0.3
		l-4.4,0.7l-10.6-7.2l0.6-10.6l-0.2-3.4l-1.7-10.8l-0.2-5.7l-0.5-2.1v-1l-0.8-1.3l3.1-1.3l2.3-1.1l1.7-1.3l0.6-1.3l-0.2-2.4l0.2-1
		l0.7-0.4l2.5-0.6l1-0.4l2.8-1.9l1.4-1.2l0.8-1.3l1.7-5l0.3-1.5l0.1-1.6l0.3-1.1l0.8-0.4l1.6,0.4l2.6,0.9l1.1-0.3l0.4-1.5l1.3,0.9
		l11,3.6l1.1,0.7l1.4,0.2l4.9-0.4L175.1,222.3L175.1,222.3z"/>
	<path id="YEM155" class="st0" d="M213.5,220.6l3.4,2.5l1,0.6l3.7,3.2l1,1.2l0.4,1.3l-0.3,1.1l-0.6,0.9v1.3l1,2.2l0.6,2.8l0.6,2
		l0.9,1.8l0.2,1.7l-0.1,1.5l-0.3,1.3l0.3,1l0.4,0.7l0.1,1.1l-1.5,5l0.6,2l0.1,2.4l0.3,2.1l2.1,4.2l1.6,2.1l-3.6,0.3l-3.8,1.6
		l-3.8,2.3l-0.6,1.7l-0.6,2l0.3,4.2l0.4,2.1l0.5,1.5l-0.1,1.6l-0.3,1.5l-1.4,2.2l-1.9,1.5l-1.2,2l-0.1,3.4l-0.7,3.2l-4,3.6l-1.9,1
		l-2.1,0.4l-2.5-0.3l-0.9,1.1l0.1,1.2l-0.7,1.9l-4-2.2l-1.2-0.8l-0.6-0.9l-0.9-0.4l-1.2-0.2l-1.2,1l-2.9,1.3l-3.4-0.1l-1.2,0.4
		l-1.5,0.2l1.3-2.8l0.1-1.1l-0.9-1.8v-1l0.2-1l0.3-0.8l0.6-0.6l0.8-0.6l1-0.1l1.2,0.4l1-0.3l0.6-0.9l0.5-2.1l0.3-2.7l-0.4-0.7
		l-1.1-1.1l-0.1-1.5l-0.4-1.9l0.2-2.7l0.2-1.5l-0.4-3l-0.6-2.9l-1.6-3l-0.8-0.8l-0.6-0.4l-0.6,0.3l-2.5,3.3l-0.7,0.2l-0.8-0.8
		l0.6-1.6l1.5-1.3l0.6-0.8l0.1-1.1L179,262l-0.1-1.7l-0.2-1.9l0.1-2.3l-0.7-1.3l-1.9-1.5l-0.4-0.8v-1.2l-0.1-1.1l-0.1-1.3l0.1-1.6
		l0.1-1.3l-1-10.5l0.3-13.2l8.4-2.3l1.3-0.6l1.9-1.1l0.9-0.7l1.7-0.6h2.6l4.6,1.3l6.6,3.1l3,0.6l2.7,0.1L213.5,220.6L213.5,220.6z"
		/>
	<path id="YEM156" class="st0" d="M242.4,399.9l2.2,1.5l-0.1,4.3l0.6,1.1l0.7,0.3l2.3,1.5l-0.7,2.4l-1,0.9l-1.3-0.1l-1.4,0.2
		l-0.6,0.6l-0.1,1l-0.6,1.6l-1,1.2l-0.5,1.6l0.4,1.5l1.2,1.3l-0.6,1.3l-1.2,0.4h-1.3l-1.5,0.4l-1.7,0.7l-1.6,1.3l-1,1.9l-0.1,1.3
		l-0.5,2.2l-0.6,0.4l-0.7-0.1l-0.8,0.6l-1,3.1l-1,0.7l-0.5,1.3l0.1,0.4l-0.4,1.9l-0.6,1.1l-0.9,1.2l-2.4,1.9l-1.6,0.2l-1.4-0.6
		l-1-0.6l-1.3-0.6l-2.4-0.1l-4.9-1.7l-1.6-1.1l-3.3-0.4l-7.5-2.5l-0.5-1l0.3-0.9v-1.5l-1-0.4l-3,1.3l-0.6-0.8l0.1-1.3l-0.4-1.1
		l-3.1,0.4l-1.4,0.7l-1.6-0.6l-1.5,0.8l-3.9-0.2l-1.8-3.8l1.7-0.6l0.7,0.2l-0.1-1.2l-0.6-0.9l-0.9-1.3l0.2-1l1.1-0.6l1,0.4l0.6,0.4
		l1-0.7l2.5-4.5l0.4-2.1l-0.3-1.3l-0.1-2.1l1-2.5l0.9-1.5l1-3.2l1-1.7l0.5-1.2l0.6-0.1l0.3,0.7l-0.2,1.6l0.2,1.3l1,0.6l1.8-0.4
		l1.5-0.9l1.7-3.6l0.1-1.7l-0.1-1.7l-0.6-1.2v-1.3l0.5-0.7l1-0.6h1.5l1.5-2.1l1.8-1.6l1.5-1.9l1.2-0.6l1,0.2l0.9,3.9l0.5,1.1
		l1.7,0.4l3-1.3l0.7-1.3l0.5-1.3l0.1-1l0.7-1.3l0.8-0.3l1,0.4l2.8,2.6l1.2,1.5l1.5,0.7l3.2,1l1.5,1l1.9,0.7l1.5,0.7l3,2.2l3.7,1.5
		l1.9,0.9L242.4,399.9L242.4,399.9z"/>
	<path id="YEM157" class="st0" d="M293,428.8l-2.4,0.7l-0.5,1.2l-0.2,2.4l0.2,1.5l-0.2,1.2L288,437l-2.4,0.6l-0.8,0.9l-0.5,1.2
		l0.2,1.2v1.3l-0.1,1.1l-1.2,1.1l-2.5,1.7v1l1,0.6l3.3,0.2l1.1,0.6l0.3,0.7l-0.6,1l-3.6,4.6l-1.8,3.1l-0.1,3l0.2,2.2l0.9,1.2l1,0.6
		l0.8,0.9l0.1,0.9l-0.6,1.6l-3.1,2.5l-4.3,13.4l-2.1,17.1l-0.4,0.9l-5.5,0.4l-11.9,3.6l-13.5,2.5l-5.9,2.5l-2.9,1.9l-4.5,7.9
		l-0.1-0.8l-0.3-0.1l-1.5,0.6l-1.9,0.6l-4.2,2.3l-1.5,0.2l-1.3-0.2h-1.3l-2.4,1.5h-1.5l-1.2-0.4l-0.8-1.1l0.9,0.1l1.6,0.4l0.9,0.1
		l0.6-0.6v-1l-0.5-0.6l-0.7,0.6l-1.7-0.3l-2.1,1l-3.9,2.4l-1.9,0.6h-1l-1.7-0.6l-1.9,1l-1,0.1l-1.3-0.9l-1.1-2.6l-1-0.6l-1.3-0.2
		l-1.1-0.6l-1.8-1.3l-1-0.6l-1.2-0.4l-1.4-0.4l-1.5-0.1l-0.9-0.4l-2.5-1.6l-1.3-0.6h-2.4l-0.6-0.3l-1-0.8l-1.2-0.6l-0.8,0.4
		l-3.7,4.2l2.4-5.4l5-8.7l3.7-4.2l2.3-3.9l0.1-1.7l-0.2-1.2l-0.6-0.9v-1.3l0.9-0.7l2.4-0.4l1-0.6l1.1-0.6l1-1.1l1.3-0.6l1.3-0.4
		l1.3,0.2l1.2,0.6l1.2,0.4l2.4,1.6l1.2,1.2l1.8,0.9l1.2,0.1l0.3-1.2l-0.2-3.7l0.5-0.4l2.5,1.7l1.5,0.3l0.7-0.7l0.3-1.6l0.6-1.5
		l0.8-0.3l1.5-0.2l0.7-0.6l-0.1-2.3l1.5-1.3l0.8-1.6l2.7,0.6l2.7-0.1l3.4-0.9l1.5-1.3l0.2-1.7l-0.3-1.5l0.1-1.9l-0.1-1.3l-0.6-1.5
		l0.4-1l1.5-0.4l4.2-0.1l0.6-0.8l-0.1-1.3l-0.7-1l-1.9-0.3l-0.9-0.6l-1.1-0.6l-0.5-1.1l0.5-1.3l1-0.7l1.1-0.6l1.9-0.4l0.5-0.4
		l-0.1-1l0.2-0.6l0.8-0.3h0.9l1.1-0.6l0.6-0.8l0.6-0.9l0.9-0.4l0.6-1.6l2.6,1.1l0.9,1.2l2.7,2.3l1.8-0.4l2.4-1.8l4.5-2.1l1-1.5
		l1-0.7l2.6,1.1l1.5-0.2l0.4-1.5l-0.2-1.8l0.1-5.5l1.6-0.4l2.1-0.2l5.4-2.5l2.9-2.2l2.7-1.5l2.4-2.5l4-10.2l3.8,0.1l1,0.2l2-1.2
		l1.5-1.5l3.4-2.5l1.5-0.3l1,0.6l0.8,3.8L293,428.8L293,428.8z"/>
	<path id="YEM158" class="st0" d="M165.2,522.6l-0.1,1l-0.8,0.6l-0.4-0.2l-1.1-1.3l-0.8,0.2l-0.4-0.2l-0.1-1l1-0.6l1.5-0.1l0.9,0.6
		C164.8,521.5,165.2,522.6,165.2,522.6z M227.8,439l1.2,2.1l0.1,1.7l-0.2,1.8l-0.6,1.7l-0.1,1.5l1,1.2l1.4,0.4l1.5-0.4l1.5,0.1
		l2,1.2l0.3,0.9l0.1,1.5l-0.6,1.6l-0.9,0.4l-0.6,0.9l-0.6,0.8l-1.1,0.6h-0.9l-0.8,0.3l-0.2,0.6l0.1,1l-0.5,0.4l-1.9,0.4l-1.1,0.6
		l-1,0.7l-0.5,1.3l0.5,1.1l1.1,0.6l0.9,0.6l1.9,0.3l0.7,1l0.1,1.3l-0.6,0.8l-4.2,0.1l-1.5,0.4l-0.4,1l0.6,1.5l0.1,1.3l-0.1,1.9
		l0.3,1.5l-0.2,1.7l-1.5,1.3l-3.4,0.9l-2.7,0.1l-2.7-0.6l-0.8,1.6l-1.5,1.3l0.1,2.3l-0.7,0.6l-1.5,0.2l-0.8,0.3l-0.6,1.5l-0.3,1.6
		l-0.7,0.7l-1.5-0.3l-2.5-1.7l-0.5,0.4l0.2,3.7l-0.3,1.2l-1.2-0.1l-1.8-0.9l-1.2-1.2l-2.4-1.6l-1.2-0.4l-1.2-0.6l-1.3-0.2l-1.3,0.4
		l-1.3,0.6l-1,1.1l-1.1,0.6l-1,0.6l-2.4,0.4l-0.9,0.7v1.3l0.6,0.9l0.2,1.2l-0.1,1.7l-2.3,3.9l-3.7,4.2l-5,8.7l-2.4,5.4l-0.3,0.4
		l-0.9,0.6l-1.4,0.2l-1.5-0.3l-0.3-0.7l1.2-6l0.1-2.9l-0.6-2.6l-1.3-2.4l-1.9-2.1l-0.5-1.7l-0.9-1.1l-0.2-0.6l-0.1-1.5l-0.2-1.5
		l-0.4-1.3l-0.6-1.2l-2.3-2.9l-0.5-1.5l-0.8-1.7l-0.6-1.9L156,486l-3.9-5.5l-1.5-5.4l0.8-2.4l0.6-2.5l0.4-13.4l1.4-2.4l0.3-1.3
		l0.2-0.4l0.7-0.4l-0.9-2.4l0.1-3.6l0.2-0.1l4.6-4.2l1.9-0.9l2.3-0.7l1.5-0.3l0.7-1l0.6-1.5l4.9-7.3l2.4-1.2l1.6-0.6l5.4-1l1.8,3.8
		l3.9,0.2l1.5-0.8l1.6,0.6l1.4-0.7l3.1-0.4l0.4,1.1l-0.1,1.3l0.6,0.8l3-1.3l1,0.4v1.5l-0.3,0.9l0.5,1l7.5,2.5l3.3,0.4l1.6,1.1
		l4.9,1.7l2.4,0.1l1.3,0.6l1,0.6l1.4,0.6l1.6-0.2l2.4-1.9l0.9-1.2L227.8,439L227.8,439z"/>
	<path id="YEM332" class="st0" d="M645.7,337.7l-0.1-0.4l-0.1-1.5l-0.6-1.1l-0.5-1.3l-0.7-1.3l-0.5-1.9l-0.7-1.5l-0.6-1.5l-1.2-1.9
		l-1.5-0.8l-3.6-0.6l-4.4-1.3l-4.4,0.3l-1.5,0.6l-1.7,0.4l-5,0.6l-3.2-0.1l-4.1-1.6l-1-1.3l-0.4-1.3l-0.1-1.5l0.1-1.3l0.8-1.3l1-1.3
		l1.2-2.5l1-0.9l0.7-1.2l0.3-3.1l-0.4-1.5l-0.6-0.7l-2.7-0.9l-1.9-0.2l-2-0.7l-1.1-1.7l-0.6-2.6l0.6-3l0.5-1.9l0.6-1.6l-0.1-1.3
		l-0.2-1.8l-0.1-2.1l0.6-2.2v-1.9l0.6-2.6l1-1.3l1.1-2.2l2.5-7.8l-0.4-2.6l-0.7-2l-1.5-0.9l-0.9-1.1l-1-1.5l0.1-2.8l5.1-22.2
		l-0.6-2.7l-0.7-1.6l-0.1-1.7l1.1-3l1.4-2l1.5-1.5l2.7-1.9l11.5-5.4l5.2-4l5-6.7l26.2-24.5l8.5-14.2l8-20.2l6.1-21.9l4-23.1
		L705,69.2l17.8-29.7L733.1,67l2.8,7.5l5.6,14.9l2.7,7.5l8.4,22.4l8.4,22.3l2.7,7.5l7.7,20.4l-0.6,0.1l1,0.7l2.4,0.2l1.1,0.4l0.7,1
		l10.6,27.3l8.2,20.7l-1.4,0.8l-3.1,0.9l-2.4-0.6l-0.7,0.7l-1.5,0.2l-0.7,0.4l-1.2,1.5l-0.7,0.6l-1.6,0.6l-2.3,1.5l-2.7,0.6
		l-1.4,0.6l-2.4,1.6l-1,0.6l-9.1,2.6l-4.2,2.3l-7.4,5.8l-6.6,6.1l-1.7,2.1l-0.8,1.5l-1.2,2.6l-2.1,2.8l-0.5,0.9l-0.3,0.9l0.1,1.7
		l0.3,0.9l-0.5,1.5l-1.5,1.9l-0.6,3.1l-1.6,2.1l-0.2,1.3l0.5,1.5l0.9,1.7l0.6,1.8l-0.7,3.1l1,1.2l2.1,1.2l0.1,1.2l-0.6,5.5l0.3,3.3
		l0.6,3.3l0.7,0.8l0.1,0.9l-0.3,0.7l-0.1,1l-0.5,1l-0.6,0.2l-1.4,0.2l-10,3.1l-1.4,1.5l-0.6,0.2l-1.6,0.3l-5.2,2.3l-2.5,1.8l0.1,1.7
		l-0.5,0.4l0.1,0.9L715,311l-1.2-0.7l-0.6-0.6l-0.6-0.2l-1.3,1l-3.3,0.8l-5.2,3.2l-0.8,0.9l-0.3,1.1l0.4,1.5l0.6,0.8v0.6l-1.4,0.6
		l-7,0.7l-1.2,0.4l-1.1,0.7l-1,0.7l-1.5,2.1l-1.3,0.1l-0.6,0.2l-0.1,0.6h-0.7l-3.3,1.6l-0.9,0.6l-1.7-0.6L679,328l-1.7,1.2l-1.3,0.6
		l-13,4l-14.2,3L645.7,337.7L645.7,337.7z"/>
	<path id="YEM333" class="st0" d="M303.6,368.7h7.4l1.5,0.8l1.1,1.1l-0.3,1.5l-0.8,1.5l-0.5,1.5l-0.1,1.8l1.2,1.2l2.8,0.7l1.5,1.3
		l3.7,11.2l1.5,2.5l2.3,1.7l3,0.6l2.7,1.3l1.3,1l0.1,0.9v0.8l0.2,0.9l0.1,1l0.6,1.3l0.2,1.3l1.5,1.5l-1,6.4l-1.8,2.8l-1,3.6
		l-2.4,2.5l-11.2,9.3l-2.7,1.8l-2,1l-1.8,0.4l-1.4,0.2H308l-2.4-1.3l-1-2.1l-2-0.7l-9.1-1l-0.7-0.4l0.4-5.8l-0.8-3.8l-1-0.6
		l-1.5,0.3l-3.4,2.5l-1.5,1.5l-2,1.2l-1-0.2l-3.8-0.1l-0.1-2l-0.3-1.8l-1.7-2.3l-4.9-5.2l-1.8-2.5l-1.1-2.3l-1.5-2.1l-2.1-0.9
		l-2.7-0.1l-1.7-0.3l-1.5,0.6l-1,0.2l-0.9,0.8l-1.1,0.4H254l-1.9,0.4l-1.3,0.9l-2.8,1.2l-2.3-1.5l-0.7-0.3l-0.6-1.1l0.1-4.3
		l-2.2-1.5l1.5-4l2.4-1.3l2.2-2.4l1.6-3.6l1.2-10.7l1.6-7.5l4.9-6.7l3.5-0.6l2.7-1.3l2.7-2.6l3.5,0.8l1.8,1.1l1.3,1.6l0.3,2v2.3
		l0.6,3.9l0.6,2.5l0.1,2.5l0.6,1.7l0.1,1.6l0.6,1.6l0.8,1.5l1.3,0.8h2.1l2.5-2.1l0.7-1l1.1-0.4l2.7,0.7l0.5-0.8l-0.3-0.8l0.6-0.7
		l1.2-0.2l1.9-0.7l2.2-1.2l2.3-0.2l1.7,0.6l1.5,0.3l1-0.4V375l-1.1-2.4l0.1-1.1l0.6-0.8l0.6,0.2l0.8,1.3l0.6,0.4l1-0.6l0.5-0.6
		L303.6,368.7L303.6,368.7z"/>
	<path id="YEM334" class="st0" d="M278.3,423.6l-4,10.2l-2.4,2.5l-2.7,1.5l-2.9,2.2l-5.4,2.5l-2.1,0.2l-1.6,0.4l-0.1,5.5l0.2,1.8
		l-0.4,1.5l-1.5,0.2l-2.6-1.1l-1,0.7l-1,1.5l-4.5,2.1l-2.4,1.8l-1.8,0.4l-2.7-2.3l-0.9-1.2L236,453l-0.1-1.5l-0.3-0.9l-2-1.2
		l-1.5-0.1l-1.5,0.4l-1.4-0.4l-1-1.2l0.1-1.5l0.6-1.7l0.2-1.8l-0.1-1.7l-1.2-2.1l0.4-1.9l-0.1-0.4l0.5-1.3l1-0.7l1-3.1l0.8-0.6
		l0.7,0.1l0.6-0.4l0.5-2.2l0.1-1.3l1-1.9l1.6-1.3l1.7-0.7l1.5-0.4h1.3l1.2-0.4l0.6-1.3l-1.2-1.3l-0.4-1.5l0.5-1.6l1-1.2l0.6-1.6
		l0.1-1l0.6-0.6l1.4-0.2l1.3,0.1l1-0.9l0.7-2.4l2.8-1.2l1.3-0.9l1.9-0.4h1.8l1.1-0.4l0.9-0.8l1-0.2l1.5-0.6l1.7,0.3l2.7,0.1l2.1,0.9
		l1.5,2.1l1.1,2.3l1.8,2.5l4.9,5.2l1.7,2.3l0.3,1.8L278.3,423.6L278.3,423.6z"/>
	<path id="YEM335" class="st0" d="M397,196.3l2.7,46.2l-13.5,14.9l-54.7,11.5l-19.7,7.8l-8.4,8.2l-7.5,0.7l-13.8-2.5l-15.8-9.4
		l-22-5.8l-4.3-3l-5.6-0.4l-1.3,0.6l-0.6,0.6l-3.6,0.9l-1.6-2.1l-2.1-4.2l-0.3-2.1l-0.1-2.4l-0.6-2l1.5-5l-0.1-1.1l-0.4-0.7l-0.3-1
		l0.3-1.3l0.1-1.5l-0.2-1.7l-0.9-1.8l-0.6-2l-0.6-2.8l-1-2.2v-1.3l0.6-0.9l0.3-1.1l-0.4-1.3l-1-1.2l-3.7-3.2l-1-0.6l-3.4-2.5l1-2.6
		l0.8-3.9l1.3-2.7l0.8-1.3l1.5-1.3l1.6-0.7l0.5-0.4l1-0.4l2.7-2l1.2-1.5l1-0.2l0.6-0.6l1.1-2.4l0.9-0.9l2.6-4.2l1.2-1.3l8.6-4.9
		l3.6-1.5l4.4-1.1l4.1-0.1l3.8,0.4l5.4-3.1l1.5-24.5l12.6,0.1l3.7,0.9l10.6,7l3,1.1l58.3,6.7l25.4-3.9l2.4,1.5l9.1,14.3l5.5,8.7
		l0.9,0.6L397,196.3L397,196.3z"/>
	<path id="YEM336" class="st0" d="M507.2,417.6l-7-0.2l-1.1,0.4l-2.9,2.8l-0.6,0.3l-1,0.2l-0.6,0.6l-1.2-1.6l-2.3-0.4h-5l0.5,1
		l-2.7,0.1l-7.5,2.5l0.3-1.8l-1-1.2l-1.5-0.8l-1-0.8l-0.4,0.6l-1.8-0.9l-5.8-1.6l-1,0.6l-3.5,1.2l-1.1,0.2l-0.9,0.7l-3.3,4.5l-3,1.8
		l-10,3.8l-1.4,1.1l-5.4,6.4l-8.3,8.4L424,447l-4.8,1.7l-0.6-3.9l-0.5-1.9l-0.1-2.9l-2-7.3l-3.4-8.1l0.6-1.8l0.9-1.3l0.8-1.9
		l-0.3-2.5l0.1-3.4l-0.9-3.2l-2.4-1.7l-9-0.6l-4.4-1.1l-4.2-1.7l-4.7-0.6l-4.9,0.7l-6.6,2l-5.2,2.5l-7.6,1.5l-1.1-1.8l-0.4-2.1
		l-2.3-4.6l-0.9-2.8l-1.5-2.1l-1.9,0.2l-2,1.2l-5.7,2.4l-1.9,1.6l-2.5,1.3l-2.9,1.1l-5.9,0.6l-1.5-1.5l-0.2-1.3l-0.6-1.3l-0.1-1
		l-0.2-0.9v-0.8l-0.1-0.9l-1.3-1l-2.7-1.3l-3-0.6l-2.3-1.7l-1.5-2.5l-3.7-11.2l-1.5-1.3l-2.8-0.7l-1.2-1.2l0.1-1.8l0.5-1.5l0.8-1.5
		l0.3-1.5l-1.1-1.1l-1.5-0.8h-7.4l-1.4-1l-0.8-1l-0.6-2.2l0.1-4.1l0.2-2.3l0.5-2l-0.1-1.6l0.9-0.6l0.2-0.9v-1.3l0.5-3l1.5-3.2
		l0.5-1.6l1.4-3.3l9.1-8.7l38.3-30.2l92-8l5.9,2.4l0.8,2.5l-8.5,15l-2.9,3.8l-1.5,3.7l-0.6,2.6l-0.1,1.9l-1.9,6.4l-0.1,2.1v1.9
		l1.6,1.9l2.7,4.1v2.3l-1,2.2l-10.6,10.2l-1.5,2.1l0.5,1.9l7.3,5.8l4.6,5.1l4.9,3.7l5.1,2l6.7,1.2l4.8,0.1l1.6,0.7l1.7,1l1.3,1.7
		l1.3,3l0.6,2.3l1.6,2.5l0.9,2l3.2,3.7l4.8,2.6l4.4,0.4l5-0.2l5.5,1.6l6,3.2l1.5,1.8l1,1.6l0.6,1.5l0.1,1.3l0.4,1.2l1.8,3.7l0.5,1.5
		L507.2,417.6L507.2,417.6z"/>
	<path id="YEM337" class="st0" d="M354,301.7l-38.3,30.2l-9.1,8.7l-1.4,3.3l-0.5,1.6l-1.5,3.2l-0.5,3v1.3l-0.2,0.9l-0.9,0.6l0.1,1.6
		l-0.5,2l-0.2,2.3l-0.1,4.1l0.6,2.2l0.8,1l1.4,1l-0.4,2.5l-0.5,0.6l-1,0.6l-0.6-0.4l-0.8-1.3l-0.6-0.2l-0.6,0.8l-0.1,1.1l1.1,2.4
		v1.3l-1,0.4l-1.5-0.3l-1.7-0.6l-2.3,0.2l-2.2,1.2l-1.9,0.7l-1.2,0.2l-0.6,0.7l0.3,0.8l-0.5,0.8l-2.7-0.7l-1.1,0.4l-0.7,1l-2.5,2.1
		h-2.1l-1.3-0.8l-0.8-1.5l-0.6-1.6l-0.1-1.6l-0.6-1.7l-0.1-2.5l-0.6-2.5L274,367v-2.3l-0.3-2l-1.3-1.6l-1.8-1.1l-3.5-0.8l0.1-4.5
		l0.3-1.2V352l-0.9-1l0.1-0.6l0.7-0.9l0.5-1.5l0.8-1.7l1.5-1.7l0.9-2.2l0.3-1.1l1-0.9l3.2-1.6l1-1.8l0.7-2.4l-0.2-1.8l0.2-1.5v-1.6
		l-0.7-2.6l-1.2-1.5l-2-1l-2.9-0.4l-2.4-0.6l-1.6-1.7l-2.2-2.6l-2.8-2.5l-1.2-0.4l-1-0.3l-1.4,0.9l-0.7,1.3l-0.8,1.8l-2.3,0.7
		l-2.1-0.9l-2.3-3l-2.2-2.1l-1.5-0.6l-1.5-0.2l-1-0.4l-0.3-1.2l1.4-1.5l7.7-6l1.8-2.2l1.3-2.9l-1.4-2.5l-4.3-6.1l-1-3.4v-5.3
		l-1.1-7.1l-3.1-7.3l22,5.8l15.8,9.4l13.8,2.5l7.5-0.7l8.4-8.2l19.7-7.8l54.6-11.4L354,301.7L354,301.7z"/>
	<path id="YEM3496" class="st0" d="M244.4,268l3.1,7.3l1.1,7.1v5.3l1,3.4l4.3,6.1l1.4,2.5l-1.3,2.9l-1.8,2.2l-7.7,6l-1.4,1.5
		l0.3,1.2l1,0.4l1.5,0.2l1.5,0.6l2.2,2.1l2.3,3l2.1,0.9l2.3-0.7l0.8-1.8l0.7-1.3l1.4-0.9l1,0.3l1.2,0.4l2.8,2.5l2.2,2.6l1.6,1.7
		l2.4,0.6l2.9,0.4l2,1l1.2,1.5l0.7,2.6v1.6l-0.2,1.5l0.2,1.8l-0.7,2.4l-1,1.8l-3.2,1.6l-1,0.9l-0.3,1.1l-0.9,2.2l-1.5,1.7l-0.8,1.7
		l-0.5,1.5l-0.7,0.9l-0.1,0.6l0.9,1v1.5l-0.3,1.2l-0.1,4.5l-2.7,2.6l-2.7,1.3l-3.5,0.6l-0.1-2.6l-0.6-1.7l-2.6-4.1l-1.2-2.8l-1-5.1
		l-1.9-3.1l-1.5-1.1l-1.7-0.2l-1.6,0.2l-1.7-0.2l-1.4,0.2l-1.5,1.2l-1.1,1.9l-1.5,2l-1.4,0.8l-2.7,1.2l-1.8-0.2l-1.7-1.3l-1.1-1.6
		l-1.6-0.3l-0.6,1.2l-0.3,1.5l-0.9,1.3l-1.9,0.7l-5-1.2l-1.5-1.5l-1.3-1.6l-1.8-0.7l-1.1-0.9l-1.8,0.1l-2.1,0.4l-2.3,0.9l-3.6,2.9
		l-1.5,1l-1.3,0.9l-1.2,0.8l-2.3,2.4l-1.5,0.4l-2.5,0.3l-3.1-0.4l-1,1l-2.7-0.9l-0.2-0.8l-3.4-0.6l-0.5-2.3l-1-1.7l1-1.8l0.4-0.4
		v-0.8l-1.6-1.6l-1.3,0.2h-1.2l-1.8-0.4l-2-1.3l-2.2-2.3l1.7-3.1l0.8-0.8l0.6-1.8l-0.2-3.7l0.5-2l1.1-1.6l4-2.8l0.7-0.8l4.4-1
		l2.4-2.8l4.6-3.7l1.4-0.7l2.6-2l1.1-1.3l0.3-3.3l0.8-3.4l0.7-1.9l-0.1-1.2l0.9-1.1l2.5,0.3l2.1-0.4l1.9-1l4-3.6l0.7-3.2l0.1-3.4
		l1.2-2l1.9-1.5l1.4-2.2l0.3-1.5l0.1-1.6l-0.5-1.5l-0.4-2.1l-0.3-4.2l0.6-2l0.6-1.7l3.8-2.3l3.8-1.6l3.6-0.3l3.6-0.9l0.6-0.6
		l1.3-0.6l5.6,0.4L244.4,268L244.4,268z M227.2,302.6l-0.5-0.7l-1.1-0.8l-1.4-1.6l-2.1-1l-0.9,0.1l-1.5,0.7l-0.8,1l-0.8,1.3h-0.9
		l-0.6,0.3l-0.5,0.6l-1.2,0.4l-0.6,0.8l-0.1,2l0.1,0.8l-0.6,0.1l-0.2,0.6L213,308l-0.8,0.2l-0.4,0.6l-2.6,0.8l-0.1,0.6l0.3,0.9
		l0.6,0.6l1.1,0.7l0.9,1.2l0.1,0.8l-1,0.4l-0.5,0.6l-0.3,1.5l0.2,1.3l2.3,1.7l0.2,0.7l-0.2,1.6l0.2,0.4h3.1l0.6-0.1l-0.1-1.1
		l0.2-0.4l0.6-0.1l0.6-0.4l0.2-0.6v-1.5l-0.3-1l-0.4,0.1l-0.4-0.4l-0.2-1.6l-0.5-1l-0.1-0.7l0.1-0.8l-0.1-0.6l0.3-0.7l0.9-1l1.8-1.5
		l0.1-0.7l-0.3-1.7l0.4-0.7l0.5-0.7l0.4,0.7l0.4-0.7l2,0.2l0.2-0.6v-0.8l0.2-0.7l0.8-0.7l0.7,0.2l-0.2,1.2l0.5,0.4l1-0.1l0.6-0.4
		l0.4-0.6L227.2,302.6L227.2,302.6z"/>
	<path id="YEM3497" class="st0" d="M809.2,562.7l0.1,0.6l-3.1-0.3l-1-0.4l1.3-0.6l1.2,0.1L809.2,562.7z M791.6,558.1l0.9,0.4h1
		l0.9,0.7l0.3,1.2l-0.1,1.1l-1,0.3l-1,0.2l-1.9-0.8l-1.3-1.3l-1.4-0.4l0.1-0.7l1-0.4l0.8,0.1l0.7-0.3L791.6,558.1L791.6,558.1z
		 M735.4,555.6l1.4,0.6l1-0.1l1.9,0.4l2.8,0.1l1.9,1l3.6-1l1,0.3l0.4,0.7l-0.9,0.4l-0.6,0.8l0.5,0.4l0.6,1.3l-1.9-0.4l-1.9,0.6
		l-3-0.6l-2.9-0.2l-1-1.7h-0.8l-1.4,0.4l-0.7,0.1l-0.2-0.3l-0.9-1.5l-0.3,0.1l-1.3-0.6l-1.6,0.4l-0.6-0.6l-2.2-1.1l-0.3-1l1-0.4
		l1-0.2l1.6,0.1l1.9,0.4L735.4,555.6L735.4,555.6z M826.5,518.8l2.1,0.3l3.1-0.4l2.6,2.6l4.5,3.7l5.4,1.6l1.4-1.9l0.6-1.8l1.8-0.4
		l1.2,0.2l1.1,0.6l2.2-0.3l2.3,0.1l2.4-1.6l0.8-0.3l1.6-1.2l0.6-0.9l1.8-0.2l0.8,0.9l1,0.8l1.4,1l1-0.3l0.8-0.6l0.3,0.2l1.2,1.5h1.2
		l1.5,0.4l0.6,1.2l1,0.4l2.3,1.1l2.7,0.6l2.7,1.7l1.4,0.4l3.1,2.3l1.7-0.3l1.2-0.8l0.7,0.1l0.9,0.6l-0.8,0.9l-1.9,0.6l-1.4,0.4
		l-1.3,0.3l-0.6,0.6l-0.1,2l-2.7,1.3l-2.2,0.6l-2.7,1.2l-2.9-0.3l-2.4,1l-0.6,0.6l-1.2,1.9l-0.6,0.4l-1.7,0.8l-1.9,1.7l-0.9,0.6
		l-1.9-0.2l-3.1,0.3l-1-0.2l-1.1,0.3l-1.5,1.5l-2.5-0.9l-1.9,0.6l-2.8,0.4l-7.9,1.7l-2.9,0.4l-3.8-0.4l-3.6-1.2l-3-0.9L825,545
		l-2.1-2.9l-0.9-1.7l-1.7-0.6l-2.7-2l-6.7-4.8l-1.6-1.6l-0.1-0.4l0.6-0.4l1.8,0.6l1.3-0.2l1.7-1.2l0.1-0.6l0.7-2.2l-0.4-4.4l1-0.4
		l1-0.3l2.7-0.4l1.4-2.3l0.6-0.7l1.3-0.2L826.5,518.8L826.5,518.8z M645.7,337.7l-9.3,2.9l-7,0.8l-6.1,2.8l-1.8,1.2l-4.9,4.7l-1,0.6
		l-2.7,0.6l-3.8,2.3l-4.2,3.4l-1,0.1l-1.2-0.6l-1.6,0.4l-2.7,1.5l-1.2,0.4l-1.2,0.2l-0.4-1.5l-0.4-0.9l-0.6,0.1l-1,0.4l-4.1,0.4
		L580,361l-14.4,4.1l-7.7,4.9l-2.7,1.3l-2.9,0.4l-1.4,0.8l-2.6,2l-5.4,2.9l-2.5,2l-0.6,2.5l-0.6-0.2l-1-0.6l-1.3-0.6l-1.5,0.2
		l-1.4,0.8l-1,1l-3.2,5.3l-1.2,2.7l-0.6,3.1l0.5,0.4v0.8l-0.3,1.3l-0.7,0.6l-2.7,1.2l-0.6,0.6l-0.3,1.8l-1,0.6l-1.1,0.3l-1.1,0.6
		l-0.4,1.2v1.7l-0.2,0.4l-0.9,0.9l-0.7,2.1l-1,0.8l-2.5,1.2l-3.9,5.5l-1.2,0.8l-0.3,0.2l-0.8,0.6l-0.8,0.3l-1.1-0.1l-0.1-1.6
		l-0.5-1.5l-1.8-3.7l-0.4-1.2l-0.1-1.3l-0.6-1.5l-1-1.6l-1.5-1.8l-6-3.2l-5.5-1.6l-5,0.2l-4.4-0.4l-4.8-2.6l-3.2-3.7l-0.9-2
		l-1.6-2.5l-0.6-2.3l-1.3-3l-1.3-1.7l-1.7-1l-1.6-0.7l-4.8-0.1l-6.7-1.2l-5.1-2l-4.9-3.7l-4.7-5.2l-7.3-5.8l-0.5-1.9l1.5-2.1
		l10.6-10.2l1-2.2v-2.3l-2.7-4.1l-1.6-1.9v-1.9l0.1-2.1l1.9-6.4l0.1-1.9l0.6-2.6l1.5-3.7l2.9-3.8l8.5-15L452,296l-5.9-2.4l-92,8
		l32.2-44.2l13.5-14.9l-2.7-46.2l8.6,0.4l2.1-0.3l1.9-0.9l15.5-10.2l1.9-3l7.5-23.2l1.1-2.4l16.1-22.8l10.3-14.5l5.9-8.4l5.1-7.2
		l1.5-1.2l19.6-11.3l23.7-13.8l12.3-7.1l6.1-2.5l8.4-1.3l83.7-13.4l10.5-1.6l10.5-1.7l73.1-11.7l0.5,1.3L705,69.1l-11.2,31.9
		l-4,23.1l-6.1,21.9l-8.1,20.2l-8.5,14.2L640.8,205l-5,6.7l-5.2,4l-11.5,5.4l-2.7,1.9l-1.5,1.5l-1.4,2l-1.1,3l0.1,1.7l0.7,1.6
		l0.6,2.7l-5.1,22.2l-0.1,2.8l1,1.5l0.9,1.1l1.5,0.9l0.7,2l0.4,2.6l-2.5,7.8l-1.1,2.2l-1,1.3l-0.6,2.6v1.9l-0.6,2.2l0.1,2.1l0.2,1.8
		l0.1,1.3l-0.6,1.6l-0.5,1.9l-0.6,3l0.6,2.6l1.1,1.7l2,0.7l1.9,0.2l2.7,0.9l0.6,0.7l0.4,1.5l-0.3,3.1l-0.7,1.2l-1,0.9l-1.2,2.5
		l-1,1.3l-0.8,1.3l-0.1,1.3l0.1,1.5l0.4,1.3l1,1.3l4.1,1.6l3.2,0.1l5-0.6l1.7-0.4l1.5-0.6l4.4-0.3l4.4,1.3l3.6,0.6l1.5,0.8l1.2,1.9
		l0.6,1.5l0.7,1.5l0.5,1.9l0.7,1.3l0.5,1.3l0.6,1.1l0.1,1.5L645.7,337.7L645.7,337.7z"/>
	<path id="YEM3498" class="st0" d="M227.2,302.6l0.1,0.6l-0.4,0.6l-0.6,0.4l-1,0.1l-0.5-0.4l0.2-1.2l-0.7-0.2l-0.8,0.7l-0.2,0.7v0.8
		l-0.2,0.6l-2-0.2l-0.4,0.7l-0.4-0.7l-0.5,0.7l-0.4,0.7l0.3,1.7l-0.1,0.7l-1.8,1.5l-0.9,1l-0.3,0.7l0.1,0.6l-0.1,0.8l0.1,0.7l0.5,1
		l0.2,1.6l0.4,0.4l0.4-0.1l0.3,1v1.5l-0.2,0.6l-0.6,0.4l-0.6,0.1l-0.2,0.4l0.1,1.1l-0.6,0.1h-3.1l-0.2-0.4l0.2-1.6l-0.3-0.6
		l-2.3-1.7l-0.2-1.3l0.3-1.5l0.5-0.6l1-0.4l-0.1-0.8l-0.9-1.2l-1.1-0.7l-0.6-0.6l-0.3-0.9l0.1-0.6l2.6-0.8l0.4-0.6l0.8-0.2l0.5-0.7
		l0.2-0.6l0.6-0.1l-0.1-0.8l0.1-2l0.6-0.8l1.2-0.4l0.5-0.6l0.6-0.3h0.9l0.8-1.3l0.8-1l1.5-0.7l0.9-0.1l2.1,1l1.4,1.6l1.1,0.8
		L227.2,302.6L227.2,302.6z"/>
	<path id="YEM3499" class="st0" d="M181.8,350.2l1,1.7l0.5,2.3l3.4,0.6l0.2,0.8l2.7,0.9l0.1,1.3l0.7,2.6l1.5,2.4l4.3,5.4l1.3,2.4
		l0.7,2l1,1.6l0.6,1.3l-0.6,1.8l-1.9,2.9l-1.1,1l-1.1,1.3l-4.1,2.8l-1,0.8l-1,0.4l-1.7,0.3l-1-0.1l-1.5-0.6l-1.9,0.1l-1.1,0.6
		l-0.6,1l-2.3,2.2l-3.9,2.5l-1.1,0.1l-1.5,0.1l2.4-3.2l0.1-1.3v-2l-0.2-0.9l-0.8-1.9l-0.2-1.2l-2.5-7.6l-0.2-1.5l0.2-1.3l-0.2-2.5
		l0.1-1.3l0.8-1.1l0.3-1.2l-0.9-5.7l1-3.3l1.2-2l1.2-1.2l1.9-2.3l0.5-1.1l0.7,0.1l2,0.9l1-0.2L181.8,350.2L181.8,350.2z"/>
	<path id="YEM3510" class="st0" d="M228.3,521.1l4.5-7.9l2.9-1.9l5.9-2.5l13.5-2.5l11.9-3.6l5.5-0.4l-0.4,1.3L272,505l-1.5,4.5
		l-0.1,0.7l0.3,3l-0.2,1.1l-1.2,0.4l-1.5-0.3l-1.5-0.7l-1-0.9l0.1-1.2l1-0.4l1.3,0.2l1.2-0.2l0.4-1.3l-0.2-0.1l-1-1.5l-0.2-0.6
		l0.1-0.6h-0.8v0.7l-0.6,1l-0.5,0.1l-1-0.4l-1.5,0.1l-0.6,0.3l-0.8,1.6l-1,0.9l-1.2,0.3l-0.9-1.1l-0.8,0.6l-0.3,0.6l0.3,1.9l0.9-0.6
		l2,0.3l0.2,0.3l-0.1,0.9l-0.4,0.8l-1,0.8l-1,0.6l-0.9-0.2l-1.9-0.8l-0.6-0.4l-0.4-0.6l-0.1-0.6l-0.8-0.4l-1.6-0.2l-1.3,0.4
		l-2.4,1.8l-0.5-1.1l0.3-0.7l-0.4-1.1l-0.8-1l-0.9-0.7l-2.7-1.1l-2.7-0.1l-2.4,0.6l-1.9,1.1l-3.5,3.3l-3.7,4.5l-0.6,1.3L228.3,521.1
		L228.3,521.1z"/>
	<path id="YEM3511" class="st0" d="M418.4,448.7l-10.3,3.6l-16.7,3.9l-5.7,4.4l-8.1,3.4l-1.1,0.2l-1.3-0.2l-2.3-0.8h-1.5l-1.4,0.4
		l-2.8,1.3l-1.4,0.3h-13.5l-2.9-0.6l-1.4-0.9l-0.9-0.3l-0.6,0.6l-1.8,0.6l-5.6,1l-11.2,0.6l-1.1,0.4l-2.1,1l-1,0.2l-2.7-0.2
		l-1.2,0.2l-0.7,0.6l-9,2.3l-2.2,1.3l-6.3,7.3l-1.8,1.5l-1,1l-0.8,2.8l-3.1,4.5l-2,2.1l-2.4,1.3l-11.2,3.1l-2.6,1.5l-2.4,2.3
		l-0.9,1.3l-0.3,0.6l2.1-17.1l4.3-13.4l3.1-2.5l0.6-1.6l-0.1-0.9l-0.8-0.9l-1-0.6l-0.9-1.2l-0.2-2.2l0.1-3l1.8-3.1l3.6-4.6l0.6-1
		l-0.3-0.7l-1.1-0.6l-3.3-0.2l-1-0.6v-1l2.5-1.7l1.2-1.1l0.1-1.1v-1.3l-0.2-1.2l0.5-1.2l0.8-0.9l2.4-0.6l1.9-1.2l0.2-1.2l-0.2-1.5
		l0.2-2.4l0.5-1.2l2.4-0.7l0.7,0.4l9.1,1l2,0.7l1,2.1l2.4,1.3h1.3l1.4-0.2l1.8-0.4l2-1l2.7-1.8l11.2-9.3l2.4-2.5l1-3.6l1.8-2.8
		l1-6.4l5.9-0.6l2.9-1.1l2.5-1.3l1.9-1.6l5.7-2.4l2-1.2l1.9-0.2l1.5,2.1l0.9,2.8l2.3,4.6l0.4,2.1l1.1,1.8l7.6-1.5l5.2-2.5l6.6-1.9
		l4.9-0.7l4.7,0.6l4.2,1.7l4.4,1.1l9,0.6l2.4,1.7l0.9,3.2l-0.1,3.4l0.3,2.5l-0.8,1.9l-0.9,1.3l-0.6,1.8l3.4,8.1l2,7.3l0.1,2.9
		l0.5,1.9L418.4,448.7L418.4,448.7z"/>
	<path id="_x30_" class="st0" d="M243.9,316.6L243.9,316.6L243.9,316.6z"/>
	<path id="_x31_" class="st0" d="M252.3,269.9L252.3,269.9L252.3,269.9z"/>
	<path id="_x32_" class="st0" d="M151.2,181L151.2,181L151.2,181z"/>
</g>
<path class="st1" d="M295.1,329c-3.7,0-6.7,3-6.7,6.7c0,3.1,4.9,8.8,6.3,10.4c0.2,0.2,0.6,0.2,0.8,0c1.4-1.6,6.3-7.3,6.3-10.4
	C301.7,332,298.8,329,295.1,329z M295.1,338.7c-1.8,0-3.3-1.5-3.3-3.3c0-1.8,1.5-3.3,3.3-3.3c1.8,0,3.3,1.5,3.3,3.3
	C298.4,337.2,296.9,338.7,295.1,338.7z"/>
<path class="st1" d="M845.1,416.9c-3.7,0-6.7,3-6.7,6.7c0,3.1,4.9,8.8,6.3,10.4c0.2,0.2,0.6,0.2,0.8,0c1.4-1.6,6.3-7.3,6.3-10.4
	C851.8,419.9,848.8,416.9,845.1,416.9z M845.1,426.5c-1.8,0-3.3-1.5-3.3-3.3c0-1.8,1.5-3.3,3.3-3.3c1.8,0,3.3,1.5,3.3,3.3
	C848.4,425,846.9,426.5,845.1,426.5z"/>
<path class="st1" d="M215.7,402.6c-3.7,0-6.7,3-6.7,6.7c0,3.1,4.9,8.8,6.3,10.4c0.2,0.2,0.6,0.2,0.8,0c1.4-1.6,6.3-7.3,6.3-10.4
	C222.4,405.6,219.4,402.6,215.7,402.6z M215.7,412.3c-1.8,0-3.3-1.5-3.3-3.3c0-1.8,1.5-3.3,3.3-3.3c1.8,0,3.3,1.5,3.3,3.3
	C219,410.8,217.6,412.3,215.7,412.3z"/>
<path class="st1" d="M261.4,411.3c-3.7,0-6.7,3-6.7,6.7c0,3.1,4.9,8.8,6.3,10.4c0.2,0.2,0.6,0.2,0.8,0c1.4-1.6,6.3-7.3,6.3-10.4
	C268.1,414.3,265.1,411.3,261.4,411.3z M261.4,420.9c-1.8,0-3.3-1.5-3.3-3.3c0-1.8,1.5-3.3,3.3-3.3c1.8,0,3.3,1.5,3.3,3.3
	C264.7,419.5,263.3,420.9,261.4,420.9z"/>
<path class="st1" d="M334.7,281.3c-3.7,0-6.7,3-6.7,6.7c0,3.1,4.9,8.8,6.3,10.4c0.2,0.2,0.6,0.2,0.8,0c1.4-1.6,6.3-7.3,6.3-10.4
	C341.3,284.2,338.3,281.3,334.7,281.3z M334.7,290.9c-1.8,0-3.3-1.5-3.3-3.3c0-1.8,1.5-3.3,3.3-3.3c1.8,0,3.3,1.5,3.3,3.3
	C338,289.4,336.5,290.9,334.7,290.9z"/>
<path class="st1" d="M189.2,180c-3.7,0-6.7,3-6.7,6.7c0,3.1,4.9,8.8,6.3,10.4c0.2,0.2,0.6,0.2,0.8,0c1.4-1.6,6.3-7.3,6.3-10.4
	C195.9,183,192.9,180,189.2,180z M189.2,189.6c-1.8,0-3.3-1.5-3.3-3.3c0-1.8,1.5-3.3,3.3-3.3c1.8,0,3.3,1.5,3.3,3.3
	C192.5,188.2,191,189.6,189.2,189.6z"/>
<path class="st1" d="M209.1,320.4c-3.7,0-6.7,3-6.7,6.7c0,3.1,4.9,8.8,6.3,10.4c0.2,0.2,0.6,0.2,0.8,0c1.4-1.6,6.3-7.3,6.3-10.4
	C215.7,323.4,212.8,320.4,209.1,320.4z M209.1,330c-1.8,0-3.3-1.5-3.3-3.3c0-1.8,1.5-3.3,3.3-3.3c1.8,0,3.3,1.5,3.3,3.3
	C212.4,328.6,210.9,330,209.1,330z"/>
<path class="st1" d="M278.3,199.1c-3.7,0-6.7,3-6.7,6.7c0,3.1,4.9,8.8,6.3,10.4c0.2,0.2,0.6,0.2,0.8,0c1.4-1.6,6.3-7.3,6.3-10.4
	C285,202.1,282,199.1,278.3,199.1z M278.3,208.7c-1.8,0-3.3-1.5-3.3-3.3c0-1.8,1.5-3.3,3.3-3.3c1.8,0,3.3,1.5,3.3,3.3
	C281.6,207.3,280.2,208.7,278.3,208.7z"/>
<path class="st1" d="M298.4,389.3c-3.7,0-6.7,3-6.7,6.7c0,3.1,4.9,8.8,6.3,10.4c0.2,0.2,0.6,0.2,0.8,0c1.4-1.6,6.3-7.3,6.3-10.4
	C305,392.3,302.1,389.3,298.4,389.3z M298.4,398.9c-1.8,0-3.3-1.5-3.3-3.3c0-1.8,1.5-3.3,3.3-3.3c1.8,0,3.3,1.5,3.3,3.3
	C301.7,397.5,300.2,398.9,298.4,398.9z"/>
</svg>
