<?xml version="1.0" encoding="utf-8"?>
<!-- Generator: Adobe Illustrator 24.0.1, SVG Export Plug-In . SVG Version: 6.00 Build 0)  -->
<svg version="1.1" id="Layer_1" xmlns="http://www.w3.org/2000/svg" xmlns:xlink="http://www.w3.org/1999/xlink" x="0px" y="0px"
	 viewBox="0 0 1000 579" style="enable-background:new 0 0 1000 579;" xml:space="preserve">
<style type="text/css">
	.st0{fill:#37517E;stroke:#E4EBF4;stroke-miterlimit:10;}
	.st1{fill:#F7F8F9;}
</style>
<g>
	<path id="YEM99" class="st0" d="M-55.6,550.3l-1.3,1.8l-3.6-5.5l-0.5-2l4.2-4.3l2,2.3v3.2l0.7,3.8L-55.6,550.3L-55.6,550.3z
		 M6.1,386v1.8l-1.8,1.8l-13.2-1.8l-4.4,0.6l-1.6-0.8l0.5-4.1l-1.1-3.8l1.1-1.4h1.3l8.7,5.3l0.5,0.6L6.1,386L6.1,386z"/>
	<path id="YEM150" class="st0" d="M526.4-33.7l-4.7,78.2l-17.4,9.9L492.1,53l-13.2,0.2l-14,3.5l-11.6,4.7l-27.4,15.7l-3.8,4.3
		l-8.3,13.4l-2.9,2.9l-3.6,7.5l-2,2l-3.1,0.6l-3.8,4.7l-8.5,6.4l-3.1,1.4l-1.6,1.4l-5.2,2.3l-4.7,4.1l-2.6,4.3l-4.2,8.7l-2.6,12.5
		l-3.1,8.4l-14.7,4.9l-8.7-0.2l-9.6-2l-21.2-9.9l-14.7-4.3h-8.3l-5.4,2l-2.9,2.3l-6,3.5l-4.2,2l-27,7.3l-23.4-2.3l-15.8,1.2
		l-4.4-0.6l-3.6-2.3L157.5,152l-4.2-2.9l-1.3-5.9l-1.8-3.8l-0.5-3.2l3.1-5.3l5.2-3.8l1.1-2.6l-0.2-2.9l-1.6-2.9l-2-1.8l-7.8-2.6
		l-2.3-2l-2.6-9l-4.4-9.6l-0.7-4.1l1.3-6.1l3.4-9.6l1.1-4.7v-5.3l-1.3-5.5l-1.6-4.1l-0.7-4.1l1.1-4.9l4.4-9.6l1.3-5.3l-0.2-5.5
		l1.3-4.9l4.4-3.8l5.4-2.6l4.7-1.2l4.9-2.6l0.5-4.9l-2-5.5l-4.2-3.5l-11.9-4.3l0.5-1.2l10.1-14l18-17.4l18.3-12.8l4.7-2l4.7-0.8
		l3.6,1.2l7.3,0.2l3.4,0.8l15.3,7.5l8.7,6.1l14.7,18.3l8.5,7.9l4.2,1.4h3.8l7.8-0.8l8.3,0.8l3.6-0.2l4.9-1.4l1.3,0.6v2.6l-0.5,4.9
		l1.3,3.2l3.8,1.2l4.9-0.6l3.1-3.8l2.9-4.9l3.1-4.1l4.4-2.6l3.6,0.2l8,4.7l5.4,0.8l3.8-2l3.4-4.3l2.9-6.1l3.1-2.6l4.4,0.6l8.7,2.9
		l3.8-0.2l16.1-4.1l20.2-2.3l12.7,0.2l14.3,3.5l6-0.2l13.2-5.9l4.4-1.2L526.4-33.7L526.4-33.7z"/>
	<path id="YEM151" class="st0" d="M49.6,884l-0.5-3.5l1.6-4.9l5.4-10.4l8.7-7.3l4.4-1.8l2.6,2.3l-0.7,4.7l-6.2,7.5l-1.6,5.3l-2,2.3
		L49.6,884L49.6,884z M70.6,820.5l-1.6,1.4h-5.8l2.9-6.9l-4.4-1.8l-5.2-3.2l-4.4-4.3l-1.8-6.1l1.8-3.8l4.2-4.3l4.9-3.2l3.4-1.2
		l1.6-1.8l5.8,8.4l1.3,3.2v2.6l-2.9,9l-0.2,7.5L70.6,820.5z M27.3,465.1l2.3,0.6l2.6-0.8l2.9-1.8l1.8,0.2v2.9l-2.3,9.3l-0.5,3.2
		l0.2,2l-0.5,2l0.2,2.6l-4.2,6.9l-2.6,2.6l-2.9-0.2l-2.3-2l-2.3-4.1v-5.5l2-5.9l0.7-12.5l2.3-4.3l4.7-4.9l1.8-3.8l4.7-2.6l1.6,0.6
		l1.1,2.3l-5.4,3.8l-0.7,1.8l1.1,1.4l-0.7,1.4l-1.8,1.8l-3.1,1.8L27.3,465.1L27.3,465.1z M180.1,436.3l0.5,10.2l1.1,2.9l0.2,5.3
		l1.1,4.1l0.2,6.9l-0.7,8.1l1.1,5.5l0.5,6.7l5.8,9.6l4.7,3.8l5.2,5.3l8.5,2.6l2,4.3l2.3,6.7l4.2,8.1l2.3,7.3l3.1,5.3l6.5,7.3
		l5.2,3.2l6.9,7.3l6.5,4.1l5.8,1.4h3.8l4.2-0.6l4.9,5.3v2.6l-1.3,1.2l-3.4,5.9l-2.9,2.3l-3.1,0.6l-6.5-2.9l-2.3-0.2l-1.6,3.5
		l-6.2,7.3l-3.8,3.8l-3.8,6.4l-3.4,10.4l2.9,18.1l-1.1,3.8l-2.6,3.5l-0.5,4.3l0.7,7.9l-0.7,4.1l0.7,4.7l8,24.4l0.7,3.8l2.6,6.1
		l0.7,2.9v6.4l-0.5,4.3l-7.5,10.2l-4.2,0.2l-1.3,3.2l6.9,33.2v8.1l2.9,8.1l3.6,3.5l4.7,3.5l6.5,2.3l11.6,8.1l4.2,1.8l3.4-0.2
		l2.6-2.9l3.1-2l2.6-2.3l3.4-1.4l0.5,6.7l1.1,4.1l-1.3,6.7l-8,14.5l-3.4,2.3l-1.8-1.4l-3.4-1.4l-3.6,1.8l-0.7,3.2l2.9,4.3l1.8,2.9
		l0.2,3.8l-2.3-0.6l-5.4,2l-17.4,3.2l-5.2,1.8l-7.5,3.8l-15.8,22.5l-2,4.7l-2.3,3.2l-4.7,0.8l-7.3,2.3l-6,2.9l-14.7,13.4l-0.7,0.2
		l0.2-5.3l-0.7-8.4l-6.9-15.1l-1.1-2.3l-2-20.1l-1.3-2l-13.9-16.5l-4.7-13.1l-4.4-10.8l-4.7-7.5l-2.3-18.3l-1.8-8.4l-2-7.3
		l-3.8-12.5l-6-22.4l-1.6-4.9l-1.1-7.5l-2.6-6.9l-0.7-7.5l-0.5-2.3l-1.3-1.2l-3.6-3.2l-1.1-1.4l0.5-2.9l1.1-1.2l1.6,0.6l2,1.8l2,4.9
		l2.6,11l3.1,3.2l0.2-7.3l-0.5-3.2l-1.3-2.9l3.1-9.9l-2.3-8.1l-3.8-7.3l-2.3-7.9l0.5-1.8l1.8-2.6l0.2-2.9l-1.1-1.2l-1.1-2.9l-2.9-2
		l-3.1-4.9l-1.6-8.1l-0.2-2.6l-2-8.7l-10.1-14l-2.3-9l-0.2-4.9l0.2-2.6l1.6,0.2l1.1,2l-1.1,3.5v2.6l1.6,4.7l2.6,4.9l3.4,4.3l3.8,2.9
		l0.2-3.5l1.3-8.1v-4.9l-2.3-8.7l-0.7-8.1l-1.3-2.9L99,567l-5.4-5.9l-2.3-3.2l-1.3-4.1l-0.7-5.5l1.1-13.1l-1.1-4.3l-2.6-4.1
		l-7.5-3.8l-6.7-6.4l-4.2-3.2l-4.7-2.6l-4.4-1.8l-4.7-1.2h-4.2l-2.9,2l-1.3,4.9l-2.3,0.8l-4.7-2l-4.2-4.1l-0.2-5.5l-1.3-3.2l2.3-0.2
		l6.9,1.8l3.6-0.6l2-1.8l1.3-2.6l0.7-3.2l-0.2-2.6l-2-3.5l-0.5-3.2l5.4-11.4l1.6-2.6l1.3,3.2l-0.7,3.8l-1.3,3.8l-1.8,2.6l3.8,2
		l3.1,2l8.5,8.1l1.1,1.8l0.5,3.2l-0.5,4.7l0.5,1.4l2.9,1.4v-3.2l-1.6-1.8l3.1-3.8l1.3-5.5l-0.5-18.6l-1.8-8.4l-3.4-6.9l-0.7-3.5
		v-2.6l0.7-5.5l-0.7-5.5l-0.7-3.2l-2.9-5.9l-8.6-13.1l0.5-2l2.3-3.2l-3.8-5.3l-1.3-3.5l-0.5-4.1l2-8.7l-0.5-3.5l-4.4-1.8l1.6-3.8
		l2-2l2.3-1.8l2.6-2.6l1.8-2.3l0.7-2.3l0.2-6.4l1.3-6.7l2.6-4.7l3.8-3.5l3.6-2.6l3.8-3.5l2-4.3l1.1-5.3l33.9,23l14-2.3l9.1,0.8
		l4.4-2.6l3.1-2.6l8-2l21.4-2l5.4,4.7l2.6,6.7l-0.5,7.9l-1.3,6.1l-1.3,4.1l-1.8,3.5v4.3l2.6,8.1l-1.6,14l-1.1,2.6l-0.2,3.2
		L180.1,436.3L180.1,436.3z"/>
	<path id="YEM152" class="st0" d="M319.9,437.4l-2.6,10.8l-1.1,10.4l-3.6,4.3l-8.3,6.4l-4.4,2.3l-14.7,12l-7.8,9l-14,3.2l-2.3,2.6
		l-12.9,9l-3.6,5.3L243,519l0.7,12l-2,5.9l-2.6,2.6l-5.4,9.9l-5.2-3.2l-6.5-7.3l-3.1-5.3l-2.3-7.3l-4.2-8.1l-2.3-6.7l-2-4.3
		l-8.5-2.6l-5.2-5.3l-4.7-3.8l-5.8-9.6l-0.5-6.7l-1.1-5.5l0.7-8.1l-0.2-6.8l-1.1-4.1l-0.2-5.3l-1.1-2.9l-0.5-10.2l11.6-4.7l36.8-4.1
		l4.4,0.6l4.4-0.2l18.9,2.3l5.8,2l4.7-0.6l3.8-1.4l10.9,0.2l9.3-4.1l3.8-3.2l3.8,0.6l2.9,1.2l1.8,2.9l3.8,2.6L319.9,437.4
		L319.9,437.4z"/>
	<path id="YEM153" class="st0" d="M504.5,619.5l-15.8,21.6l-5.2,23.8l-3.8,34.3l-5.2,11.6l-6.9,7.5l-7.8,4.3l-4.9,12.8l-4.2,2
		l-6.2-2.9l-11.9-4.7l-9.6-6.9l-4.9-2.3l-6-2.3l-4.7-3.2l-10.3-3.2l-4.7-2.3l-3.8-4.7l-9.1-8.4l-3.4-1.4l-2.6,0.8l-2.3,4.1l-0.2,3.2
		l-1.6,4.1l-2.3,4.1l-9.6,4.3l-5.4-1.4l-1.6-3.5l-2.9-12.5l-3.1-0.6l-3.8,1.8l-4.9,6.1l-5.8,5.3l-4.7,6.7h-4.9l-3.4,1.8l-1.6,2.3
		v4.1l1.8,3.8l0.5,5.5l-0.2,5.5l-5.4,11.6l-4.9,2.9l-5.8,1.4l-3.4-1.8l-0.7-4.3l0.7-5.3l-1.1-2.3l-1.8,0.2l-1.6,3.8l-3.4,5.5
		l-3.4,10.2l-2.9,4.7l-3.1,7.9l-3.4,1.4l-2.6,2.3l-3.1,2l-2.6,2.9l-3.4,0.2l-4.2-1.8l-11.6-8.1l-6.5-2.3l-4.7-3.5l-3.6-3.5l-2.9-8.1
		v-8.1l-6.9-33.2l1.3-3.2l4.2-0.2l4.9-0.2l3.6-0.2l12.5-7.9l7.3-6.9l2-3.2l3.6-1.8l6.2-0.2l4.7,2l3.1,0.2l5.4-0.8l3.4-1.2l3.1-2.6
		l13.2-9l3.6-4.1l3.6-3.2l6.2-9.3l1.8-5.9l-1.8-4.3l-3.4-5.3l-2.3-6.4l-4.2-7.5L294,617l-4.9-7.5l-2.3-8.4l-0.2-4.3l3.1-3.2l9.8,1.2
		l8-0.8l4.7-1.4l7.3-7.5l3.8-2.6l4.2-2.9l4.9-3.2l11.4-9.3l7.3-2.9l6.7-1.4l5.8-0.2l3.6,2.9l5.8,2.3l4.2,5.3l4.9,4.7l16.1,3.8
		l6.2-2.3l2.9-4.3l1.1-4.7l1.8-3.8l5.2,0.8l3.6,5.3l5.4,4.1l5.8,0.6l8.5-3.8l4.4-2.6l4.7-6.4l3.6-6.1l4.9-3.8l4.4-0.6l5.4,0.6
		l5.2-0.6l5.4,0.6l4.7,3.5l6,9.9l3.1,16.3l3.8,9l8.3,13.1l2,5.5L504.5,619.5L504.5,619.5z"/>
	<path id="YEM154" class="st0" d="M239.9,167.8l-1.1,42.2l3.1,33.4l-0.5,4.1l-0.5,5.3l0.2,4.3l0.5,3.5v3.8l1.3,2.6l6.2,4.9l2.3,4.1
		l-0.2,7.3l0.7,6.1l0.2,5.5l8.3,18.9l-0.2,3.5l-1.8,2.6l-4.9,4.3l-2,5.3l2.6,2.6l2.3-0.6l8-10.4l2-0.8l2,1.2l2.6,2.6l5.2,9.6l2,9.3
		l1.3,9.6l-0.7,4.7l-0.7,8.7l1.3,6.1l0.5,4.7l3.6,3.5l1.3,2.3l-1.1,8.7l-1.6,6.7l-2,2.9l-3.4,0.8l-3.8-1.2l-3.4,0.2l-2.6,2l-1.8,2
		l-1.1,2.6l-0.7,3.2v3.2l2.9,5.9l-0.2,3.5l-4.2,9l-5.8-2l-18.9-2.3l-4.4,0.2l-4.4-0.6l-36.8,4.1l-11.6,4.7l-3.1-21.2l0.2-3.2
		l1.1-2.6l1.6-14l-2.6-8.1v-4.3l1.8-3.5l1.3-4.1l1.3-6.1l0.5-7.9l-2.6-6.7l-5.4-4.7l-21.4,2l-8,2l-3.1,2.6l-4.4,2.6l-9.1-0.8
		l-14,2.3l-33.9-23l1.8-33.8l-0.7-11l-5.5-34.4l-0.7-18.3l-1.6-6.7v-3.2l-2.6-4.3l10.1-4.1l7.3-3.5l5.4-4.1l1.8-4.1l-0.7-7.5
		l0.7-3.2l2.3-1.2l8-1.8l3.1-1.2l9.1-6.1l4.4-3.8l2.6-4.1l5.4-16.1l1.1-4.7l0.2-5.3l1.1-3.5l2.6-1.2l5.2,1.2l8.3,2.9l3.6-0.8
		l1.3-4.9l4.2,2.9l35.2,11.6l3.6,2.3l4.4,0.6l15.8-1.2L239.9,167.8L239.9,167.8z"/>
	<path id="YEM155" class="st0" d="M362.7,162.3l10.9,8.1l3.4,1.8l11.9,10.2l3.1,3.8l1.3,4.1l-1.1,3.5l-2,2.9v4.3l3.1,6.9l1.8,9
		l1.8,6.4l2.9,5.9l0.7,5.5l-0.5,4.9l-1.1,4.3l1.1,3.2l1.3,2.3l0.2,3.5l-4.7,16.1l2,6.4l0.2,7.5l1.1,6.7l6.7,13.4l5.2,6.7l-11.4,0.8
		l-12.2,5.3l-12.2,7.3l-2,5.5l-1.8,6.4l1.1,13.4l1.3,6.7l1.6,4.7l-0.2,5.3l-1.1,4.7l-4.4,6.9l-6,4.9l-3.8,6.4l-0.2,11l-2.3,10.2
		l-12.7,11.4l-6,3.2l-6.7,1.2l-8-0.8l-2.9,3.5l0.2,3.8l-2.3,6.1l-12.9-6.9l-3.8-2.6l-1.8-2.9l-2.9-1.2l-3.8-0.6l-3.8,3.2l-9.3,4.1
		l-10.9-0.2l-3.8,1.4l-4.7,0.6l4.2-9l0.2-3.5l-2.9-5.9v-3.4l0.7-3.2l1.1-2.6l1.8-2l2.6-2l3.4-0.2l3.8,1.2l3.4-0.8l2-2.9l1.6-6.7
		l1.1-8.7l-1.3-2.3l-3.6-3.5l-0.5-4.7l-1.3-6.1l0.7-8.7l0.7-4.7l-1.3-9.6l-2-9.3l-5.2-9.6l-2.6-2.6l-2-1.2l-2,0.8l-8,10.4l-2.3,0.6
		l-2.6-2.6l2-5.3l4.9-4.3l1.8-2.6l0.2-3.5l-8.3-18.9l-0.2-5.5l-0.7-6.1l0.2-7.3l-2.3-4.1l-6.2-4.9l-1.3-2.6v-3.8l-0.5-3.5l-0.2-4.3
		l0.5-5.3l0.5-4.1l-3.1-33.4l1.1-42.2l27-7.3l4.2-2l6-3.5l2.9-2.3l5.4-2h8.3l14.7,4.3l21.2,9.9l9.6,2l8.7,0.2L362.7,162.3
		L362.7,162.3z"/>
	<path id="YEM156" class="st0" d="M454.8,735.6l6.9,4.9l-0.2,13.7l2,3.5l2.3,0.8l7.3,4.9l-2.3,7.5l-3.1,2.9l-4.2-0.2l-4.4,0.6
		l-1.8,2l-0.2,3.2l-2,5.3l-3.4,3.8l-1.6,5.3l1.3,4.9l3.8,4.1l-2,4.3l-3.8,1.2h-4.2l-4.9,1.2l-5.4,2.3l-5.2,4.1l-3.4,6.1l-0.5,4.3
		l-1.6,6.9l-2,1.4l-2.3-0.2l-2.6,1.8l-3.1,9.9l-3.4,2.3l-1.6,4.3l0.2,1.4l-1.3,6.1l-2,3.5l-2.9,3.8l-7.8,6.1l-5.2,0.6l-4.4-1.8
		l-3.1-1.8l-4.2-1.8l-7.5-0.2l-15.6-5.5l-5.2-3.5l-10.7-1.4l-24.1-7.9l-1.6-3.2l1.1-2.9v-4.7l-3.1-1.4l-9.6,4.3l-1.8-2.6l0.2-4.3
		l-1.3-3.5l-9.8,1.4l-4.4,2.3l-5.2-1.8l-4.7,2.6l-12.5-0.6l-5.8-12.2l5.4-2l2.3,0.6l-0.2-3.8l-1.8-2.9l-2.9-4.3l0.7-3.2l3.6-1.8
		l3.4,1.4l1.8,1.4l3.4-2.3l8-14.5l1.3-6.7l-1.1-4.1l-0.5-6.7l3.1-7.9l2.9-4.7l3.4-10.2l3.4-5.5l1.6-3.8l1.8-0.2l1.1,2.3l-0.7,5.3
		l0.7,4.3l3.4,1.8l5.8-1.4l4.9-2.9l5.4-11.6l0.2-5.5l-0.5-5.5l-1.8-3.8v-4.1l1.6-2.3l3.4-1.8h4.9l4.7-6.7l5.8-5.3l4.9-6.1l3.8-1.8
		l3.1,0.6l2.9,12.5l1.6,3.5l5.4,1.4l9.6-4.3l2.3-4.1l1.6-4.1l0.2-3.2l2.3-4.1l2.6-0.8l3.4,1.4l9.1,8.4l3.8,4.7l4.7,2.3l10.3,3.2
		l4.7,3.2l6,2.3l4.9,2.3l9.6,6.9l11.9,4.7l6.2,2.9L454.8,735.6L454.8,735.6z"/>
	<path id="YEM157" class="st0" d="M616.7,827.8l-7.8,2.3l-1.6,3.8l-0.7,7.5l0.7,4.9l-0.7,3.8l-6,3.8l-7.8,2l-2.6,2.9l-1.6,3.8
		l0.7,3.8v4.1l-0.5,3.5l-3.8,3.5l-8,5.5v3.2l3.1,1.8l10.7,0.6l3.6,1.8l1.1,2.3l-2,3.2l-11.6,14.9l-5.8,9.9l-0.5,9.6l0.7,6.9l2.9,3.8
		l3.1,2l2.6,2.9l0.2,2.9l-1.8,5.3l-10.1,7.9l-13.8,42.8l-6.7,54.6l-1.3,2.9l-17.6,1.4l-38.1,11.6l-43.3,8.1l-18.9,7.9l-9.3,6.1
		l-14.5,25.3l-0.5-2.6l-1.1-0.2l-4.9,2l-6,1.8l-13.4,7.3l-4.7,0.6l-4.2-0.6h-4.2l-7.8,4.9h-4.7l-3.8-1.4l-2.6-3.5l2.9,0.2l5.2,1.2
		l2.9,0.2l1.8-1.8v-3.2l-1.6-2l-2.3,2l-5.4-0.8l-6.7,3.2l-12.5,7.5l-6,1.8h-3.4l-5.4-2l-6.2,3.2l-3.1,0.2l-4.2-2.9l-3.6-8.4
		l-3.1-1.8l-4.2-0.6l-3.6-1.8l-5.8-4.3l-3.4-2l-3.8-1.4l-4.4-1.2l-4.7-0.2l-2.9-1.2l-8-5.3l-4.2-1.8h-7.5l-1.8-0.8l-3.4-2.6
		l-3.8-1.8l-2.6,1.2l-11.9,13.4l7.5-17.1l16.1-27.7l11.9-13.4l7.3-12.5l0.5-5.5l-0.7-3.8l-1.8-2.9v-4.1l2.9-2.3l7.5-1.2l3.1-1.8
		l3.6-2l3.1-3.5l4.2-2l4.2-1.2l4.2,0.6l3.8,2l3.8,1.4l7.8,5.3l3.8,3.8l5.8,2.9l3.8,0.2l1.1-3.8l-0.7-12l1.6-1.4l8,5.5l4.9,0.8
		l2.3-2.3l1.1-5.3l2-4.7l2.6-0.8l4.7-0.6l2.3-2l-0.2-7.3l4.7-4.3l2.6-5.3l8.7,1.8l8.7-0.2L393,988l4.9-4.3l0.7-5.5l-1.1-4.7l0.5-6.1
		l-0.2-4.1l-1.8-4.7l1.3-3.2l4.7-1.4l13.4-0.2l2-2.6l-0.5-4.3l-2.3-3.2l-6.2-0.8l-2.9-1.8l-3.6-1.8l-1.6-3.5l1.6-4.1l3.4-2.3
		l3.6-1.8l6-1.2l1.6-1.4l-0.2-3.2l0.7-1.8l2.6-0.8h2.9l3.6-1.8l2-2.6l1.8-2.9l2.9-1.4l1.8-5.3l8.3,3.5l2.9,3.8l8.5,7.3l5.8-1.2
		l7.5-5.9l14.3-6.7l3.4-4.7l3.4-2.3l8.3,3.5l4.7-0.6l1.3-4.9l-0.7-5.9l0.2-17.7l5.2-1.2l6.7-0.6l17.1-7.9l9.3-6.9l8.7-4.7l7.5-8.1
		l12.9-32.6l12.2,0.2l3.4,0.6l6.5-3.8l4.7-4.7l10.9-7.9l4.7-0.8l3.4,2l2.6,12.2L616.7,827.8L616.7,827.8z"/>
	<path id="YEM158" class="st0" d="M208.4,1127.7l-0.2,3.2l-2.6,1.8l-1.3-0.6l-3.6-4.3l-2.6,0.6l-1.3-0.6l-0.5-3.2l3.4-1.8l4.7-0.2
		l2.9,1.8C207,1124.2,208.4,1127.7,208.4,1127.7z M408.2,860.4l3.8,6.7l0.5,5.5l-0.7,5.9L410,884l-0.2,4.9l3.1,3.8l4.4,1.4l4.7-1.2
		l4.7,0.2l6.5,3.8l1.1,2.9l0.5,4.9l-1.8,5.3l-2.9,1.4l-1.8,2.9l-2,2.6l-3.6,1.8h-2.9l-2.6,0.8l-0.7,1.8l0.2,3.2l-1.6,1.4l-6,1.2
		l-3.6,1.8l-3.4,2.3l-1.6,4.1l1.6,3.5l3.6,1.8l2.9,1.8l6.2,0.8l2.3,3.2l0.5,4.3l-2,2.6l-13.4,0.2l-4.7,1.4l-1.3,3.2l1.8,4.7l0.2,4.1
		l-0.5,6.1l1.1,4.7l-0.7,5.5l-4.9,4.3l-10.9,2.9l-8.7,0.2l-8.7-1.8l-2.6,5.3l-4.7,4.3l0.2,7.3l-2.3,2l-4.7,0.6l-2.6,0.8l-2,4.7
		l-1.1,5.3l-2.3,2.3l-4.9-0.8l-8-5.5l-1.6,1.4l0.7,12l-1.1,3.8l-3.8-0.2l-5.8-2.9l-3.8-3.8l-7.8-5.3l-3.8-1.4l-3.8-2l-4.2-0.6
		l-4.2,1.2l-4.2,2l-3.1,3.5l-3.6,2l-3.1,1.8l-7.5,1.2l-2.9,2.3v4.1l1.8,2.9l0.7,3.8l-0.5,5.5l-7.3,12.5l-11.9,13.4l-16.1,27.7
		l-7.5,17.1l-1.1,1.4l-2.9,1.8l-4.4,0.6l-4.9-0.8l-1.1-2.3l3.8-19.2l0.2-9.3l-2-8.4l-4.2-7.5l-6.2-6.7l-1.6-5.5l-2.9-3.5l-0.7-1.8
		l-0.2-4.7l-0.7-4.7l-1.3-4.3l-2-3.8l-7.3-9.3l-1.6-4.9l-2.6-5.5l-2-6.1l-0.7-2L166.4,993l-4.7-17.1l2.6-7.5l1.8-8.1l1.3-42.8
		l4.4-7.5l1.1-4.1l0.7-1.4l2.3-1.2l-2.9-7.5l0.5-11.6l0.7-0.2l14.7-13.4l6-2.9l7.3-2.3l4.7-0.8l2.3-3.2l2-4.7l15.8-23.2l7.5-3.8
		l5.2-1.8l17.4-3.2l5.8,12.2l12.5,0.6l4.7-2.6l5.2,1.8l4.4-2.3l9.8-1.4l1.3,3.5l-0.2,4.3l1.8,2.6l9.6-4.3l3.1,1.4v4.7l-1.1,2.9
		l1.6,3.2l24.1,7.9l10.7,1.4l5.2,3.5l15.6,5.5l7.5,0.2l4.2,1.8l3.1,1.8l4.4,1.8l5.2-0.6l7.8-6.1l2.9-3.8L408.2,860.4L408.2,860.4z"
		/>
	<path id="YEM332" class="st0" d="M1743.9,536.6l-0.5-1.4l-0.2-4.7l-1.8-3.5l-1.6-4.3l-2.3-4.3l-1.6-6.1l-2.3-4.7l-1.8-4.7l-3.8-6.1
		l-4.7-2.6l-11.4-2l-14-4.1l-14,0.8l-4.7,2l-5.4,1.4l-16.1,1.8l-10.3-0.2l-13.2-5.3l-3.1-4.1l-1.3-4.1l-0.2-4.7l0.5-4.1l2.6-4.3
		l3.1-4.3l3.8-7.9l3.4-2.9l2.3-3.8l1.1-9.9l-1.3-4.7l-2-2.3l-8.7-2.9l-6-0.6l-6.5-2.3l-3.6-5.5l-2-8.4l1.8-9.6l1.6-6.1l2-5.3
		l-0.2-4.3l-0.7-5.9l-0.2-6.7l2-6.9v-6.1l1.8-8.4l3.4-4.3l3.6-6.9l8-25l-1.3-8.4l-2.3-6.4l-4.7-2.9l-2.9-3.5l-3.4-4.7l0.5-9
		l16.3-70.9l-1.8-8.7l-2.3-5.3l-0.2-5.5l3.6-9.6l4.4-6.4l4.9-4.7l8.7-6.1l36.8-17.1l16.8-12.8l16.1-21.6l83.9-78.2l27.2-45.4
		l25.6-64.6l19.7-70.1l12.7-73.9l35.9-102.1l57-94.8l32.6,87.6l9.1,23.8l17.9,47.7l8.7,23.8l26.7,71.5l27,71.3l8.7,23.8l24.6,65.2
		l-1.8,0.2l3.1,2.3l7.8,0.6l3.6,1.4l2.3,3.2l33.9,87.2l26.1,66.3l-4.4,2.6l-9.8,2.9l-7.8-2l-2.3,2.3l-4.7,0.6l-2.3,1.4l-3.8,4.7
		l-2.3,2l-5.2,1.8l-7.3,4.7l-8.5,2l-4.4,2l-7.5,5.3l-3.4,1.8l-29,8.4l-13.4,7.3l-23.6,18.6l-21.2,19.5l-5.4,6.7l-2.6,4.9l-3.8,8.4
		l-6.7,9l-1.6,2.9l-1.1,2.9l0.5,5.5l1.1,2.9l-1.6,4.7l-4.7,6.1l-2,9.9l-5.2,6.7l-0.7,4.3l1.6,4.7l2.9,5.5l2,5.9l-2.3,9.9l3.4,3.8
		l6.7,3.8l0.2,3.8l-1.8,17.5l1.1,10.4l2,10.4l2.3,2.6l0.2,2.9l-1.1,2.3l-0.5,3.2l-1.6,3.2l-1.8,0.6l-4.4,0.6l-31.9,9.9l-4.4,4.7
		l-1.8,0.6l-5.2,0.8l-16.5,7.3l-8,5.9l0.2,5.5l-1.6,1.4l0.2,2.9l-0.7,0.2l-3.8-2.3l-1.8-1.8l-1.8-0.6l-4.2,3.2l-10.7,2.6l-16.5,10.2
		l-2.6,2.9l-1.1,3.5l1.3,4.7l1.8,2.6v1.8l-4.4,1.8l-22.3,2.3l-3.8,1.4l-3.6,2.3l-3.1,2.3l-4.9,6.7l-4.2,0.2l-1.8,0.6l-0.5,1.8h-2.3
		l-10.7,5.3l-2.9,2l-5.4-2l-5.8,2.9l-5.4,3.8l-4.2,2l-41.5,12.8l-45.5,9.6L1743.9,536.6L1743.9,536.6z"/>
	<path id="YEM333" class="st0" d="M650.6,635.8h23.6l4.9,2.6l3.6,3.5l-1.1,4.7l-2.6,4.9l-1.6,4.9l-0.2,5.9l3.8,3.8l9.1,2.3l4.7,4.3
		l11.9,35.8l4.7,8.1l7.3,5.5l9.6,2l8.7,4.1l4.2,3.2l0.5,2.9v2.6l0.7,2.9l0.2,3.2l1.8,4.1l0.7,4.1l4.7,4.9l-3.1,20.4l-5.8,9
		l-3.4,11.4l-7.8,7.9l-35.7,29.7l-8.5,5.9l-6.5,3.2l-5.8,1.4l-4.4,0.6h-4.2l-7.5-4.3l-3.1-6.7l-6.5-2.3l-29-3.2l-2.3-1.2l1.3-18.6
		l-2.6-12.2l-3.4-2L607,796l-10.9,7.9l-4.7,4.7l-6.5,3.8l-3.4-0.6l-12.2-0.2l-0.2-6.4l-1.1-5.9l-5.4-7.3l-15.6-16.5l-5.8-8.1
		l-3.6-7.3l-4.7-6.7l-6.7-2.9l-8.7-0.2l-5.4-0.8l-4.7,2l-3.4,0.6l-2.9,2.6l-3.6,1.4H492l-6,1.2l-4.2,2.9l-9.1,3.8l-7.3-4.9l-2.3-0.8
		l-2-3.5l0.2-13.7l-6.9-4.9l4.9-12.8l7.8-4.3l6.9-7.5l5.2-11.6l3.8-34.3l5.2-23.8l15.8-21.6l11.1-1.8l8.7-4.1l8.7-8.4l11.1,2.6
		l5.8,3.5l4.2,5.3l1.1,6.4v7.3l1.8,12.5l2,8.1l0.2,7.9l1.8,5.5l0.5,5.3l1.8,5.3l2.6,4.7l4.2,2.6h6.7l8-6.7l2.3-3.2l3.6-1.4l8.5,2.3
		l1.6-2.6l-1.1-2.6l1.8-2.3l3.8-0.6l6-2.3l6.9-3.8l7.3-0.6l5.4,1.8l4.7,0.8l3.4-1.4v-4.3l-3.6-7.5l0.2-3.5l1.8-2.6l2,0.6l2.6,4.1
		l2,1.4l3.1-1.8l1.6-2L650.6,635.8L650.6,635.8z"/>
	<path id="YEM334" class="st0" d="M569.9,811.2l-12.9,32.6l-7.5,8.1l-8.7,4.7l-9.3,6.9l-17.1,7.9l-6.7,0.6l-5.2,1.2L502,891l0.7,5.9
		l-1.3,4.9l-4.7,0.6l-8.3-3.5l-3.4,2.3l-3.4,4.7l-14.3,6.7l-7.5,5.9l-5.8,1.2l-8.5-7.3l-2.9-3.8l-8.3-3.5l-0.5-4.9l-1.1-2.9
		l-6.5-3.8l-4.7-0.2l-4.7,1.2l-4.4-1.4l-3.1-3.8l0.2-4.9l1.8-5.5l0.7-5.9l-0.5-5.5l-3.8-6.7l1.3-6.1l-0.2-1.4l1.6-4.3l3.4-2.3
		l3.1-9.9l2.6-1.8l2.3,0.2l2-1.4l1.6-6.9l0.5-4.3l3.4-6.1l5.2-4.1l5.4-2.3l4.9-1.2h4.2l3.8-1.2l2-4.3l-3.8-4.1l-1.3-4.9l1.6-5.3
		l3.4-3.8l2-5.3l0.2-3.2l1.8-2l4.4-0.6l4.2,0.2l3.1-2.9l2.3-7.5l9.1-3.8l4.2-2.9l6-1.2h5.8l3.6-1.4l2.9-2.6l3.4-0.6l4.7-2l5.4,0.8
		l8.7,0.2l6.7,2.9l4.7,6.7l3.6,7.3l5.8,8.1l15.6,16.5l5.4,7.3l1.1,5.9L569.9,811.2L569.9,811.2z"/>
	<path id="YEM335" class="st0" d="M949.1,84.6l8.5,147.7l-43,47.7l-174.8,36.7l-62.9,25l-27,26.1l-23.8,2.3l-44-7.9l-50.4-30
		l-70.2-18.6l-13.8-9.6l-17.9-1.4l-4.2,2l-1.8,2l-11.6,2.9L407,303l-6.7-13.4l-1.1-6.7l-0.2-7.5l-2-6.4l4.7-16.1l-0.2-3.5l-1.3-2.3
		l-1.1-3.2l1.1-4.3l0.5-4.9l-0.7-5.5l-2.9-5.9l-1.8-6.4l-1.8-9l-3.1-6.9v-4.3l2-2.9l1.1-3.5l-1.3-4.1l-3.1-3.8l-11.9-10.2l-3.4-1.8
		l-10.9-8.1l3.1-8.4l2.6-12.5l4.2-8.7l2.6-4.3l4.7-4.1l5.2-2.3l1.6-1.4l3.1-1.4l8.5-6.4l3.8-4.7l3.1-0.6l2-2l3.6-7.5l2.9-2.9
		l8.3-13.4l3.8-4.3l27.4-15.7L465,57l14-3.5l13.2-0.2l12.2,1.4l17.4-9.9l4.7-78.2l40.1,0.2l11.9,2.9L612.4-8l9.6,3.5l186.2,21.6
		l81.1-12.5l7.5,4.9l29,45.7l17.6,27.7l2.9,1.8L949.1,84.6L949.1,84.6z"/>
	<path id="YEM336" class="st0" d="M1301.2,792l-22.3-0.6l-3.6,1.4l-9.3,9l-2,0.8l-3.4,0.6l-1.8,2l-3.8-5.3l-7.3-1.4h-16.1l1.6,3.2
		l-8.7,0.2l-24.1,7.9l1.1-5.9l-3.4-3.8l-4.7-2.6l-3.1-2.6l-1.3,1.8l-5.8-2.9l-18.7-5.3l-3.1,2l-11.1,3.8l-3.6,0.6l-2.9,2.3
		l-10.7,14.3l-9.6,5.9l-32.1,12.2l-4.4,3.5l-17.1,20.4l-26.6,26.8l-8,5.5l-15.3,5.5l-2-12.5l-1.6-6.1l-0.2-9.3l-6.5-23.2l-10.9-25.9
		l2-5.9l2.9-4.3l2.6-6.1l-1.1-7.9l0.2-10.8l-2.9-10.2l-7.5-5.5l-28.8-1.8l-14-3.5l-13.4-5.5l-15-2l-15.8,2.3l-21,6.4l-16.5,8.1
		l-24.3,4.7l-3.6-5.9l-1.3-6.7l-7.3-14.9l-2.9-9l-4.9-6.7l-6.2,0.6l-6.5,3.8l-18.2,7.8l-6.2,5.3l-8,4.3l-9.3,3.5l-18.9,1.8l-4.7-4.9
		l-0.7-4.1l-1.8-4.1l-0.2-3.2l-0.7-2.9v-2.6l-0.5-2.9l-4.2-3.2l-8.7-4.1l-9.6-2l-7.3-5.5l-4.7-8.1l-11.9-35.8l-4.7-4.3l-9.1-2.3
		l-3.8-3.8l0.2-5.9l1.6-4.9l2.6-4.9l1.1-4.7l-3.6-3.5l-4.9-2.6h-23.6l-4.4-3.2l-2.6-3.2l-1.8-6.9l0.5-13.1l0.7-7.3l1.6-6.4l-0.5-5.3
		l2.9-2l0.7-2.9v-4.3l1.6-9.6l4.9-10.2l1.6-5.3l4.4-10.4l29-27.7l122.5-96.6l294.2-25.6l18.9,7.5l2.6,7.9l-27.2,48l-9.3,12.2
		l-4.7,12l-2,8.4l-0.2,6.1l-6,20.6l-0.5,6.7v6.1l5.2,6.1l8.7,13.1v7.3l-3.1,6.9l-33.9,32.6l-4.9,6.7l1.6,6.1l23.4,18.6l14.7,16.3
		l15.8,12l16.3,6.4l21.4,3.8l15.3,0.2l5.2,2.3l5.4,3.2l4.2,5.5l4.2,9.6l2,7.3l5.2,7.9l2.9,6.4l10.3,12l15.3,8.4l14,1.4l16.1-0.6
		l17.6,5.3l19.2,10.2l4.7,5.9l3.1,5.3l1.8,4.9l0.5,4.1l1.3,3.8l5.8,12l1.6,4.7L1301.2,792L1301.2,792z"/>
	<path id="YEM337" class="st0" d="M811.8,421.5L689.3,518l-29,27.7l-4.4,10.4l-1.6,5.3l-4.9,10.2l-1.6,9.6v4.3l-0.7,2.9l-2.9,2
		l0.5,5.3l-1.6,6.4l-0.7,7.3l-0.5,13.1l1.8,6.9l2.6,3.2l4.4,3.2l-1.3,7.9l-1.6,2l-3.1,1.8l-2-1.4l-2.6-4.1l-2-0.6l-1.8,2.6l-0.2,3.5
		l3.6,7.5v4.3l-3.4,1.4l-4.7-0.8l-5.4-1.8l-7.3,0.6l-6.9,3.8l-6,2.3l-3.8,0.6l-1.8,2.3l1.1,2.6l-1.6,2.6l-8.5-2.3l-3.6,1.4l-2.3,3.2
		l-8,6.7h-6.7l-4.2-2.6l-2.6-4.7l-1.8-5.3l-0.5-5.3l-1.8-5.5l-0.2-7.9l-2-8.1l-1.8-12.5V623l-1.1-6.4l-4.2-5.3l-5.8-3.5l-11.1-2.6
		l0.2-14.5l1.1-3.8v-4.7l-2.9-3.2l0.5-2l2.3-2.9l1.6-4.7l2.6-5.5l4.7-5.5l2.9-6.9l1.1-3.5l3.4-2.9l10.3-5.3l3.1-5.9l2.3-7.5
		l-0.7-5.9l0.7-4.7v-5.3l-2.3-8.4l-3.8-4.7l-6.5-3.2l-9.3-1.2l-7.5-2l-5.2-5.5l-6.9-8.4l-9.1-8.1l-3.8-1.2l-3.1-0.8l-4.4,2.9
		l-2.3,4.3l-2.6,5.9l-7.3,2.3l-6.7-2.9l-7.3-9.6l-6.9-6.7l-4.9-2l-4.7-0.6l-3.1-1.4l-1.1-3.8l4.4-4.7l24.6-19.2l5.8-6.9l4.2-9.3
		l-4.4-8.1l-13.8-19.5l-3.1-11v-16.9l-3.6-22.6l-10.1-23.2l70.2,18.6l50.4,30l44,7.9l23.8-2.3l27-26.1l62.9-25l174.6-36.5
		L811.8,421.5L811.8,421.5z"/>
	<path id="YEM3496" class="st0" d="M461.3,313.9l10.1,23.2l3.6,22.6v16.9l3.1,11l13.8,19.5l4.4,8.1l-4.2,9.3l-5.8,6.9l-24.6,19.2
		l-4.4,4.7l1.1,3.8l3.1,1.4l4.7,0.6l4.9,2l6.9,6.7l7.3,9.6l6.7,2.9l7.3-2.3l2.6-5.9l2.3-4.3l4.4-2.9l3.1,0.8l3.8,1.2l9.1,8.1
		l6.9,8.4l5.2,5.5l7.5,2l9.3,1.2l6.5,3.2l3.8,4.7l2.3,8.4v5.3l-0.7,4.7l0.7,5.9l-2.3,7.5l-3.1,5.9l-10.3,5.3l-3.4,2.9l-1.1,3.5
		l-2.9,6.9l-4.7,5.5l-2.6,5.5l-1.6,4.7l-2.3,2.9l-0.5,2l2.9,3.2v4.7l-1.1,3.8l-0.2,14.5l-8.7,8.4l-8.7,4.1l-11.1,1.8l-0.2-8.4
		l-2-5.5l-8.3-13.1l-3.8-9l-3.1-16.3l-6-9.9l-4.7-3.5l-5.4-0.6l-5.2,0.6l-5.4-0.6l-4.4,0.6l-4.9,3.8l-3.6,6.1l-4.7,6.4l-4.4,2.6
		l-8.5,3.8l-5.8-0.6l-5.4-4.1l-3.6-5.3l-5.2-0.8l-1.8,3.8l-1.1,4.7l-2.9,4.3l-6.2,2.3l-16.1-3.8l-4.9-4.7l-4.2-5.3l-5.8-2.3
		l-3.6-2.9l-5.8,0.2l-6.7,1.4l-7.3,2.9l-11.4,9.3l-4.9,3.2l-4.2,2.9l-3.8,2.6l-7.3,7.5l-4.7,1.4l-8,0.8l-9.8-1.2l-3.1,3.2l-8.7-2.9
		l-0.7-2.6l-10.9-1.8l-1.6-7.3l-3.4-5.5l3.4-5.9l1.3-1.2v-2.6l-5.2-5.3l-4.2,0.6h-3.8l-5.8-1.4l-6.5-4.1l-6.9-7.3l5.4-9.9l2.6-2.6
		l2-5.9l-0.7-12l1.6-6.4l3.6-5.3l12.9-9l2.3-2.6l14-3.2l7.8-9l14.7-12l4.4-2.3l8.3-6.4l3.6-4.3l1.1-10.4l2.6-10.8l2.3-6.1l-0.2-3.8
		l2.9-3.5l8,0.8l6.7-1.2l6-3.2l12.7-11.4l2.3-10.2l0.2-11l3.8-6.4l6-4.9l4.4-6.9l1.1-4.7l0.2-5.3l-1.6-4.7l-1.3-6.7l-1.1-13.4
		l1.8-6.4l2-5.5l12.2-7.3l12.2-5.3l11.4-0.8l11.6-2.9l1.8-2l4.2-2l17.9,1.4L461.3,313.9L461.3,313.9z M406.4,424.6l-1.6-2.3
		l-3.6-2.6l-4.4-5.3l-6.7-3.2l-2.9,0.2l-4.9,2.3l-2.6,3.2l-2.6,4.3h-2.9l-1.8,0.8l-1.6,2l-3.8,1.4l-1.8,2.6l-0.2,6.4l0.2,2.6l-2,0.2
		l-0.7,2l-1.6,2.3l-2.6,0.6l-1.3,1.8l-8.3,2.6l-0.2,2l1.1,2.9l1.8,1.8l3.6,2.3l2.9,3.8l0.2,2.6l-3.1,1.2l-1.6,2l-1.1,4.9l0.7,4.1
		l7.3,5.5l0.7,2.3l-0.7,5.3l0.7,1.2h9.8l1.8-0.2l-0.2-3.5l0.7-1.4l2-0.2l1.8-1.2l0.7-2v-4.7l-1.1-3.2l-1.3,0.2l-1.3-1.2l-0.7-5.3
		l-1.6-3.2l-0.2-2.3l0.5-2.6l-0.2-2l1.1-2.3l2.9-3.2l5.8-4.7l0.5-2.3l-1.1-5.5l1.3-2.3l1.6-2.3l1.3,2.3l1.3-2.3l6.5,0.6l0.7-1.8
		v-2.6l0.7-2.3l2.6-2.3l2.3,0.6l-0.7,3.8l1.6,1.2l3.4-0.2l1.8-1.4l1.3-2L406.4,424.6L406.4,424.6z"/>
	<path id="YEM3497" class="st0" d="M2266.5,1255.9l0.5,1.8l-9.8-0.8l-3.1-1.4l4.2-1.8l3.8,0.2L2266.5,1255.9z M2210.3,1241.2
		l2.9,1.4h3.4l2.9,2.3l1.1,3.8l-0.2,3.5l-3.1,0.8l-3.1,0.6l-6.2-2.6l-4.2-4.1l-4.4-1.4l0.5-2.3l3.4-1.2l2.6,0.2l2.3-0.8
		L2210.3,1241.2L2210.3,1241.2z M2030.8,1233l4.4,2l3.4-0.2l6.2,1.2l9.1,0.2l6.2,3.2l11.4-3.2l3.1,0.8l1.3,2.3l-2.9,1.2l-2,2.6
		l1.6,1.4l2,4.1l-6-1.2l-6.2,1.8l-9.6-2l-9.3-0.6l-3.4-5.5h-2.6l-4.4,1.4l-2.3,0.2l-0.7-0.8l-2.9-4.9l-1.1,0.2l-4.2-2l-5.2,1.4l-2-2
		l-6.9-3.5l-1.1-3.2l3.1-1.2l3.1-0.6l5.2,0.2l6.2,1.4L2030.8,1233L2030.8,1233z M2322,1115.5l6.7,0.8l10.1-1.2l8.3,8.4l14.3,12
		l17.4,5.3l4.4-6.1l2-5.9l5.8-1.2l3.8,0.6l3.6,1.8l6.9-0.8l7.3,0.2l7.8-5.3l2.6-0.8l5.2-3.8l2-2.9l5.8-0.6l2.6,2.9l3.1,2.6l4.4,3.2
		l3.1-0.8l2.6-1.8l1.1,0.6l3.8,4.9h3.8l4.7,1.2l2,3.8l3.1,1.4l7.3,3.5l8.5,2l8.5,5.5l4.4,1.4l10.1,7.3l5.4-0.8l3.8-2.6l2.3,0.2
		l2.9,1.8l-2.6,2.9l-6.2,2l-4.4,1.4l-4.2,0.8l-2,2l-0.5,6.4l-8.7,4.1l-6.9,2l-8.5,3.8l-9.3-0.8l-7.8,3.2l-1.8,2l-3.8,6.1l-1.8,1.4
		l-5.4,2.6l-6.2,5.5l-2.9,2l-6.2-0.6l-9.8,0.8l-3.4-0.6l-3.6,0.8l-4.7,4.7l-8-2.9l-6.2,1.8l-9.1,1.4l-25.2,5.5l-9.3,1.2l-12.2-1.4
		l-11.4-3.8l-9.6-2.9l-4.4-4.9l-6.7-9.3l-2.9-5.5l-5.4-2l-8.7-6.4l-21.4-15.5l-5.2-5.3l-0.5-1.4l1.8-1.4l5.8,1.8l4.2-0.6l5.4-3.8
		l0.5-2l2.3-6.9l-1.3-14l3.1-1.4l3.4-0.8l8.7-1.4l4.4-7.3l1.8-2.3l4.2-0.6L2322,1115.5L2322,1115.5z M1743.9,536.6L1714,546
		l-22.5,2.6l-19.7,9l-5.8,3.8l-15.6,15.1l-3.1,2l-8.5,1.8l-12.2,7.3l-13.4,10.8l-3.1,0.2l-3.8-1.8l-5.2,1.2l-8.7,4.7l-3.8,1.2
		l-3.8,0.6l-1.3-4.9l-1.3-2.9l-1.8,0.2l-3.1,1.2l-13.2,1.4l-30.1,11.4l-46.1,13.1l-24.6,15.7l-8.7,4.1l-9.3,1.4l-4.4,2.6l-8.3,6.4
		l-17.4,9.3l-8,6.4l-1.8,7.9l-2-0.6l-3.1-1.8l-4.2-1.8l-4.9,0.6l-4.4,2.6l-3.1,3.2l-10.3,16.9l-3.8,8.7l-1.8,9.9l1.6,1.4v2.6
		l-1.1,4.3l-2.3,2l-8.7,3.8l-1.8,1.8l-1.1,5.9l-3.1,2l-3.6,0.8l-3.6,1.8l-1.3,3.8v5.5l-0.7,1.4l-2.9,2.9l-2.3,6.7l-3.4,2.6l-8,3.8
		l-12.5,17.5l-3.8,2.6l-1.1,0.6l-2.6,2l-2.6,0.8l-3.6-0.2l-0.5-5.3l-1.6-4.7l-5.8-12l-1.3-3.8l-0.5-4.1l-1.8-4.9l-3.1-5.3l-4.7-5.9
		l-19.2-10.2l-17.6-5.3l-16.1,0.6l-14-1.4l-15.3-8.4l-10.3-12l-2.9-6.4l-5.2-7.9l-2-7.3l-4.2-9.6l-4.2-5.5l-5.4-3.2l-5.2-2.3
		l-15.3-0.2l-21.4-3.8l-16.3-6.4l-15.8-12l-15-16.5l-23.4-18.6l-1.6-6.1l4.9-6.7l33.9-32.6l3.1-6.9v-7.3l-8.7-13.1l-5.2-6.1v-6.1
		l0.5-6.7l6-20.6l0.2-6.1l2-8.4l4.7-12l9.3-12.2l27.2-48l-2.6-7.9l-18.9-7.5l-294.2,25.6l102.8-141.4l43-47.7l-8.5-147.7l27.4,1.2
		l6.7-0.8l6.2-2.9l49.5-32.6l6.2-9.6l23.8-74.2l3.6-7.5l51.5-72.7l33-46.5l18.9-26.7l16.3-23l4.7-3.8l62.7-36.1l75.6-44l39.4-22.6
		l19.4-8.1l27-4.3l267.6-42.8l33.4-5.3l33.4-5.5l233.7-37.3l1.6,4.1l-57,94.8l-35.9,102.1l-12.7,73.9l-19.7,70.1l-25.9,64.5
		l-27.2,45.4l-83.9,78.2l-16.1,21.6l-16.8,12.8l-36.8,17.1l-8.7,6.1l-4.9,4.7l-4.4,6.4l-3.6,9.6l0.2,5.5l2.3,5.3l1.8,8.7l-16.3,70.9
		l-0.5,9l3.4,4.7l2.9,3.5l4.7,2.9l2.3,6.4l1.3,8.4l-8,25l-3.6,6.9l-3.4,4.3l-1.8,8.4v6.1l-2,6.9l0.2,6.7l0.7,5.9l0.2,4.3l-2,5.3
		l-1.6,6.1l-1.8,9.6l2,8.4l3.6,5.5l6.5,2.3l6,0.6l8.7,2.9l2,2.3l1.3,4.7l-1.1,9.9l-2.3,3.8l-3.4,2.9l-3.8,7.9l-3.1,4.3l-2.6,4.3
		l-0.5,4.1l0.2,4.7l1.3,4.1l3.1,4.1l13.2,5.3l10.3,0.2l16.1-1.8l5.4-1.4l4.7-2l14-0.8l14,4.1l11.4,2l4.7,2.6l3.8,6.1l1.8,4.7
		l2.3,4.7l1.6,6.1l2.3,4.3l1.6,4.3l1.8,3.5l0.2,4.7L1743.9,536.6L1743.9,536.6z"/>
	<path id="YEM3498" class="st0" d="M406.4,424.6l0.2,2l-1.3,2l-1.8,1.4l-3.4,0.2l-1.6-1.2l0.7-3.8l-2.3-0.6l-2.6,2.3l-0.7,2.3v2.6
		l-0.7,1.8l-6.5-0.6l-1.3,2.3l-1.3-2.3l-1.6,2.3l-1.3,2.3l1.1,5.5l-0.5,2.3l-5.8,4.7l-2.9,3.2l-1.1,2.3l0.2,2l-0.5,2.6l0.2,2.3
		l1.6,3.2l0.7,5.3l1.3,1.2l1.3-0.2l1.1,3.2v4.7l-0.7,2l-1.8,1.2l-2,0.2l-0.7,1.4l0.2,3.5l-1.8,0.2h-9.8l-0.7-1.2l0.7-5.3l-1-1.9
		l-7.3-5.5l-0.7-4.1l1.1-4.9l1.6-2l3.1-1.2l-0.2-2.6l-2.9-3.8l-3.6-2.3l-1.8-1.8l-1.1-2.9l0.2-2l8.3-2.6l1.3-1.8l2.6-0.6l1.6-2.3
		l0.7-2l2-0.2l-0.2-2.6l0.2-6.4l1.8-2.6l3.8-1.4l1.6-2l1.8-0.8h2.9l2.6-4.3l2.6-3.2l4.9-2.3l2.9-0.2l6.7,3.2l4.4,5.3l3.6,2.6
		L406.4,424.6L406.4,424.6z"/>
	<path id="YEM3499" class="st0" d="M261.2,576.5l3.4,5.5l1.6,7.3l10.9,1.8l0.7,2.6l8.7,2.9l0.2,4.3l2.3,8.4l4.9,7.5l13.8,17.1
		l4.2,7.5l2.3,6.4l3.4,5.3l1.8,4.3l-1.8,5.9l-6.2,9.3l-3.6,3.2l-3.6,4.1l-13.2,9l-3.1,2.6l-3.4,1.2l-5.4,0.8l-3.1-0.2l-4.7-2
		l-6.2,0.2l-3.6,1.8l-2,3.2l-7.3,6.9l-12.5,7.9l-3.6,0.2l-4.9,0.2l7.5-10.2l0.5-4.3v-6.5l-0.7-2.9l-2.6-6.1l-0.7-3.8l-8-24.4
		l-0.7-4.7l0.7-4.1l-0.7-7.9l0.5-4.3l2.6-3.5l1.1-3.8l-2.9-18.1L231,597l3.8-6.4l3.8-3.8l6.2-7.3l1.6-3.5l2.3,0.2l6.5,2.9l3.1-0.6
		L261.2,576.5L261.2,576.5z"/>
	<path id="YEM3510" class="st0" d="M409.8,1122.8l14.5-25.3l9.3-6.1l18.9-7.9l43.3-8.1l38.1-11.6l17.6-1.4l-1.3,4.1l-0.7,4.9
		l-4.9,14.5l-0.5,2.3l1.1,9.6l-0.7,3.5l-3.8,1.4l-4.7-0.8l-4.7-2.3l-3.1-2.9l0.2-3.8l3.4-1.4l4.2,0.6l3.8-0.6l1.3-4.1l-0.7-0.2
		l-3.1-4.7l-0.7-2l0.5-1.8h-2.6v2.3l-1.8,3.2l-1.6,0.2l-3.4-1.4l-4.7,0.2l-2,0.8l-2.6,5.3l-3.4,2.9l-3.8,0.8l-2.9-3.5l-2.6,1.8
		l-1.1,2l1.1,6.1l2.9-2l6.5,0.8l0.7,0.8l-0.2,2.9l-1.3,2.6l-3.1,2.6l-3.4,1.8l-2.9-0.6l-6-2.6l-1.9-1.2l-1.3-1.8l-0.5-2l-2.6-1.2
		l-5.2-0.6l-4.2,1.4l-7.8,5.9l-1.6-3.5l1.1-2.3l-1.3-3.5l-2.6-3.2l-2.8-2.4l-8.5-3.5l-8.7-0.2l-7.8,1.8l-6.2,3.5l-11.1,10.4
		l-11.9,14.5l-1.8,4.3L409.8,1122.8L409.8,1122.8z"/>
	<path id="YEM3511" class="st0" d="M1017.4,891.5l-33,11.4l-53.3,12.5l-18.1,14l-25.9,11l-3.6,0.6l-4.2-0.6l-7.3-2.6h-4.9l-4.4,1.4
		l-9.1,4.3l-4.4,0.8h-43l-9.3-1.8l-4.4-2.9l-2.9-0.8l-2,1.8l-5.8,2l-17.9,3.2l-35.7,1.8l-3.6,1.2l-6.7,3.2l-3.1,0.6l-8.7-0.6
		l-3.8,0.6l-2.3,1.8l-28.8,7.3l-6.9,4.1l-20.2,23.2l-5.8,4.9l-3.1,3.2l-2.6,9l-9.8,14.3l-6.5,6.7l-7.8,4.1l-35.9,9.9l-8.3,4.9
		l-7.5,7.3l-2.9,4.1l-1.1,2l6.7-54.6l13.8-42.8l10.1-7.9l1.8-5.3l-0.2-2.9l-2.6-2.9l-3.1-2l-2.9-3.8l-0.7-6.9l0.5-9.6l5.8-9.9
		l11.6-14.9l2-3.2l-1.1-2.3l-3.6-1.8l-10.7-0.6l-3.1-1.8v-3.2l8-5.5l3.8-3.5l0.5-3.5v-4.1l-0.7-3.8l1.6-3.8l2.6-2.9l7.8-2l6-3.8
		l0.7-3.8l-0.7-4.9l0.7-7.5l1.6-3.8l7.8-2.3l2.3,1.2l29,3.2l6.5,2.3l3.1,6.7l7.5,4.3h4.2l4.4-0.6l5.8-1.4l6.5-3.2l8.5-5.9l35.7-29.7
		l7.8-7.9l3.4-11.4l5.8-9l3.1-20.4l18.9-1.8l9.3-3.5l8-4.3l6.2-5.3l18.3-7.5l6.5-3.8l6.2-0.6l4.9,6.7l2.9,9l7.3,14.9l1.3,6.7
		l3.6,5.9l24.3-4.7l16.5-8.1l21.1-6.1l15.8-2.3l15,2l13.4,5.5l14,3.5l28.8,1.8l7.5,5.5l2.9,10.2l-0.2,10.8l1.1,7.9l-2.6,6.1
		l-2.9,4.3l-2,5.9l10.9,25.9l6.5,23.2l0.2,9.3l1.6,6.1L1017.4,891.5L1017.4,891.5z"/>
	<path id="_x30_" class="st0" d="M459.7,469.4L459.7,469.4L459.7,469.4z"/>
	<path id="_x31_" class="st0" d="M486.7,320L486.7,320L486.7,320z"/>
	<path id="_x32_" class="st0" d="M163.5,35.8L163.5,35.8L163.5,35.8z"/>
</g>
<path class="st1" d="M295.1,329c-3.7,0-6.7,3-6.7,6.7c0,3.1,4.9,8.8,6.3,10.4c0.2,0.2,0.6,0.2,0.8,0c1.4-1.6,6.3-7.3,6.3-10.4
	C301.7,332,298.8,329,295.1,329z M295.1,338.7c-1.8,0-3.3-1.5-3.3-3.3c0-1.8,1.5-3.3,3.3-3.3c1.8,0,3.3,1.5,3.3,3.3
	C298.4,337.2,296.9,338.7,295.1,338.7z"/>
<path class="st1" d="M845.1,416.9c-3.7,0-6.7,3-6.7,6.7c0,3.1,4.9,8.8,6.3,10.4c0.2,0.2,0.6,0.2,0.8,0c1.4-1.6,6.3-7.3,6.3-10.4
	C851.8,419.9,848.8,416.9,845.1,416.9z M845.1,426.5c-1.8,0-3.3-1.5-3.3-3.3c0-1.8,1.5-3.3,3.3-3.3c1.8,0,3.3,1.5,3.3,3.3
	C848.4,425,846.9,426.5,845.1,426.5z"/>
<path class="st1" d="M215.7,402.6c-3.7,0-6.7,3-6.7,6.7c0,3.1,4.9,8.8,6.3,10.4c0.2,0.2,0.6,0.2,0.8,0c1.4-1.6,6.3-7.3,6.3-10.4
	C222.4,405.6,219.4,402.6,215.7,402.6z M215.7,412.3c-1.8,0-3.3-1.5-3.3-3.3c0-1.8,1.5-3.3,3.3-3.3c1.8,0,3.3,1.5,3.3,3.3
	C219,410.8,217.6,412.3,215.7,412.3z"/>
<path class="st1" d="M261.4,411.3c-3.7,0-6.7,3-6.7,6.7c0,3.1,4.9,8.8,6.3,10.4c0.2,0.2,0.6,0.2,0.8,0c1.4-1.6,6.3-7.3,6.3-10.4
	C268.1,414.3,265.1,411.3,261.4,411.3z M261.4,420.9c-1.8,0-3.3-1.5-3.3-3.3c0-1.8,1.5-3.3,3.3-3.3c1.8,0,3.3,1.5,3.3,3.3
	C264.7,419.5,263.3,420.9,261.4,420.9z"/>
<path class="st1" d="M334.7,281.3c-3.7,0-6.7,3-6.7,6.7c0,3.1,4.9,8.8,6.3,10.4c0.2,0.2,0.6,0.2,0.8,0c1.4-1.6,6.3-7.3,6.3-10.4
	C341.3,284.2,338.3,281.3,334.7,281.3z M334.7,290.9c-1.8,0-3.3-1.5-3.3-3.3c0-1.8,1.5-3.3,3.3-3.3c1.8,0,3.3,1.5,3.3,3.3
	C338,289.4,336.5,290.9,334.7,290.9z"/>
<path class="st1" d="M189.2,180c-3.7,0-6.7,3-6.7,6.7c0,3.1,4.9,8.8,6.3,10.4c0.2,0.2,0.6,0.2,0.8,0c1.4-1.6,6.3-7.3,6.3-10.4
	C195.9,183,192.9,180,189.2,180z M189.2,189.6c-1.8,0-3.3-1.5-3.3-3.3c0-1.8,1.5-3.3,3.3-3.3c1.8,0,3.3,1.5,3.3,3.3
	C192.5,188.2,191,189.6,189.2,189.6z"/>
<path class="st1" d="M209.1,320.4c-3.7,0-6.7,3-6.7,6.7c0,3.1,4.9,8.8,6.3,10.4c0.2,0.2,0.6,0.2,0.8,0c1.4-1.6,6.3-7.3,6.3-10.4
	C215.7,323.4,212.8,320.4,209.1,320.4z M209.1,330c-1.8,0-3.3-1.5-3.3-3.3c0-1.8,1.5-3.3,3.3-3.3c1.8,0,3.3,1.5,3.3,3.3
	C212.4,328.6,210.9,330,209.1,330z"/>
<path class="st1" d="M278.3,199.1c-3.7,0-6.7,3-6.7,6.7c0,3.1,4.9,8.8,6.3,10.4c0.2,0.2,0.6,0.2,0.8,0c1.4-1.6,6.3-7.3,6.3-10.4
	C285,202.1,282,199.1,278.3,199.1z M278.3,208.7c-1.8,0-3.3-1.5-3.3-3.3c0-1.8,1.5-3.3,3.3-3.3c1.8,0,3.3,1.5,3.3,3.3
	C281.6,207.3,280.2,208.7,278.3,208.7z"/>
<path class="st1" d="M298.4,389.3c-3.7,0-6.7,3-6.7,6.7c0,3.1,4.9,8.8,6.3,10.4c0.2,0.2,0.6,0.2,0.8,0c1.4-1.6,6.3-7.3,6.3-10.4
	C305,392.3,302.1,389.3,298.4,389.3z M298.4,398.9c-1.8,0-3.3-1.5-3.3-3.3c0-1.8,1.5-3.3,3.3-3.3c1.8,0,3.3,1.5,3.3,3.3
	C301.7,397.5,300.2,398.9,298.4,398.9z"/>
</svg>
