<?xml version="1.0" encoding="utf-8"?>
<!-- Generator: Adobe Illustrator 24.0.1, SVG Export Plug-In . SVG Version: 6.00 Build 0)  -->
<svg version="1.1" id="Layer_1" xmlns="http://www.w3.org/2000/svg" xmlns:xlink="http://www.w3.org/1999/xlink" x="0px" y="0px"
	 viewBox="0 0 1000 579" style="enable-background:new 0 0 1000 579;" xml:space="preserve">
<style type="text/css">
	.st0{fill:#37517E;stroke:#E4EBF4;stroke-miterlimit:10;}
</style>
<g>
	<path id="YEM99" class="st0" d="M130.4,320.7l-0.4,0.5l-1.1-1.6l-0.1-0.6l1.2-1.3l0.6,0.7v0.9l0.2,1.1L130.4,320.7L130.4,320.7z
		 M148.4,272.7v0.5l-0.5,0.5l-3.9-0.5l-1.3,0.2l-0.5-0.2l0.1-1.2l-0.3-1.1l0.3-0.4h0.4l2.6,1.5l0.1,0.2L148.4,272.7L148.4,272.7z"/>
	<path id="YEM150" class="st0" d="M300.6,149.9l-1.4,22.9l-5.1,2.9l-3.6-0.4l-3.9,0.1l-4.1,1l-3.4,1.4l-8,4.6l-1.1,1.3l-2.4,3.9
		l-0.8,0.8l-1.1,2.2l-0.6,0.6l-0.9,0.2l-1.1,1.4l-2.5,1.9l-0.9,0.4l-0.5,0.4l-1.5,0.7l-1.4,1.2l-0.8,1.3l-1.2,2.6l-0.8,3.6l-0.9,2.5
		l-4.3,1.4l-2.6-0.1L243,208l-6.2-2.9l-4.3-1.3h-2.4l-1.6,0.6l-0.8,0.7l-1.8,1l-1.2,0.6l-7.9,2.1l-6.8-0.7l-4.6,0.4l-1.3-0.2
		l-1.1-0.7l-10.3-3.4l-1.2-0.8l-0.4-1.7l-0.5-1.1l-0.1-0.9l0.9-1.5l1.5-1.1l0.3-0.8l-0.1-0.8l-0.5-0.8L192,194l-2.3-0.8l-0.7-0.6
		l-0.8-2.6l-1.3-2.8l-0.2-1.2l0.4-1.8l1-2.8l0.3-1.4v-1.5l-0.4-1.6l-0.5-1.2l-0.2-1.2l0.3-1.4l1.3-2.8l0.4-1.5l-0.1-1.6l0.4-1.4
		l1.3-1.1l1.6-0.8l1.4-0.4l1.4-0.8l0.1-1.4l-0.6-1.6l-1.2-1l-3.5-1.3l0.1-0.4l2.9-4.1l5.3-5.1l5.4-3.7l1.4-0.6l1.4-0.2l1.1,0.4
		l2.1,0.1l1,0.2l4.5,2.2l2.6,1.8l4.3,5.4l2.5,2.3l1.2,0.4h1.1l2.3-0.2l2.4,0.2l1.1-0.1l1.4-0.4l0.4,0.2v0.8l-0.1,1.4l0.4,0.9
		l1.1,0.4l1.4-0.2l0.9-1.1l0.8-1.4l0.9-1.2l1.3-0.8l1.1,0.1l2.3,1.4l1.6,0.2l1.1-0.6l1-1.3l0.8-1.8l0.9-0.8l1.3,0.2l2.6,0.8l1.1-0.1
		l4.7-1.2l5.9-0.7l3.7,0.1l4.2,1l1.8-0.1l3.9-1.7l1.3-0.4L300.6,149.9L300.6,149.9z"/>
	<path id="YEM151" class="st0" d="M161.1,418.3l-0.1-1l0.5-1.4l1.6-3l2.6-2.1l1.3-0.5l0.8,0.7l-0.2,1.4l-1.8,2.2l-0.5,1.5l-0.6,0.7
		L161.1,418.3L161.1,418.3z M167.3,399.8l-0.5,0.4h-1.7l0.8-2l-1.3-0.5l-1.5-0.9l-1.3-1.3l-0.5-1.8l0.5-1.1l1.2-1.3l1.4-0.9l1-0.4
		l0.5-0.5l1.7,2.5l0.4,0.9v0.8l-0.8,2.6l-0.1,2.2L167.3,399.8z M154.6,295.8l0.7,0.2l0.8-0.2l0.8-0.5l0.5,0.1v0.8l-0.7,2.7l-0.1,0.9
		l0.1,0.6l-0.1,0.6l0.1,0.8l-1.2,2l-0.8,0.8l-0.8-0.1l-0.7-0.6l-0.7-1.2v-1.6l0.6-1.7l0.2-3.6l0.7-1.3l1.4-1.4l0.5-1.1l1.4-0.8
		l0.5,0.2l0.3,0.7l-1.6,1.1l-0.2,0.5l0.3,0.4l-0.2,0.4l-0.5,0.5l-0.9,0.5L154.6,295.8L154.6,295.8z M199.3,287.4l0.1,3l0.3,0.8
		l0.1,1.5l0.3,1.2l0.1,2l-0.2,2.4l0.3,1.6l0.1,2l1.7,2.8l1.4,1.1l1.5,1.5l2.5,0.8l0.6,1.3l0.7,2l1.2,2.4l0.7,2.1l0.9,1.5l1.9,2.1
		l1.5,0.9l2,2.1l1.9,1.2l1.7,0.4h1.1l1.2-0.2l1.4,1.5v0.8l-0.4,0.4l-1,1.7l-0.8,0.7l-0.9,0.2l-1.9-0.8l-0.7-0.1l-0.5,1l-1.8,2.1
		l-1.1,1.1l-1.1,1.9l-1,3l0.8,5.3l-0.3,1.1l-0.8,1l-0.1,1.3l0.2,2.3l-0.2,1.2l0.2,1.4l2.3,7.1l0.2,1.1l0.8,1.8l0.2,0.8v1.9l-0.1,1.3
		l-2.2,3l-1.2,0.1l-0.4,0.9l2,9.7v2.4l0.8,2.4l1.1,1l1.4,1l1.9,0.7l3.4,2.4l1.2,0.5l1-0.1l0.8-0.8l0.9-0.6l0.8-0.7l1-0.4l0.1,2
		l0.3,1.2l-0.4,2l-2.3,4.2l-1,0.7l-0.5-0.4l-1-0.4l-1.1,0.5l-0.2,0.9l0.8,1.3l0.5,0.8l0.1,1.1l-0.7-0.2L222,401l-5.1,0.9l-1.5,0.5
		l-2.2,1.1l-4.6,6.6l-0.6,1.4l-0.7,0.9l-1.4,0.2l-2.1,0.7l-1.8,0.8l-4.3,3.9l-0.2,0.1l0.1-1.5l-0.2-2.5l-2-4.4l-0.3-0.7l-0.6-5.9
		l-0.4-0.6l-4.1-4.8l-1.4-3.8l-1.3-3.2l-1.4-2.2l-0.7-5.4l-0.5-2.5l-0.6-2.1l-1.1-3.6l-1.8-6.6l-0.5-1.4l-0.3-2.2l-0.8-2l-0.2-2.2
		l-0.1-0.7l-0.4-0.4l-1.1-0.9l-0.3-0.4l0.1-0.8l0.3-0.4l0.5,0.2l0.6,0.5l0.6,1.4l0.8,3.2l0.9,0.9l0.1-2.1l-0.1-0.9l-0.4-0.8l0.9-2.9
		l-0.7-2.4l-1.1-2.1l-0.7-2.3l0.1-0.5l0.5-0.8l0.1-0.8l-0.3-0.4l-0.3-0.8l-0.8-0.6l-0.9-1.4l-0.5-2.4l-0.1-0.8l-0.6-2.6l-2.9-4.1
		l-0.7-2.6l-0.1-1.4l0.1-0.8l0.5,0.1l0.3,0.6l-0.3,1v0.8l0.5,1.4l0.8,1.4l1,1.3l1.1,0.8l0.1-1l0.4-2.4v-1.4l-0.7-2.6l-0.2-2.4
		l-0.4-0.8l-0.5-0.8l-1.6-1.7l-0.7-0.9l-0.4-1.2l-0.2-1.6l0.3-3.8l-0.3-1.3l-0.8-1.2l-2.2-1.1l-2-1.9l-1.2-0.9l-1.4-0.8l-1.3-0.5
		l-1.4-0.4h-1.2l-0.8,0.6l-0.4,1.4l-0.7,0.2L158,310l-1.2-1.2l-0.1-1.6l-0.4-0.9l0.7-0.1l2,0.5l1.1-0.2l0.6-0.5l0.4-0.8l0.2-0.9
		l-0.1-0.8l-0.6-1l-0.1-0.9l1.6-3.3l0.5-0.8l0.4,0.9l-0.2,1.1l-0.4,1.1l-0.5,0.8l1.1,0.6l0.9,0.6l2.5,2.4l0.3,0.5l0.1,0.9l-0.1,1.4
		l0.1,0.4l0.8,0.4v-0.9l-0.5-0.5l0.9-1.1l0.4-1.6l-0.1-5.4l-0.5-2.5l-1-2l-0.2-1v-0.8l0.2-1.6l-0.2-1.6l-0.2-0.9l-0.8-1.7l-2.5-3.8
		l0.1-0.6l0.7-0.9l-1.1-1.5l-0.4-1l-0.1-1.2l0.6-2.6l-0.1-1l-1.3-0.5l0.5-1.1l0.6-0.6l0.7-0.5l0.8-0.8l0.5-0.7l0.2-0.7l0.1-1.9
		l0.4-2l0.8-1.4l1.1-1l1.1-0.8l1.1-1l0.6-1.3l0.3-1.5l9.9,6.7l4.1-0.7l2.7,0.2l1.3-0.8l0.9-0.8l2.3-0.6l6.3-0.6l1.6,1.4l0.8,2
		l-0.1,2.3l-0.4,1.8l-0.4,1.2l-0.5,1v1.3l0.8,2.4l-0.5,4.1l-0.3,0.8l-0.1,0.9L199.3,287.4L199.3,287.4z"/>
	<path id="YEM152" class="st0" d="M240.2,287.7l-0.8,3.2l-0.3,3l-1.1,1.3l-2.4,1.9l-1.3,0.7l-4.3,3.5l-2.3,2.6l-4.1,0.9l-0.7,0.8
		l-3.8,2.6l-1.1,1.5l-0.5,1.9l0.2,3.5l-0.6,1.7l-0.8,0.8l-1.6,2.9l-1.5-0.9l-1.9-2.1l-0.9-1.5l-0.7-2.1l-1.2-2.4l-0.7-2l-0.6-1.3
		l-2.5-0.8l-1.5-1.5l-1.4-1.1l-1.7-2.8l-0.1-2l-0.3-1.6l0.2-2.4l-0.1-2l-0.3-1.2l-0.1-1.5l-0.3-0.8l-0.1-3l3.4-1.4l10.8-1.2l1.3,0.2
		l1.3-0.1l5.5,0.7l1.7,0.6l1.4-0.2l1.1-0.4l3.2,0.1l2.7-1.2l1.1-0.9l1.1,0.2l0.8,0.4l0.5,0.8l1.1,0.8L240.2,287.7L240.2,287.7z"/>
	<path id="YEM153" class="st0" d="M294.2,341l-4.6,6.3l-1.5,7l-1.1,10l-1.5,3.4l-2,2.2l-2.3,1.3l-1.4,3.7l-1.2,0.6l-1.8-0.8
		l-3.5-1.4l-2.8-2l-1.4-0.7l-1.8-0.7l-1.4-0.9l-3-0.9l-1.4-0.7l-1.1-1.4l-2.7-2.5l-1-0.4l-0.8,0.2l-0.7,1.2l-0.1,0.9l-0.5,1.2
		l-0.7,1.2l-2.8,1.3l-1.6-0.4l-0.5-1l-0.8-3.6l-0.9-0.2l-1.1,0.5l-1.4,1.8l-1.7,1.5l-1.4,2h-1.4l-1,0.5l-0.5,0.7v1.2l0.5,1.1
		l0.1,1.6l-0.1,1.6l-1.6,3.4l-1.4,0.8l-1.7,0.4l-1-0.5l-0.2-1.3l0.2-1.5l-0.3-0.7l-0.5,0.1l-0.5,1.1l-1,1.6l-1,3l-0.8,1.4l-0.9,2.3
		l-1,0.4l-0.8,0.7l-0.9,0.6l-0.8,0.8l-1,0.1l-1.2-0.5l-3.4-2.4l-1.9-0.7l-1.4-1l-1.1-1l-0.8-2.4v-2.4l-2-9.7l0.4-0.9l1.2-0.1
		l1.4-0.1l1.1-0.1l3.6-2.3l2.1-2l0.6-0.9l1.1-0.5l1.8-0.1l1.4,0.6l0.9,0.1l1.6-0.2l1-0.4l0.9-0.8l3.9-2.6l1.1-1.2l1.1-0.9l1.8-2.7
		l0.5-1.7l-0.5-1.3l-1-1.5l-0.7-1.9l-1.2-2.2l-4-5l-1.4-2.2l-0.7-2.5l-0.1-1.3l0.9-0.9l2.9,0.4l2.3-0.2l1.4-0.4l2.1-2.2l1.1-0.8
		l1.2-0.8l1.4-0.9l3.3-2.7l2.1-0.8l2-0.4l1.7-0.1l1.1,0.8l1.7,0.7l1.2,1.5l1.4,1.4l4.7,1.1l1.8-0.7l0.8-1.3l0.3-1.4l0.5-1.1l1.5,0.2
		l1.1,1.5l1.6,1.2l1.7,0.2l2.5-1.1l1.3-0.8l1.4-1.9l1.1-1.8l1.4-1.1l1.3-0.2l1.6,0.2l1.5-0.2l1.6,0.2l1.4,1l1.8,2.9l0.9,4.8l1.1,2.6
		l2.4,3.8l0.6,1.6L294.2,341L294.2,341z"/>
	<path id="YEM154" class="st0" d="M216.8,208.9l-0.3,12.3l0.9,9.8l-0.1,1.2l-0.1,1.5l0.1,1.3l0.1,1v1.1l0.4,0.8l1.8,1.4l0.7,1.2
		l-0.1,2.1l0.2,1.8l0.1,1.6l2.4,5.5l-0.1,1l-0.5,0.8l-1.4,1.3l-0.6,1.5l0.8,0.8l0.7-0.2l2.3-3l0.6-0.2l0.6,0.4l0.8,0.8l1.5,2.8
		l0.6,2.7l0.4,2.8l-0.2,1.4l-0.2,2.6l0.4,1.8l0.1,1.4l1.1,1l0.4,0.7l-0.3,2.6l-0.5,2l-0.6,0.8l-1,0.2l-1.1-0.4l-1,0.1l-0.8,0.6
		l-0.5,0.6l-0.3,0.8l-0.2,0.9v0.9l0.8,1.7l-0.1,1l-1.2,2.6l-1.7-0.6L216,285l-1.3,0.1l-1.3-0.2l-10.8,1.2l-3.4,1.4l-0.9-6.2l0.1-0.9
		l0.3-0.8l0.5-4.1l-0.8-2.4v-1.3l0.5-1l0.4-1.2l0.4-1.8l0.1-2.3l-0.8-2l-1.6-1.4l-6.3,0.6l-2.3,0.6l-0.9,0.8l-1.3,0.8l-2.7-0.2
		l-4.1,0.7l-9.9-6.7l0.5-9.9l-0.2-3.2l-1.6-10.1l-0.2-5.4l-0.5-2v-0.9l-0.8-1.3l2.9-1.2l2.1-1l1.6-1.2l0.5-1.2l-0.2-2.2l0.2-0.9
		l0.7-0.4l2.3-0.5l0.9-0.4l2.7-1.8l1.3-1.1l0.8-1.2l1.6-4.7l0.3-1.4l0.1-1.5l0.3-1l0.8-0.4l1.5,0.4l2.4,0.8l1.1-0.2l0.4-1.4l1.2,0.8
		l10.3,3.4l1.1,0.7l1.3,0.2l4.6-0.4L216.8,208.9L216.8,208.9z"/>
	<path id="YEM155" class="st0" d="M252.7,207.3l3.2,2.4l1,0.5l3.5,3l0.9,1.1l0.4,1.2l-0.3,1l-0.6,0.8v1.3l0.9,2l0.5,2.6l0.5,1.9
		l0.8,1.7l0.2,1.6l-0.1,1.4l-0.3,1.3l0.3,0.9l0.4,0.7l0.1,1l-1.4,4.7l0.6,1.9l0.1,2.2l0.3,2l2,3.9l1.5,2l-3.3,0.2l-3.6,1.5l-3.6,2.1
		l-0.6,1.6l-0.5,1.9l0.3,3.9l0.4,2l0.5,1.4l-0.1,1.5l-0.3,1.4l-1.3,2l-1.8,1.4l-1.1,1.9l-0.1,3.2l-0.7,3l-3.7,3.3l-1.8,0.9l-2,0.4
		l-2.3-0.2l-0.8,1l0.1,1.1l-0.7,1.8l-3.8-2l-1.1-0.8l-0.5-0.8l-0.8-0.4l-1.1-0.2l-1.1,0.9l-2.7,1.2l-3.2-0.1l-1.1,0.4l-1.4,0.2
		l1.2-2.6l0.1-1l-0.8-1.7v-1l0.2-0.9l0.3-0.8l0.5-0.6l0.8-0.6l1-0.1l1.1,0.4l1-0.2l0.6-0.8l0.5-2l0.3-2.6l-0.4-0.7l-1.1-1l-0.1-1.4
		l-0.4-1.8l0.2-2.6l0.2-1.4l-0.4-2.8l-0.6-2.7l-1.5-2.8l-0.8-0.8l-0.6-0.4l-0.6,0.2l-2.3,3l-0.7,0.2l-0.8-0.8l0.6-1.5l1.4-1.3
		l0.5-0.8l0.1-1l-2.4-5.5l-0.1-1.6l-0.2-1.8l0.1-2.1l-0.7-1.2l-1.8-1.4l-0.4-0.8V236l-0.1-1l-0.1-1.3l0.1-1.5l0.1-1.2l-0.9-9.8
		l0.3-12.3l7.9-2.1l1.2-0.6l1.8-1l0.8-0.7l1.6-0.6h2.4l4.3,1.3l6.2,2.9l2.8,0.6l2.6,0.1L252.7,207.3L252.7,207.3z"/>
	<path id="YEM156" class="st0" d="M279.6,375l2,1.4l-0.1,4l0.6,1l0.7,0.2l2.1,1.4l-0.7,2.2l-0.9,0.8l-1.2-0.1l-1.3,0.2l-0.5,0.6
		l-0.1,0.9l-0.6,1.5l-1,1.1l-0.5,1.5l0.4,1.4l1.1,1.2l-0.6,1.3l-1.1,0.4h-1.2l-1.4,0.4l-1.6,0.7l-1.5,1.2l-1,1.8l-0.1,1.3l-0.5,2
		l-0.6,0.4l-0.7-0.1l-0.8,0.5l-0.9,2.9l-1,0.7l-0.5,1.3l0.1,0.4l-0.4,1.8l-0.6,1l-0.8,1.1l-2.3,1.8l-1.5,0.2l-1.3-0.5l-0.9-0.5
		l-1.2-0.5l-2.2-0.1l-4.6-1.6l-1.5-1l-3.1-0.4l-7-2.3l-0.5-0.9l0.3-0.8v-1.4l-0.9-0.4l-2.8,1.3l-0.5-0.8l0.1-1.3l-0.4-1l-2.9,0.4
		l-1.3,0.7l-1.5-0.5l-1.4,0.8l-3.6-0.2l-1.7-3.6l1.6-0.6l0.7,0.2l-0.1-1.1l-0.5-0.8l-0.8-1.3l0.2-0.9l1.1-0.5l1,0.4l0.5,0.4l1-0.7
		l2.3-4.2l0.4-2l-0.3-1.2l-0.1-2l0.9-2.3l0.8-1.4l1-3l1-1.6l0.5-1.1l0.5-0.1l0.3,0.7l-0.2,1.5l0.2,1.3l1,0.5l1.7-0.4l1.4-0.8
		l1.6-3.4l0.1-1.6l-0.1-1.6l-0.5-1.1v-1.2l0.5-0.7l1-0.5h1.4l1.4-2l1.7-1.5l1.4-1.8l1.1-0.5l0.9,0.2l0.8,3.6l0.5,1l1.6,0.4l2.8-1.3
		l0.7-1.2l0.5-1.2l0.1-0.9l0.7-1.2l0.8-0.2l1,0.4l2.7,2.5l1.1,1.4l1.4,0.7l3,0.9l1.4,0.9l1.8,0.7l1.4,0.7l2.8,2l3.5,1.4l1.8,0.8
		L279.6,375L279.6,375z"/>
	<path id="YEM157" class="st0" d="M327,401.9l-2.3,0.7l-0.5,1.1l-0.2,2.2l0.2,1.4l-0.2,1.1l-1.8,1.1l-2.3,0.6l-0.8,0.8l-0.5,1.1
		l0.2,1.1v1.2l-0.1,1l-1.1,1l-2.3,1.6v0.9l0.9,0.5l3.1,0.2l1.1,0.5l0.3,0.7l-0.6,0.9l-3.4,4.3l-1.7,2.9l-0.1,2.8l0.2,2l0.8,1.1
		l0.9,0.6l0.8,0.8l0.1,0.8l-0.5,1.5l-2.9,2.3l-4,12.5l-2,16l-0.4,0.8l-5.2,0.4l-11.1,3.4l-12.7,2.4l-5.5,2.3l-2.7,1.8l-4.2,7.4
		l-0.1-0.8l-0.3-0.1l-1.4,0.6l-1.8,0.5l-3.9,2.1l-1.4,0.2l-1.2-0.2h-1.2l-2.3,1.4h-1.4l-1.1-0.4l-0.8-1l0.8,0.1l1.5,0.4l0.8,0.1
		l0.5-0.5v-0.9l-0.5-0.6l-0.7,0.6l-1.6-0.2l-2,0.9l-3.6,2.2l-1.8,0.5h-1l-1.6-0.6l-1.8,0.9l-0.9,0.1l-1.2-0.8l-1.1-2.5l-0.9-0.5
		l-1.2-0.2l-1.1-0.5l-1.7-1.3l-1-0.6l-1.1-0.4l-1.3-0.4l-1.4-0.1l-0.8-0.4l-2.3-1.5l-1.2-0.5h-2.2l-0.5-0.2l-1-0.8l-1.1-0.5
		l-0.8,0.4l-3.5,3.9l2.2-5l4.7-8.1l3.5-3.9l2.1-3.6l0.1-1.6l-0.2-1.1l-0.5-0.8v-1.2l0.8-0.7l2.2-0.4l0.9-0.5l1.1-0.6l0.9-1l1.2-0.6
		l1.2-0.4l1.2,0.2l1.1,0.6l1.1,0.4l2.3,1.5l1.1,1.1l1.7,0.8l1.1,0.1l0.3-1.1l-0.2-3.5l0.5-0.4l2.3,1.6l1.4,0.2l0.7-0.7l0.3-1.5
		l0.6-1.4l0.8-0.2l1.4-0.2l0.7-0.6l-0.1-2.1l1.4-1.3l0.8-1.5l2.6,0.5l2.6-0.1l3.2-0.8l1.4-1.3l0.2-1.6l-0.3-1.4l0.1-1.8l-0.1-1.2
		l-0.5-1.4l0.4-0.9l1.4-0.4l3.9-0.1l0.6-0.8l-0.1-1.3l-0.7-0.9l-1.8-0.2l-0.8-0.5l-1.1-0.5l-0.5-1l0.5-1.2l1-0.7l1.1-0.5l1.8-0.4
		l0.5-0.4l-0.1-0.9l0.2-0.5l0.8-0.2h0.8l1.1-0.5l0.6-0.8l0.5-0.8l0.8-0.4l0.5-1.5l2.4,1l0.8,1.1l2.5,2.1l1.7-0.4l2.2-1.7l4.2-2
		l1-1.4l1-0.7l2.4,1l1.4-0.2l0.4-1.4l-0.2-1.7l0.1-5.2l1.5-0.4l2-0.2l5-2.3l2.7-2l2.6-1.4l2.2-2.4l3.8-9.5l3.6,0.1l1,0.2l1.9-1.1
		l1.4-1.4l3.2-2.3l1.4-0.2l1,0.6l0.8,3.6L327,401.9L327,401.9z"/>
	<path id="YEM158" class="st0" d="M207.6,489.6l-0.1,0.9l-0.8,0.5l-0.4-0.2l-1.1-1.3l-0.8,0.2l-0.4-0.2l-0.1-0.9l1-0.5l1.4-0.1
		l0.8,0.5C207.2,488.6,207.6,489.6,207.6,489.6z M266,411.4l1.1,2l0.1,1.6l-0.2,1.7l-0.5,1.6l-0.1,1.4l0.9,1.1l1.3,0.4l1.4-0.4
		l1.4,0.1l1.9,1.1l0.3,0.8l0.1,1.4l-0.5,1.5l-0.8,0.4l-0.5,0.8l-0.6,0.8l-1.1,0.5h-0.8l-0.8,0.2l-0.2,0.5l0.1,0.9l-0.5,0.4l-1.8,0.4
		l-1.1,0.5l-1,0.7l-0.5,1.2l0.5,1l1.1,0.5l0.8,0.5l1.8,0.2l0.7,0.9l0.1,1.3l-0.6,0.8l-3.9,0.1l-1.4,0.4l-0.4,0.9l0.5,1.4l0.1,1.2
		l-0.1,1.8l0.3,1.4l-0.2,1.6l-1.4,1.3l-3.2,0.8l-2.6,0.1l-2.6-0.5l-0.8,1.5l-1.4,1.3l0.1,2.1l-0.7,0.6l-1.4,0.2l-0.8,0.2l-0.6,1.4
		l-0.3,1.5l-0.7,0.7l-1.4-0.2l-2.3-1.6l-0.5,0.4l0.2,3.5l-0.3,1.1l-1.1-0.1l-1.7-0.8l-1.1-1.1l-2.3-1.5l-1.1-0.4l-1.1-0.6l-1.2-0.2
		l-1.2,0.4l-1.2,0.6l-0.9,1l-1.1,0.6l-0.9,0.5l-2.2,0.4l-0.8,0.7v1.2l0.5,0.8l0.2,1.1l-0.1,1.6l-2.1,3.6l-3.5,3.9l-4.7,8.1l-2.2,5
		l-0.3,0.4l-0.8,0.5l-1.3,0.2l-1.4-0.2l-0.3-0.7l1.1-5.6l0.1-2.7l-0.6-2.5l-1.2-2.2l-1.8-2l-0.5-1.6l-0.8-1l-0.2-0.5l-0.1-1.4
		l-0.2-1.4l-0.4-1.3l-0.6-1.1l-2.1-2.7l-0.5-1.4l-0.8-1.6l-0.6-1.8l-0.2-0.6l-3.6-5.2l-1.4-5l0.8-2.2l0.5-2.4l0.4-12.5l1.3-2.2
		l0.3-1.2l0.2-0.4l0.7-0.4l-0.8-2.2l0.1-3.4l0.2-0.1l4.3-3.9l1.8-0.8l2.1-0.7l1.4-0.2l0.7-0.9l0.6-1.4l4.6-6.8l2.2-1.1l1.5-0.5
		l5.1-0.9l1.7,3.6l3.6,0.2l1.4-0.8l1.5,0.5l1.3-0.7l2.9-0.4l0.4,1l-0.1,1.3l0.5,0.8l2.8-1.3l0.9,0.4v1.4l-0.3,0.8l0.5,0.9l7,2.3
		l3.1,0.4l1.5,1l4.6,1.6l2.2,0.1l1.2,0.5l0.9,0.5l1.3,0.5l1.5-0.2l2.3-1.8l0.8-1.1L266,411.4L266,411.4z"/>
	<path id="YEM332" class="st0" d="M656.6,316.7l-0.1-0.4l-0.1-1.4l-0.5-1l-0.5-1.3l-0.7-1.3l-0.5-1.8l-0.7-1.4l-0.5-1.4l-1.1-1.8
		l-1.4-0.8l-3.3-0.6l-4.1-1.2l-4.1,0.2l-1.4,0.6l-1.6,0.4l-4.7,0.5l-3-0.1l-3.9-1.5l-0.9-1.2l-0.4-1.2l-0.1-1.4l0.1-1.2l0.8-1.3
		l0.9-1.3l1.1-2.3l1-0.8l0.7-1.1l0.3-2.9l-0.4-1.4l-0.6-0.7l-2.6-0.8l-1.8-0.2l-1.9-0.7l-1.1-1.6l-0.6-2.5l0.5-2.8l0.5-1.8l0.6-1.5
		l-0.1-1.3l-0.2-1.7l-0.1-2l0.6-2v-1.8l0.5-2.5l1-1.3l1.1-2l2.3-7.3l-0.4-2.5L625,248l-1.4-0.8l-0.8-1l-1-1.4l0.1-2.6l4.8-20.7
		l-0.5-2.6l-0.7-1.5l-0.1-1.6l1.1-2.8l1.3-1.9l1.4-1.4l2.6-1.8l10.8-5l4.9-3.7l4.7-6.3l24.5-22.9l8-13.3l7.5-18.9l5.7-20.5l3.7-21.6
		l10.5-29.9l16.7-27.7l9.5,25.6l2.7,7l5.2,13.9l2.6,7l7.8,20.9l7.9,20.9l2.6,7l7.2,19.1l-0.5,0.1l0.9,0.7l2.3,0.2l1.1,0.4l0.7,0.9
		l9.9,25.5l7.6,19.4l-1.3,0.8l-2.9,0.8l-2.3-0.6l-0.7,0.7l-1.4,0.2l-0.7,0.4l-1.1,1.4l-0.7,0.6l-1.5,0.5l-2.1,1.4l-2.5,0.6l-1.3,0.6
		l-2.2,1.5l-1,0.5l-8.5,2.5l-3.9,2.1l-6.9,5.4l-6.2,5.7l-1.6,2l-0.8,1.4l-1.1,2.5l-2,2.6l-0.5,0.8l-0.3,0.8l0.1,1.6l0.3,0.8
		l-0.5,1.4l-1.4,1.8l-0.6,2.9l-1.5,2l-0.2,1.3l0.5,1.4l0.8,1.6l0.6,1.7l-0.7,2.9l1,1.1l2,1.1l0.1,1.1l-0.5,5.1l0.3,3l0.6,3l0.7,0.8
		l0.1,0.8l-0.3,0.7l-0.1,0.9l-0.5,0.9l-0.5,0.2l-1.3,0.2l-9.3,2.9l-1.3,1.4l-0.5,0.2l-1.5,0.2l-4.8,2.1l-2.3,1.7l0.1,1.6l-0.5,0.4
		l0.1,0.8l-0.2,0.1l-1.1-0.7l-0.5-0.5l-0.5-0.2l-1.2,0.9l-3.1,0.8l-4.8,3l-0.8,0.8l-0.3,1l0.4,1.4l0.5,0.8v0.5l-1.3,0.5l-6.5,0.7
		l-1.1,0.4l-1.1,0.7l-0.9,0.7l-1.4,2l-1.2,0.1l-0.5,0.2l-0.1,0.5H695l-3.1,1.5l-0.8,0.6l-1.6-0.6l-1.7,0.8l-1.6,1.1l-1.2,0.6
		l-12.1,3.7l-13.3,2.8L656.6,316.7L656.6,316.7z"/>
	<path id="YEM333" class="st0" d="M336.9,345.8h6.9l1.4,0.8l1.1,1l-0.3,1.4l-0.8,1.4l-0.5,1.4l-0.1,1.7l1.1,1.1l2.7,0.7l1.4,1.3
		l3.5,10.5l1.4,2.4l2.1,1.6l2.8,0.6l2.6,1.2l1.2,0.9l0.1,0.8v0.8l0.2,0.8l0.1,0.9l0.5,1.2l0.2,1.2l1.4,1.4l-0.9,6l-1.7,2.6l-1,3.3
		l-2.3,2.3l-10.4,8.7l-2.5,1.7l-1.9,0.9l-1.7,0.4l-1.3,0.2H341l-2.2-1.3l-0.9-2l-1.9-0.7l-8.5-0.9l-0.7-0.4l0.4-5.4l-0.8-3.6l-1-0.6
		l-1.4,0.2l-3.2,2.3l-1.4,1.4l-1.9,1.1l-1-0.2l-3.6-0.1l-0.1-1.9l-0.3-1.7l-1.6-2.1l-4.6-4.8l-1.7-2.4l-1.1-2.1l-1.4-2l-2-0.8
		l-2.6-0.1l-1.6-0.2l-1.4,0.6l-1,0.2l-0.8,0.8l-1.1,0.4h-1.7l-1.8,0.4l-1.2,0.8l-2.7,1.1l-2.1-1.4l-0.7-0.2l-0.6-1l0.1-4l-2-1.4
		l1.4-3.7l2.3-1.3l2-2.2l1.5-3.4l1.1-10l1.5-7l4.6-6.3l3.3-0.5l2.6-1.2l2.6-2.5l3.3,0.8l1.7,1l1.2,1.5l0.3,1.9v2.1l0.5,3.6l0.6,2.4
		l0.1,2.3l0.5,1.6l0.1,1.5l0.5,1.5l0.8,1.4l1.2,0.8h2l2.3-2l0.7-0.9l1.1-0.4l2.5,0.7l0.5-0.8l-0.3-0.8l0.5-0.7l1.1-0.2l1.8-0.7
		l2-1.1l2.1-0.2l1.6,0.5l1.4,0.2l1-0.4v-1.3l-1.1-2.2l0.1-1l0.5-0.8l0.6,0.2l0.8,1.2l0.6,0.4l0.9-0.5l0.5-0.6L336.9,345.8
		L336.9,345.8z"/>
	<path id="YEM334" class="st0" d="M313.3,397.1l-3.8,9.5l-2.2,2.4l-2.6,1.4l-2.7,2l-5,2.3l-2,0.2l-1.5,0.4l-0.1,5.2l0.2,1.7
		l-0.4,1.4l-1.4,0.2l-2.4-1l-1,0.7l-1,1.4l-4.2,2l-2.2,1.7l-1.7,0.4l-2.5-2.1l-0.8-1.1l-2.4-1l-0.1-1.4l-0.3-0.8l-1.9-1.1L270,421
		l-1.4,0.4l-1.3-0.4l-0.9-1.1l0.1-1.4l0.5-1.6l0.2-1.7l-0.1-1.6l-1.1-2l0.4-1.8l-0.1-0.4l0.5-1.3l1-0.7l0.9-2.9l0.8-0.5l0.7,0.1
		l0.6-0.4l0.5-2l0.1-1.3l1-1.8l1.5-1.2l1.6-0.7l1.4-0.4h1.2l1.1-0.4l0.6-1.3l-1.1-1.2l-0.4-1.4l0.5-1.5l1-1.1l0.6-1.5l0.1-0.9
		l0.5-0.6l1.3-0.2l1.2,0.1l0.9-0.8l0.7-2.2l2.7-1.1l1.2-0.8l1.8-0.4h1.7l1.1-0.4l0.8-0.8l1-0.2l1.4-0.6l1.6,0.2l2.6,0.1l2,0.8l1.4,2
		l1.1,2.1l1.7,2.4l4.6,4.8l1.6,2.1l0.3,1.7L313.3,397.1L313.3,397.1z"/>
	<path id="YEM335" class="st0" d="M424.2,184.6l2.5,43.2l-12.6,13.9L363,252.4l-18.4,7.3l-7.9,7.6l-7,0.7l-12.9-2.3l-14.8-8.8
		l-20.5-5.4l-4-2.8l-5.2-0.4l-1.2,0.6l-0.5,0.6l-3.4,0.8l-1.5-2l-2-3.9l-0.3-2l-0.1-2.2l-0.6-1.9l1.4-4.7l-0.1-1l-0.4-0.7l-0.3-0.9
		l0.3-1.3l0.1-1.4l-0.2-1.6l-0.8-1.7l-0.5-1.9l-0.5-2.6l-0.9-2v-1.3l0.6-0.8l0.3-1l-0.4-1.2l-0.9-1.1l-3.5-3l-1-0.5l-3.2-2.4
		l0.9-2.5l0.8-3.6l1.2-2.6l0.8-1.3l1.4-1.2l1.5-0.7l0.5-0.4l0.9-0.4l2.5-1.9l1.1-1.4l0.9-0.2l0.6-0.6l1.1-2.2l0.8-0.8l2.4-3.9
		l1.1-1.3l8-4.6l3.4-1.4l4.1-1l3.9-0.1l3.6,0.4l5.1-2.9l1.4-22.9l11.7,0.1l3.5,0.8l9.9,6.6l2.8,1l54.5,6.3l23.7-3.6l2.2,1.4
		l8.5,13.4l5.2,8.1l0.8,0.5H424.2L424.2,184.6z"/>
	<path id="YEM336" class="st0" d="M527.2,391.4l-6.5-0.2l-1.1,0.4l-2.7,2.6l-0.6,0.2l-1,0.2l-0.5,0.6l-1.1-1.5l-2.1-0.4h-4.7
		l0.5,0.9l-2.6,0.1l-7,2.3l0.3-1.7l-1-1.1l-1.4-0.8l-0.9-0.8l-0.4,0.5l-1.7-0.8l-5.5-1.5l-0.9,0.6l-3.3,1.1l-1.1,0.2l-0.8,0.7
		l-3.1,4.2l-2.8,1.7l-9.4,3.6l-1.3,1l-5,6l-7.8,7.8l-2.3,1.6l-4.5,1.6l-0.6-3.6l-0.5-1.8l-0.1-2.7l-1.9-6.8l-3.2-7.6l0.6-1.7
		l0.8-1.3l0.8-1.8l-0.3-2.3l0.1-3.2l-0.8-3l-2.2-1.6l-8.4-0.5l-4.1-1l-3.9-1.6l-4.4-0.6l-4.6,0.7l-6.1,1.9l-4.8,2.4l-7.1,1.4
		L393,384l-0.4-2l-2.1-4.3l-0.8-2.6l-1.4-2l-1.8,0.2l-1.9,1.1l-5.3,2.3l-1.8,1.5l-2.3,1.3l-2.7,1l-5.5,0.5l-1.4-1.4l-0.2-1.2
		l-0.5-1.2l-0.1-0.9l-0.2-0.8v-0.8l-0.1-0.8l-1.2-0.9l-2.6-1.2l-2.8-0.6l-2.1-1.6l-1.4-2.4l-3.5-10.5l-1.4-1.3l-2.7-0.7l-1.1-1.1
		l0.1-1.7l0.5-1.4l0.8-1.4l0.3-1.4l-1.1-1l-1.4-0.8h-6.9l-1.3-0.9l-0.8-0.9l-0.5-2l0.1-3.8l0.2-2.1l0.5-1.9l-0.1-1.5l0.8-0.6
		l0.2-0.8v-1.3l0.5-2.8l1.4-3l0.5-1.5l1.3-3l8.5-8.1l35.8-28.2l86-7.5l5.5,2.2l0.8,2.3l-8,14.1l-2.7,3.6l-1.4,3.5l-0.6,2.5l-0.1,1.8
		l-1.8,6l-0.1,2v1.8l1.5,1.8l2.6,3.8v2.1l-0.9,2l-9.9,9.5l-1.4,2l0.5,1.8l6.8,5.4l4.3,4.8l4.6,3.5l4.8,1.9l6.3,1.1l4.5,0.1l1.5,0.7
		l1.6,0.9l1.2,1.6l1.2,2.8l0.6,2.1l1.5,2.3l0.8,1.9l3,3.5l4.5,2.5l4.1,0.4l4.7-0.2l5.2,1.5l5.6,3l1.4,1.7l0.9,1.5l0.5,1.4l0.1,1.2
		l0.4,1.1l1.7,3.5l0.5,1.4L527.2,391.4L527.2,391.4z"/>
	<path id="YEM337" class="st0" d="M384,283.1l-35.8,28.2l-8.5,8.1l-1.3,3L338,324l-1.4,3l-0.5,2.8v1.3l-0.2,0.8l-0.8,0.6l0.1,1.5
		l-0.5,1.9l-0.2,2.1l-0.1,3.8l0.5,2l0.8,0.9l1.3,0.9l-0.4,2.3l-0.5,0.6l-0.9,0.5l-0.6-0.4l-0.8-1.2l-0.6-0.2l-0.5,0.8l-0.1,1
		l1.1,2.2v1.3l-1,0.4l-1.4-0.2l-1.6-0.5l-2.1,0.2l-2,1.1l-1.8,0.7l-1.1,0.2l-0.5,0.7l0.3,0.8l-0.5,0.8l-2.5-0.7l-1.1,0.4l-0.7,0.9
		l-2.3,2h-2l-1.2-0.8l-0.8-1.4l-0.5-1.5l-0.1-1.5l-0.5-1.6l-0.1-2.3l-0.6-2.4l-0.5-3.6V342l-0.3-1.9l-1.2-1.5l-1.7-1l-3.3-0.8
		l0.1-4.2l0.3-1.1v-1.4l-0.8-0.9l0.1-0.6l0.7-0.8l0.5-1.4l0.8-1.6l1.4-1.6l0.8-2l0.3-1l1-0.8l3-1.5l0.9-1.7l0.7-2.2l-0.2-1.7
		l0.2-1.4v-1.5l-0.7-2.5l-1.1-1.4l-1.9-0.9L306,304l-2.2-0.6l-1.5-1.6l-2-2.5l-2.7-2.4l-1.1-0.4l-0.9-0.2l-1.3,0.8l-0.7,1.3
		l-0.8,1.7l-2.1,0.7l-2-0.8l-2.1-2.8l-2-2l-1.4-0.6l-1.4-0.2l-0.9-0.4l-0.3-1.1l1.3-1.4l7.2-5.6l1.7-2l1.2-2.7l-1.3-2.4l-4-5.7
		l-0.9-3.2V265l-1.1-6.6l-2.9-6.8l20.5,5.4l14.8,8.8l12.9,2.3l7-0.7l7.9-7.6l18.4-7.3l51.1-10.7L384,283.1L384,283.1z"/>
	<path id="YEM3496" class="st0" d="M281.5,251.6l2.9,6.8l1.1,6.6v4.9l0.9,3.2l4,5.7l1.3,2.4l-1.2,2.7l-1.7,2l-7.2,5.6l-1.3,1.4
		l0.3,1.1l0.9,0.4l1.4,0.2l1.4,0.6l2,2l2.1,2.8l2,0.8l2.1-0.7l0.8-1.7l0.7-1.3l1.3-0.8l0.9,0.2l1.1,0.4l2.7,2.4l2,2.5l1.5,1.6
		l2.2,0.6l2.7,0.4l1.9,0.9l1.1,1.4l0.7,2.5v1.5l-0.2,1.4l0.2,1.7l-0.7,2.2l-0.9,1.7l-3,1.5l-1,0.8l-0.3,1l-0.8,2l-1.4,1.6l-0.8,1.6
		l-0.5,1.4l-0.7,0.8l-0.1,0.6l0.8,0.9v1.4l-0.3,1.1l-0.1,4.2l-2.6,2.5l-2.6,1.2l-3.3,0.5l-0.1-2.5l-0.6-1.6l-2.4-3.8l-1.1-2.6
		l-0.9-4.8l-1.8-2.9l-1.4-1l-1.6-0.2l-1.5,0.2l-1.6-0.2l-1.3,0.2l-1.4,1.1l-1.1,1.8l-1.4,1.9l-1.3,0.8l-2.5,1.1l-1.7-0.2l-1.6-1.2
		l-1.1-1.5l-1.5-0.2l-0.5,1.1l-0.3,1.4l-0.8,1.3l-1.8,0.7l-4.7-1.1l-1.4-1.4l-1.2-1.5l-1.7-0.7l-1.1-0.8l-1.7,0.1l-2,0.4l-2.1,0.8
		l-3.3,2.7l-1.4,0.9l-1.2,0.8l-1.1,0.8l-2.1,2.2l-1.4,0.4l-2.3,0.2l-2.9-0.4l-0.9,0.9l-2.6-0.8l-0.2-0.8l-3.2-0.5l-0.5-2.1l-1-1.6
		l1-1.7l0.4-0.4v-0.8l-1.5-1.5l-1.2,0.2h-1.1l-1.7-0.4l-1.9-1.2l-2-2.1l1.6-2.9l0.8-0.8l0.6-1.7l-0.2-3.5l0.5-1.9l1.1-1.5l3.8-2.6
		l0.7-0.8l4.1-0.9l2.3-2.6l4.3-3.5l1.3-0.7l2.4-1.9l1.1-1.3l0.3-3l0.8-3.2l0.7-1.8l-0.1-1.1l0.8-1l2.3,0.2l2-0.4l1.8-0.9l3.7-3.3
		l0.7-3l0.1-3.2l1.1-1.9l1.8-1.4l1.3-2l0.3-1.4l0.1-1.5l-0.5-1.4l-0.4-2l-0.3-3.9l0.5-1.9l0.6-1.6l3.6-2.1l3.6-1.5l3.3-0.2l3.4-0.8
		l0.5-0.6l1.2-0.6l5.2,0.4L281.5,251.6L281.5,251.6z M265.5,284l-0.5-0.7l-1.1-0.8l-1.3-1.5l-2-0.9l-0.8,0.1l-1.4,0.7l-0.8,0.9
		l-0.8,1.3h-0.8l-0.5,0.2l-0.5,0.6l-1.1,0.4l-0.5,0.8l-0.1,1.9l0.1,0.8l-0.6,0.1l-0.2,0.6l-0.5,0.7l-0.8,0.2l-0.4,0.5l-2.4,0.8
		l-0.1,0.6l0.3,0.8l0.5,0.5l1.1,0.7l0.8,1.1l0.1,0.8l-0.9,0.4l-0.5,0.6l-0.3,1.4l0.2,1.2l2.1,1.6l0.2,0.7l-0.2,1.5l0.2,0.4h2.9
		l0.5-0.1l-0.1-1l0.2-0.4l0.6-0.1l0.5-0.4l0.2-0.6v-1.4l-0.3-0.9l-0.4,0.1l-0.4-0.4l-0.2-1.5l-0.5-0.9l-0.1-0.7l0.1-0.8l-0.1-0.6
		l0.3-0.7l0.8-0.9l1.7-1.4l0.1-0.7l-0.3-1.6l0.4-0.7l0.5-0.7l0.4,0.7l0.4-0.7l1.9,0.2l0.2-0.5v-0.8l0.2-0.7l0.8-0.7l0.7,0.2
		l-0.2,1.1l0.5,0.4l1-0.1l0.5-0.4l0.4-0.6L265.5,284L265.5,284z"/>
	<path id="YEM3497" class="st0" d="M809.5,527.1l0.1,0.5l-2.9-0.2l-0.9-0.4l1.2-0.5l1.1,0.1L809.5,527.1z M793,522.8l0.8,0.4h1
		l0.8,0.7l0.3,1.1l-0.1,1l-0.9,0.2l-0.9,0.2l-1.8-0.8l-1.2-1.2l-1.3-0.4l0.1-0.7l1-0.4l0.8,0.1l0.7-0.2L793,522.8L793,522.8z
		 M740.6,520.4l1.3,0.6l1-0.1l1.8,0.4l2.7,0.1l1.8,0.9l3.3-0.9l0.9,0.2l0.4,0.7l-0.8,0.4l-0.6,0.8l0.5,0.4l0.6,1.2l-1.8-0.4
		l-1.8,0.5l-2.8-0.6l-2.7-0.2l-1-1.6h-0.8l-1.3,0.4l-0.7,0.1l-0.2-0.2l-0.8-1.4l-0.3,0.1l-1.2-0.6l-1.5,0.4l-0.6-0.6l-2-1l-0.3-0.9
		l0.9-0.4l0.9-0.2l1.5,0.1l1.8,0.4L740.6,520.4L740.6,520.4z M825.7,486l2,0.2l2.9-0.4l2.4,2.5l4.2,3.5l5.1,1.5l1.3-1.8l0.6-1.7
		l1.7-0.4l1.1,0.2l1.1,0.5l2-0.2l2.1,0.1l2.3-1.5l0.8-0.2l1.5-1.1l0.6-0.8l1.7-0.2l0.8,0.8l0.9,0.8l1.3,0.9l0.9-0.2l0.8-0.5l0.3,0.2
		l1.1,1.4h1.1l1.4,0.4l0.6,1.1l0.9,0.4l2.1,1l2.5,0.6l2.5,1.6l1.3,0.4l2.9,2.1l1.6-0.2l1.1-0.8l0.7,0.1l0.8,0.5l-0.8,0.8l-1.8,0.6
		l-1.3,0.4l-1.2,0.2l-0.6,0.6l-0.1,1.9l-2.6,1.2l-2,0.6l-2.5,1.1L869,504l-2.3,0.9l-0.5,0.6l-1.1,1.8l-0.5,0.4l-1.6,0.8l-1.8,1.6
		l-0.8,0.6l-1.8-0.2l-2.9,0.2l-1-0.2l-1.1,0.2l-1.4,1.4l-2.3-0.8l-1.8,0.5l-2.7,0.4L838,514l-2.7,0.4l-3.6-0.4l-3.3-1.1l-2.8-0.8
		l-1.3-1.4l-2-2.7l-0.8-1.6l-1.6-0.6l-2.6-1.9l-6.3-4.5l-1.5-1.5l-0.1-0.4l0.5-0.4l1.7,0.5l1.2-0.2l1.6-1.1l0.1-0.6l0.7-2l-0.4-4.1
		l0.9-0.4l1-0.2l2.6-0.4l1.3-2.1l0.5-0.7l1.2-0.2L825.7,486L825.7,486z M656.6,316.7l-8.7,2.7l-6.6,0.8l-5.7,2.6l-1.7,1.1l-4.6,4.4
		l-0.9,0.6l-2.5,0.5l-3.6,2.1l-3.9,3.2l-0.9,0.1l-1.1-0.5l-1.5,0.4l-2.6,1.4l-1.1,0.4l-1.1,0.2l-0.4-1.4l-0.4-0.8l-0.5,0.1l-0.9,0.4
		l-3.9,0.4l-8.8,3.3l-13.5,3.8l-7.2,4.6l-2.6,1.2l-2.7,0.4l-1.3,0.8l-2.4,1.9l-5.1,2.7l-2.3,1.9l-0.5,2.3l-0.6-0.2l-0.9-0.5
		l-1.2-0.5l-1.4,0.2l-1.3,0.8l-0.9,0.9l-3,4.9l-1.1,2.6l-0.5,2.9l0.5,0.4v0.8l-0.3,1.3l-0.7,0.6l-2.6,1.1l-0.5,0.5l-0.3,1.7
		l-0.9,0.6l-1.1,0.2l-1.1,0.5l-0.4,1.1v1.6l-0.2,0.4l-0.8,0.8l-0.7,2l-1,0.8l-2.3,1.1l-3.6,5.1l-1.1,0.8l-0.3,0.2l-0.8,0.6l-0.8,0.2
		l-1.1-0.1l-0.1-1.5l-0.5-1.4l-1.7-3.5l-0.4-1.1l-0.1-1.2l-0.5-1.4l-0.9-1.5l-1.4-1.7l-5.6-3l-5.2-1.5l-4.7,0.2l-4.1-0.4l-4.5-2.5
		l-3-3.5l-0.8-1.9l-1.5-2.3l-0.6-2.1l-1.2-2.8l-1.2-1.6l-1.6-0.9l-1.5-0.7l-4.5-0.1l-6.3-1.1l-4.8-1.9l-4.6-3.5l-4.4-4.8l-6.8-5.4
		l-0.5-1.8l1.4-2l9.9-9.5l0.9-2v-2.1l-2.6-3.8l-1.5-1.8v-1.8l0.1-2l1.8-6l0.1-1.8l0.6-2.5l1.4-3.5l2.7-3.6l8-14.1l-0.8-2.3l-5.5-2.2
		l-86,7.5l30.1-41.3l12.6-13.9l-2.5-43.2l8,0.4l2-0.2l1.8-0.8l14.5-9.5l1.8-2.8l7-21.7l1.1-2.2l15.1-21.3l9.6-13.6l5.5-7.8l4.8-6.7
		l1.4-1.1L515,86.5l22.1-12.9l11.5-6.6l5.7-2.4l7.9-1.3l78.2-12.5l9.8-1.5l9.8-1.6l68.3-10.9l0.5,1.2l-16.7,27.7l-10.5,29.9
		l-3.7,21.6l-5.7,20.5l-7.6,18.9l-8,13.3l-24.5,22.9l-4.7,6.3l-4.9,3.7l-10.8,5l-2.6,1.8l-1.4,1.4l-1.3,1.9l-1.1,2.8l0.1,1.6
		l0.7,1.5l0.5,2.6l-4.8,20.7l-0.1,2.6l1,1.4l0.8,1l1.4,0.8l0.7,1.9l0.4,2.5l-2.3,7.3l-1.1,2l-1,1.3l-0.5,2.5v1.8l-0.6,2l0.1,2
		l0.2,1.7l0.1,1.3l-0.6,1.5l-0.5,1.8l-0.5,2.8l0.6,2.5l1.1,1.6l1.9,0.7l1.8,0.2l2.6,0.8l0.6,0.7l0.4,1.4l-0.3,2.9l-0.7,1.1l-1,0.8
		l-1.1,2.3l-0.9,1.3l-0.8,1.3l-0.1,1.2l0.1,1.4l0.4,1.2l0.9,1.2l3.9,1.5l3,0.1l4.7-0.5l1.6-0.4l1.4-0.6l4.1-0.2l4.1,1.2l3.3,0.6
		l1.4,0.8l1.1,1.8l0.5,1.4l0.7,1.4l0.5,1.8l0.7,1.3l0.5,1.3l0.5,1l0.1,1.4L656.6,316.7L656.6,316.7z"/>
	<path id="YEM3498" class="st0" d="M265.5,284l0.1,0.6l-0.4,0.6l-0.5,0.4l-1,0.1l-0.5-0.4l0.2-1.1l-0.7-0.2l-0.8,0.7l-0.2,0.7v0.8
		l-0.2,0.5l-1.9-0.2l-0.4,0.7l-0.4-0.7l-0.5,0.7l-0.4,0.7l0.3,1.6l-0.1,0.7l-1.7,1.4l-0.8,0.9l-0.3,0.7l0.1,0.6l-0.1,0.8l0.1,0.7
		l0.5,0.9l0.2,1.5l0.4,0.4l0.4-0.1l0.3,0.9v1.4l-0.2,0.6l-0.5,0.4l-0.6,0.1l-0.2,0.4l0.1,1l-0.5,0.1h-2.9l-0.2-0.4l0.2-1.5l-0.3-0.6
		l-2.1-1.6l-0.2-1.2l0.3-1.4l0.5-0.6l0.9-0.4l-0.1-0.8l-0.8-1.1l-1.1-0.7l-0.5-0.5l-0.3-0.8l0.1-0.6l2.4-0.8l0.4-0.5l0.8-0.2
		l0.5-0.7l0.2-0.6l0.6-0.1l-0.1-0.8l0.1-1.9l0.5-0.8l1.1-0.4l0.5-0.6l0.5-0.2h0.8l0.8-1.3l0.8-0.9l1.4-0.7l0.8-0.1l2,0.9l1.3,1.5
		l1.1,0.8L265.5,284L265.5,284z"/>
	<path id="YEM3499" class="st0" d="M223,328.4l1,1.6l0.5,2.1l3.2,0.5l0.2,0.8l2.6,0.8l0.1,1.3l0.7,2.5l1.4,2.2l4,5l1.2,2.2l0.7,1.9
		l1,1.5l0.5,1.3l-0.5,1.7l-1.8,2.7l-1.1,0.9l-1.1,1.2l-3.9,2.6l-0.9,0.8l-1,0.4l-1.6,0.2l-0.9-0.1L226,362l-1.8,0.1l-1.1,0.5
		l-0.6,0.9l-2.1,2l-3.6,2.3l-1.1,0.1l-1.4,0.1l2.2-3l0.1-1.3v-1.9l-0.2-0.8l-0.8-1.8l-0.2-1.1L213,351l-0.2-1.4l0.2-1.2l-0.2-2.3
		l0.1-1.3l0.8-1l0.3-1.1l-0.8-5.3l1-3l1.1-1.9l1.1-1.1l1.8-2.1l0.5-1l0.7,0.1l1.9,0.8l0.9-0.2L223,328.4L223,328.4z"/>
	<path id="YEM3510" class="st0" d="M266.5,488.2l4.2-7.4l2.7-1.8l5.5-2.3l12.7-2.4l11.1-3.4l5.2-0.4l-0.4,1.2l-0.2,1.4l-1.4,4.2
		l-0.1,0.7l0.3,2.8l-0.2,1l-1.1,0.4l-1.4-0.2l-1.4-0.7l-0.9-0.8l0.1-1.1l1-0.4l1.2,0.2l1.1-0.2l0.4-1.2l-0.2-0.1l-0.9-1.4l-0.2-0.6
		l0.1-0.5h-0.8v0.7l-0.5,0.9l-0.5,0.1l-1-0.4l-1.4,0.1l-0.6,0.2l-0.8,1.5l-1,0.8l-1.1,0.2l-0.8-1l-0.8,0.5l-0.3,0.6l0.3,1.8l0.8-0.6
		l1.9,0.2l0.2,0.2l-0.1,0.8l-0.4,0.8l-0.9,0.8l-1,0.5l-0.8-0.2l-1.8-0.8l-0.6-0.4l-0.4-0.5l-0.1-0.6l-0.8-0.4l-1.5-0.2l-1.2,0.4
		l-2.3,1.7l-0.5-1l0.3-0.7l-0.4-1l-0.8-0.9l-0.8-0.7l-2.5-1l-2.6-0.1l-2.3,0.5l-1.8,1l-3.3,3l-3.5,4.2l-0.5,1.3L266.5,488.2
		L266.5,488.2z"/>
	<path id="YEM3511" class="st0" d="M444.2,420.5l-9.6,3.3l-15.6,3.6l-5.3,4.1l-7.6,3.2L405,435l-1.2-0.2l-2.1-0.8h-1.4l-1.3,0.4
		l-2.7,1.3L395,436h-12.6l-2.7-0.5l-1.3-0.8l-0.8-0.2l-0.6,0.5l-1.7,0.6l-5.2,0.9l-10.4,0.5l-1.1,0.4l-2,0.9l-0.9,0.2l-2.6-0.2
		l-1.1,0.2l-0.7,0.5l-8.4,2.1l-2,1.2l-5.9,6.8l-1.7,1.4l-0.9,0.9l-0.8,2.6l-2.9,4.2l-1.9,2l-2.3,1.2l-10.5,2.9l-2.4,1.4l-2.2,2.1
		l-0.8,1.2l-0.3,0.6l2-16l4-12.5l2.9-2.3l0.5-1.5l-0.1-0.8l-0.8-0.8l-0.9-0.6l-0.8-1.1l-0.2-2l0.1-2.8l1.7-2.9l3.4-4.3l0.6-0.9
		l-0.3-0.7l-1.1-0.5l-3.1-0.2l-0.9-0.5v-0.9l2.3-1.6l1.1-1l0.1-1v-1.2l-0.2-1.1l0.5-1.1l0.8-0.8l2.3-0.6l1.8-1.1l0.2-1.1l-0.2-1.4
		l0.2-2.2l0.5-1.1l2.3-0.7l0.7,0.4l8.5,0.9l1.9,0.7l0.9,2l2.2,1.3h1.2l1.3-0.2l1.7-0.4l1.9-0.9l2.5-1.7l10.4-8.7l2.3-2.3l1-3.3
		l1.7-2.6l0.9-6l5.5-0.5l2.7-1l2.3-1.3l1.8-1.5l5.4-2.2l1.9-1.1l1.8-0.2l1.4,2l0.8,2.6l2.1,4.3l0.4,2l1.1,1.7l7.1-1.4l4.8-2.4
		l6.2-1.8l4.6-0.7l4.4,0.6l3.9,1.6l4.1,1l8.4,0.5l2.2,1.6l0.8,3l-0.1,3.2l0.3,2.3l-0.8,1.8l-0.8,1.3L438,398l3.2,7.6l1.9,6.8
		l0.1,2.7l0.5,1.8L444.2,420.5L444.2,420.5z"/>
	<path id="_x30_" class="st0" d="M281.1,297.1L281.1,297.1L281.1,297.1z"/>
	<path id="_x31_" class="st0" d="M289,253.4L289,253.4L289,253.4z"/>
	<path id="_x32_" class="st0" d="M194.5,170.3L194.5,170.3L194.5,170.3z"/>
</g>
</svg>
