<?xml version="1.0" encoding="utf-8"?>
<!-- Generator: Adobe Illustrator 24.0.1, SVG Export Plug-In . SVG Version: 6.00 Build 0)  -->
<svg version="1.1" id="Layer_1" xmlns="http://www.w3.org/2000/svg" xmlns:xlink="http://www.w3.org/1999/xlink" x="0px" y="0px"
	 viewBox="0 0 1000 579" style="enable-background:new 0 0 1000 579;" xml:space="preserve">
<style type="text/css">
	.st0{fill:#108C42;stroke:#FFFFFF;stroke-width:2;stroke-linecap:round;stroke-linejoin:round;}
	.st1{fill:#C6E250;stroke:#FFFFFF;stroke-width:2;stroke-linecap:round;stroke-linejoin:round;}
	.st2{fill:#68D895;stroke:#FFFFFF;stroke-width:2;stroke-linecap:round;stroke-linejoin:round;}
	.st3{fill:#225135;stroke:#FFFFFF;stroke-width:2;stroke-linecap:round;stroke-linejoin:round;}
</style>
<path id="YEM99" class="st0" d="M3.1,334.8l-0.5,0.6l-1.4-1.9L1,332.8l1.6-1.5l0.8,0.8v1.1l0.3,1.3L3.1,334.8L3.1,334.8z
	 M26.9,278.3v0.6l-0.7,0.6l-5.1-0.6l-1.7,0.2l-0.6-0.3l0.2-1.4l-0.4-1.3l0.4-0.5h0.5l3.4,1.8l0.2,0.2L26.9,278.3L26.9,278.3z"/>
<path id="YEM150" class="st0" d="M227.8,134l-1.8,26.9l-6.7,3.4l-4.7-0.5l-5.1,0.1l-5.4,1.2l-4.5,1.6l-10.6,5.4l-1.5,1.5l-3.2,4.6
	l-1.1,1l-1.4,2.6l-0.8,0.7l-1.2,0.2l-1.5,1.6l-3.3,2.2l-1.2,0.5l-0.6,0.5l-2,0.8l-1.8,1.4l-1,1.5l-1.6,3l-1,4.3l-1.2,2.9l-5.7,1.7
	l-3.4-0.1l-3.7-0.7l-8.2-3.4l-5.7-1.5h-3.2l-2.1,0.7l-1.1,0.8l-2.3,1.2l-1.6,0.7l-10.4,2.5l-9-0.8l-6.1,0.4l-1.7-0.2l-1.4-0.8
	l-13.6-4l-1.6-1l-0.5-2l-0.7-1.3l-0.2-1.1l1.2-1.8l2-1.3l0.4-0.9l-0.1-1l-0.6-1l-0.8-0.6l-3-0.9l-0.9-0.7l-1-3.1l-1.7-3.3l-0.3-1.4
	l0.5-2.1l1.3-3.3l0.4-1.6v-1.8l-0.5-1.9l-0.6-1.4l-0.3-1.4l0.4-1.7l1.7-3.3l0.5-1.8l-0.1-1.9l0.5-1.7l1.7-1.3l2.1-0.9L87,150
	l1.9-0.9l0.2-1.7l-0.8-1.9l-1.6-1.2l-4.6-1.5l0.2-0.4l3.9-4.8l7-6.1l7.1-4.4l1.8-0.7l1.8-0.3l1.4,0.4l2.8,0.1l1.3,0.3l5.9,2.6
	l3.4,2.1l5.7,6.3l3.3,2.7l1.6,0.5h1.5l3-0.3l3.2,0.3l1.4-0.1l1.9-0.5l0.5,0.2v0.9l-0.2,1.7l0.5,1.1l1.5,0.4l1.9-0.2l1.2-1.3l1.1-1.7
	l1.2-1.4l1.7-0.9l1.4,0.1l3.1,1.6l2.1,0.3l1.5-0.7l1.3-1.5l1.1-2.1l1.2-0.9l1.7,0.2l3.4,1l1.5-0.1l6.2-1.4l7.8-0.8l4.9,0.1l5.5,1.2
	l2.3-0.1l5.1-2l1.7-0.4L227.8,134L227.8,134z"/>
<path id="YEM151" class="st0" d="M43.7,449.5l-0.2-1.2l0.6-1.7l2.1-3.6l3.4-2.5l1.7-0.6l1,0.8l-0.3,1.6l-2.4,2.6l-0.6,1.8l-0.8,0.8
	L43.7,449.5L43.7,449.5z M51.8,427.7l-0.6,0.5H49l1.1-2.4l-1.7-0.6l-2-1.1l-1.7-1.5l-0.7-2.1l0.7-1.3l1.6-1.5l1.9-1.1l1.3-0.4
	l0.6-0.6l2.2,2.9l0.5,1.1v0.9l-1.1,3.1l-0.1,2.6L51.8,427.7z M35.1,305.5l0.9,0.2l1-0.3l1.1-0.6l0.7,0.1v1l-0.9,3.2l-0.2,1.1
	l0.1,0.7l-0.2,0.7l0.1,0.9l-1.6,2.4l-1,0.9l-1.1-0.1l-0.9-0.7l-0.9-1.4v-1.9l0.8-2l0.3-4.3l0.9-1.5l1.8-1.7l0.7-1.3l1.8-0.9l0.6,0.2
	l0.4,0.8l-2.1,1.3l-0.3,0.6l0.4,0.5l-0.3,0.5l-0.7,0.6l-1.2,0.6L35.1,305.5L35.1,305.5z M94.1,295.6l0.2,3.5l0.4,1l0.1,1.8l0.4,1.4
	l0.1,2.4l-0.3,2.8l0.4,1.9l0.2,2.3l2.2,3.3l1.8,1.3l2,1.8l3.3,0.9l0.8,1.5l0.9,2.3l1.6,2.8l0.9,2.5l1.2,1.8l2.5,2.5l2,1.1l2.7,2.5
	l2.5,1.4l2.2,0.5h1.5l1.6-0.2l1.9,1.8v0.9l-0.5,0.4l-1.3,2l-1.1,0.8l-1.2,0.2l-2.5-1l-0.9-0.1l-0.6,1.2l-2.4,2.5l-1.5,1.3l-1.5,2.2
	l-1.3,3.6l1.1,6.2l-0.4,1.3l-1,1.2l-0.2,1.5l0.3,2.7l-0.3,1.4l0.3,1.6l3.1,8.4l0.3,1.3l1,2.1l0.3,1v2.2l-0.2,1.5l-2.9,3.5l-1.6,0.1
	l-0.5,1.1l2.7,11.4v2.8l1.1,2.8l1.4,1.2l1.8,1.2l2.5,0.8l4.5,2.8l1.6,0.6l1.3-0.1l1-1l1.2-0.7l1-0.8l1.3-0.5l0.2,2.3l0.4,1.4
	l-0.5,2.3l-3.1,5l-1.3,0.8l-0.7-0.5l-1.3-0.5l-1.4,0.6l-0.3,1.1l1.1,1.5l0.7,1l0.1,1.3l-0.9-0.2l-2.1,0.7l-6.7,1.1l-2,0.6l-2.9,1.3
	l-6.1,8l-0.8,1.6l-0.9,1.1l-1.8,0.3l-2.8,0.8l-2.3,1l-5.7,4.6l-0.3,0.1l0.1-1.8l-0.3-2.9l-2.7-5.2l-0.4-0.8l-0.8-6.9l-0.5-0.7
	l-5.3-5.7l-1.8-4.5l-1.7-3.7l-1.8-2.6l-0.9-6.3l-0.7-2.9l-0.8-2.5l-1.5-4.3l-2.3-7.7l-0.6-1.7l-0.4-2.6l-1-2.4l-0.3-2.6l-0.2-0.8
	l-0.5-0.4l-1.4-1.1l-0.4-0.5l0.2-1l0.4-0.4l0.6,0.2l0.8,0.6l0.8,1.7l1,3.8l1.2,1.1l0.1-2.5l-0.2-1.1l-0.5-1l1.2-3.4l-0.9-2.8
	l-1.5-2.5l-0.9-2.7l0.2-0.6l0.7-0.9l0.1-1l-0.4-0.4l-0.4-1l-1.1-0.7l-1.2-1.7l-0.6-2.8l-0.1-0.9l-0.8-3l-3.9-4.8l-0.9-3.1l-0.1-1.7
	l0.1-0.9l0.6,0.1l0.4,0.7l-0.4,1.2v0.9l0.6,1.6l1,1.7l1.3,1.5l1.5,1l0.1-1.2L65,350v-1.7l-0.9-3l-0.3-2.8l-0.5-1l-0.6-0.9l-2.1-2
	l-0.9-1.1l-0.5-1.4l-0.3-1.9l0.4-4.5l-0.4-1.5l-1-1.4l-2.9-1.3l-2.6-2.2l-1.6-1.1l-1.8-0.9l-1.7-0.6l-1.8-0.4h-1.6l-1.1,0.7
	l-0.5,1.7l-0.9,0.3l-1.8-0.7l-1.6-1.4l-0.1-1.9l-0.5-1.1l0.9-0.1l2.7,0.6l1.4-0.2l0.8-0.6l0.5-0.9l0.3-1.1l-0.1-0.9l-0.8-1.2
	l-0.2-1.1l2.1-3.9l0.6-0.9l0.5,1.1l-0.3,1.3l-0.5,1.3l-0.7,0.9l1.5,0.7l1.2,0.7l3.3,2.8L51,317l0.2,1.1l-0.2,1.6l0.2,0.5l1.1,0.5
	v-1.1l-0.6-0.6l1.2-1.3l0.5-1.9l-0.2-6.4l-0.7-2.9l-1.3-2.4l-0.3-1.2V302l0.3-1.9l-0.3-1.9l-0.3-1.1l-1.1-2l-3.3-4.6l0.2-0.7
	l0.9-1.1l-1.5-1.8l-0.5-1.2l-0.2-1.4l0.8-3l-0.2-1.2l-1.7-0.6l0.6-1.3l0.8-0.7l0.9-0.6l1-0.9l0.7-0.8l0.3-0.8l0.1-2.2l0.5-2.3l1-1.6
	l1.5-1.2l1.4-0.9l1.5-1.2l0.8-1.5l0.4-1.8l13.1,7.9l5.4-0.8l3.5,0.3l1.7-0.9l1.2-0.9l3.1-0.7l8.3-0.7l2.1,1.6l1,2.3l-0.2,2.7
	l-0.5,2.1l-0.5,1.4l-0.7,1.2v1.5l1,2.8l-0.6,4.8l-0.4,0.9l-0.1,1.1L94.1,295.6L94.1,295.6z"/>
<path id="YEM152" class="st0" d="M148.1,296l-1,3.7l-0.4,3.6l-1.4,1.5l-3.2,2.2l-1.7,0.8l-5.7,4.1l-3,3.1l-5.4,1.1l-0.9,0.9l-5,3.1
	l-1.4,1.8l-0.6,2.2l0.3,4.1l-0.8,2l-1,0.9l-2.1,3.4l-2-1.1l-2.5-2.5l-1.2-1.8l-0.9-2.5l-1.6-2.8l-0.9-2.3l-0.8-1.5l-3.3-0.9l-2-1.8
	l-1.8-1.3l-2.2-3.3l-0.2-2.3l-0.4-1.9l0.3-2.8l-0.1-2.4l-0.4-1.4l-0.1-1.8l-0.4-1l-0.2-3.5l4.5-1.6l14.2-1.4l1.7,0.2l1.7-0.1
	l7.3,0.8l2.2,0.7l1.8-0.2l1.5-0.5l4.2,0.1l3.6-1.4l1.5-1.1l1.5,0.2l1.1,0.4l0.7,1l1.5,0.9L148.1,296L148.1,296z"/>
<path id="YEM153" class="st0" d="M219.4,358.6l-6.1,7.4l-2,8.2l-1.5,11.8l-2,4l-2.7,2.6l-3,1.5l-1.9,4.4l-1.6,0.7l-2.4-1l-4.6-1.6
	l-3.7-2.4l-1.9-0.8l-2.3-0.8l-1.8-1.1l-4-1.1l-1.8-0.8l-1.5-1.6l-3.5-2.9l-1.3-0.5l-1,0.3l-0.9,1.4l-0.1,1.1l-0.6,1.4l-0.9,1.4
	l-3.7,1.5l-2.1-0.5l-0.6-1.2l-1.1-4.3l-1.2-0.2l-1.5,0.6l-1.9,2.1L152,390l-1.8,2.3h-1.9l-1.3,0.6l-0.6,0.8v1.4l0.7,1.3l0.2,1.9
	l-0.1,1.9l-2.1,4l-1.9,1l-2.2,0.5l-1.3-0.6l-0.3-1.5l0.3-1.8l-0.4-0.8l-0.7,0.1l-0.6,1.3l-1.3,1.9l-1.3,3.5l-1.1,1.6l-1.2,2.7
	l-1.3,0.5l-1,0.8l-1.2,0.7l-1,1l-1.3,0.1l-1.6-0.6l-4.5-2.8l-2.5-0.8l-1.8-1.2l-1.4-1.2l-1.1-2.8V403l-2.7-11.4l0.5-1.1l1.6-0.1
	l1.9-0.1l1.4-0.1l4.8-2.7l2.8-2.4l0.8-1.1l1.4-0.6l2.4-0.1l1.8,0.7l1.2,0.1l2.1-0.3l1.3-0.4l1.2-0.9l5.1-3.1l1.4-1.4l1.4-1.1
	l2.4-3.2l0.7-2l-0.7-1.5l-1.3-1.8l-0.9-2.2l-1.6-2.6l-5.3-5.9l-1.9-2.6l-0.9-2.9l-0.1-1.5l1.2-1.1l3.8,0.4l3.1-0.3l1.8-0.5l2.8-2.6
	l1.5-0.9l1.6-1l1.9-1.1l4.4-3.2l2.8-1l2.6-0.5l2.2-0.1l1.4,1l2.2,0.8l1.6,1.8l1.9,1.6l6.2,1.3l2.4-0.8l1.1-1.5l0.4-1.6l0.7-1.3
	l2,0.3l1.4,1.8l2.1,1.4l2.2,0.2l3.3-1.3l1.7-0.9l1.8-2.2l1.4-2.1l1.9-1.3l1.7-0.2l2.1,0.2l2-0.2l2.1,0.2l1.8,1.2l2.3,3.4l1.2,5.6
	l1.5,3.1l3.2,4.5l0.8,1.9L219.4,358.6L219.4,358.6z"/>
<path id="YEM154" class="st0" d="M117.2,203.3l-0.4,14.5l1.2,11.5l-0.2,1.4l-0.2,1.8l0.1,1.5l0.2,1.2v1.3l0.5,0.9l2.4,1.7l0.9,1.4
	l-0.1,2.5l0.3,2.1l0.1,1.9l3.2,6.5l-0.1,1.2l-0.7,0.9l-1.9,1.5l-0.8,1.8l1,0.9l0.9-0.2l3.1-3.6l0.8-0.3l0.8,0.4l1,0.9l2,3.3l0.8,3.2
	l0.5,3.3l-0.3,1.6l-0.3,3l0.5,2.1l0.2,1.6l1.4,1.2l0.5,0.8l-0.4,3l-0.6,2.3l-0.8,1l-1.3,0.3l-1.5-0.4l-1.3,0.1l-1,0.7l-0.7,0.7
	l-0.4,0.9l-0.3,1.1v1.1l1.1,2l-0.1,1.2l-1.6,3.1l-2.2-0.7l-7.3-0.8l-1.7,0.1l-1.7-0.2L98.6,294l-4.5,1.6l-1.2-7.3l0.1-1.1l0.4-0.9
	l0.6-4.8l-1-2.8v-1.5l0.7-1.2l0.5-1.4l0.5-2.1l0.2-2.7l-1-2.3l-2.1-1.6l-8.3,0.7l-3.1,0.7l-1.2,0.9l-1.7,0.9l-3.5-0.3l-5.4,0.8
	l-13.1-7.9l0.7-11.6l-0.3-3.8l-2.2-11.8l-0.3-6.3l-0.6-2.3v-1.1l-1-1.5l3.9-1.4l2.8-1.2l2.1-1.4l0.7-1.4l-0.3-2.6l0.3-1.1l0.9-0.4
	l3.1-0.6l1.2-0.4l3.5-2.1l1.7-1.3l1-1.4l2.1-5.5l0.4-1.6l0.1-1.8l0.4-1.2l1-0.4l2,0.4l3.2,1l1.4-0.3l0.5-1.7l1.6,1l13.6,4l1.4,0.8
	l1.7,0.2l6.1-0.4L117.2,203.3L117.2,203.3z"/>
<path id="YEM155" class="st0" d="M164.6,201.4l4.2,2.8l1.3,0.6l4.6,3.5l1.2,1.3l0.5,1.4l-0.4,1.2l-0.8,1v1.5l1.2,2.4l0.7,3.1
	l0.7,2.2l1.1,2l0.3,1.9L179,228l-0.4,1.5l0.4,1.1l0.5,0.8l0.1,1.2l-1.8,5.5l0.8,2.2l0.1,2.6l0.4,2.3l2.6,4.6l2,2.3l-4.4,0.3
	l-4.7,1.8l-4.7,2.5l-0.8,1.9l-0.7,2.2l0.4,4.6l0.5,2.3l0.6,1.6l-0.1,1.8l-0.4,1.6l-1.7,2.4l-2.3,1.7l-1.5,2.2l-0.1,3.8l-0.9,3.5
	l-4.9,3.9l-2.3,1.1l-2.6,0.4l-3.1-0.3l-1.1,1.2l0.1,1.3l-0.9,2.1l-5-2.4l-1.5-0.9l-0.7-1l-1.1-0.4l-1.5-0.2l-1.5,1.1l-3.6,1.4
	l-4.2-0.1l-1.5,0.5l-1.8,0.2l1.6-3.1l0.1-1.2l-1.1-2v-1.1l0.3-1.1l0.4-0.9l0.7-0.7l1-0.7l1.3-0.1l1.5,0.4l1.3-0.3l0.8-1l0.6-2.3
	l0.4-3l-0.5-0.8l-1.4-1.2l-0.2-1.6l-0.5-2.1l0.3-3l0.3-1.6l-0.5-3.3l-0.8-3.2l-2-3.3l-1-0.9l-0.8-0.4l-0.8,0.3l-3.1,3.6l-0.9,0.2
	l-1-0.9l0.8-1.8l1.9-1.5l0.7-0.9l0.1-1.2L122,247l-0.1-1.9l-0.3-2.1l0.1-2.5l-0.9-1.4l-2.4-1.7l-0.5-0.9v-1.3l-0.2-1.2l-0.1-1.5
	l0.2-1.8l0.2-1.4l-1.2-11.5l0.4-14.5l10.4-2.5l1.6-0.7l2.3-1.2l1.1-0.8l2.1-0.7h3.2l5.7,1.5l8.2,3.4l3.7,0.7l3.4,0.1L164.6,201.4
	L164.6,201.4z"/>
<path id="YEM156" class="st0" d="M200.2,398.5l2.7,1.7l-0.1,4.7l0.8,1.2l0.9,0.3l2.8,1.7l-0.9,2.6l-1.2,1l-1.6-0.1l-1.7,0.2
	l-0.7,0.7l-0.1,1.1l-0.8,1.8l-1.3,1.3l-0.6,1.8l0.5,1.7l1.5,1.4l-0.8,1.5l-1.5,0.4h-1.6l-1.9,0.4l-2.1,0.8l-2,1.4l-1.3,2.1l-0.2,1.5
	l-0.6,2.4l-0.8,0.5l-0.9-0.1l-1,0.6l-1.2,3.4l-1.3,0.8l-0.6,1.5l0.1,0.5l-0.5,2.1l-0.8,1.2l-1.1,1.3l-3,2.1l-2,0.2l-1.7-0.6
	l-1.2-0.6l-1.6-0.6l-2.9-0.1l-6-1.9l-2-1.2l-4.1-0.5l-9.3-2.7l-0.6-1.1l0.4-1v-1.6l-1.2-0.5l-3.7,1.5l-0.7-0.9l0.1-1.5l-0.5-1.2
	l-3.8,0.5l-1.7,0.8l-2-0.6l-1.8,0.9l-4.8-0.2l-2.2-4.2l2.1-0.7l0.9,0.2l-0.1-1.3l-0.7-1l-1.1-1.5l0.3-1.1l1.4-0.6l1.3,0.5l0.7,0.5
	l1.3-0.8l3.1-5l0.5-2.3l-0.4-1.4l-0.2-2.3l1.2-2.7l1.1-1.6l1.3-3.5l1.3-1.9l0.6-1.3l0.7-0.1l0.4,0.8l-0.3,1.8l0.3,1.5l1.3,0.6
	l2.2-0.5l1.9-1l2.1-4l0.1-1.9l-0.2-1.9l-0.7-1.3v-1.4l0.6-0.8l1.3-0.6h1.9l1.8-2.3l2.2-1.8l1.9-2.1l1.5-0.6l1.2,0.2l1.1,4.3l0.6,1.2
	l2.1,0.5l3.7-1.5l0.9-1.4l0.6-1.4l0.1-1.1l0.9-1.4l1-0.3l1.3,0.5l3.5,2.9l1.5,1.6l1.8,0.8l4,1.1l1.8,1.1l2.3,0.8l1.9,0.8l3.7,2.4
	l4.6,1.6l2.4,1L200.2,398.5L200.2,398.5z"/>
<path id="YEM157" class="st0" d="M262.7,430.2l-3,0.8l-0.6,1.3l-0.3,2.6l0.3,1.7l-0.3,1.3l-2.3,1.3l-3,0.7l-1,1l-0.6,1.3l0.3,1.3
	v1.4l-0.2,1.2l-1.5,1.2l-3.1,1.9v1.1l1.2,0.6l4.1,0.2l1.4,0.6l0.4,0.8l-0.8,1.1l-4.5,5.1l-2.2,3.4l-0.2,3.3l0.3,2.4l1.1,1.3l1.2,0.7
	l1,1l0.1,1l-0.7,1.8l-3.9,2.7l-5.3,14.7l-2.6,18.8l-0.5,1l-6.8,0.5l-14.7,4l-16.7,2.8l-7.3,2.7l-3.6,2.1l-5.6,8.7l-0.2-0.9l-0.4-0.1
	l-1.9,0.7l-2.3,0.6l-5.2,2.5l-1.8,0.2l-1.6-0.2h-1.6l-3,1.7H163l-1.5-0.5l-1-1.2l1.1,0.1l2,0.4l1.1,0.1l0.7-0.6v-1.1l-0.6-0.7
	l-0.9,0.7l-2.1-0.3l-2.6,1.1l-4.8,2.6l-2.3,0.6h-1.3l-2.1-0.7l-2.4,1.1l-1.2,0.1l-1.6-1l-1.4-2.9l-1.2-0.6l-1.6-0.2l-1.4-0.6
	l-2.2-1.5l-1.3-0.7l-1.5-0.5l-1.7-0.4l-1.8-0.1l-1.1-0.4l-3.1-1.8l-1.6-0.6h-2.9l-0.7-0.3l-1.3-0.9l-1.5-0.6l-1,0.4l-4.6,4.6
	l2.9-5.9l6.2-9.5l4.6-4.6l2.8-4.3l0.2-1.9l-0.3-1.3l-0.7-1v-1.4l1.1-0.8l2.9-0.4l1.2-0.6l1.4-0.7l1.2-1.2l1.6-0.7l1.6-0.4l1.6,0.2
	l1.5,0.7l1.5,0.5l3,1.8l1.5,1.3l2.2,1l1.5,0.1l0.4-1.3l-0.3-4.1l0.6-0.5l3.1,1.9l1.9,0.3l0.9-0.8l0.4-1.8l0.8-1.6l1-0.3l1.8-0.2
	l0.9-0.7l-0.1-2.5l1.8-1.5l1-1.8l3.4,0.6l3.4-0.1l4.2-1l1.9-1.5l0.3-1.9l-0.4-1.6l0.2-2.1l-0.1-1.4l-0.7-1.6l0.5-1.1l1.8-0.5
	l5.2-0.1l0.8-0.9l-0.2-1.5l-0.9-1.1l-2.4-0.3l-1.1-0.6l-1.4-0.6l-0.6-1.2l0.6-1.4l1.3-0.8l1.4-0.6l2.3-0.4l0.6-0.5l-0.1-1.1l0.3-0.6
	l1-0.3h1.1l1.4-0.6l0.8-0.9l0.7-1l1.1-0.5l0.7-1.8l3.2,1.2l1.1,1.3l3.3,2.5l2.2-0.4l2.9-2l5.5-2.3l1.3-1.6l1.3-0.8l3.2,1.2l1.8-0.2
	l0.5-1.7l-0.3-2l0.1-6.1l2-0.4l2.6-0.2l6.6-2.7l3.6-2.4l3.4-1.6l2.9-2.8l5-11.2l4.7,0.1l1.3,0.2l2.5-1.3l1.8-1.6l4.2-2.7l1.8-0.3
	l1.3,0.7l1,4.2L262.7,430.2L262.7,430.2z"/>
<path id="YEM158" class="st0" d="M105,533.3l-0.1,1.1l-1,0.6l-0.5-0.2l-1.4-1.5l-1,0.2l-0.5-0.2l-0.2-1.1l1.3-0.6l1.8-0.1l1.1,0.6
	C104.5,532.1,105,533.3,105,533.3z M182.2,441.4l1.5,2.3l0.2,1.9l-0.3,2l-0.7,1.9l-0.1,1.7l1.2,1.3l1.7,0.5l1.8-0.4l1.8,0.1l2.5,1.3
	l0.4,1l0.2,1.7l-0.7,1.8l-1.1,0.5l-0.7,1l-0.8,0.9l-1.4,0.6h-1.1l-1,0.3l-0.3,0.6l0.1,1.1l-0.6,0.5l-2.3,0.4l-1.4,0.6l-1.3,0.8
	l-0.6,1.4l0.6,1.2l1.4,0.6l1.1,0.6l2.4,0.3l0.9,1.1l0.2,1.5l-0.8,0.9l-5.2,0.1L178,474l-0.5,1.1l0.7,1.6l0.1,1.4l-0.2,2.1l0.4,1.6
	l-0.3,1.9l-1.9,1.5l-4.2,1l-3.4,0.1l-3.4-0.6l-1,1.8l-1.8,1.5l0.1,2.5l-0.9,0.7l-1.8,0.2l-1,0.3l-0.8,1.6l-0.4,1.8l-0.9,0.8
	l-1.9-0.3l-3.1-1.9l-0.6,0.5l0.3,4.1l-0.4,1.3l-1.5-0.1l-2.2-1l-1.5-1.3l-3-1.8l-1.5-0.5l-1.5-0.7l-1.6-0.2l-1.6,0.4l-1.6,0.7
	l-1.2,1.2l-1.4,0.7l-1.2,0.6l-2.9,0.4l-1.1,0.8v1.4l0.7,1l0.3,1.3l-0.2,1.9l-2.8,4.3l-4.6,4.6l-6.2,9.5l-2.9,5.9l-0.4,0.5l-1.1,0.6
	l-1.7,0.2l-1.9-0.3l-0.4-0.8l1.5-6.6l0.1-3.2l-0.8-2.9l-1.6-2.6l-2.4-2.3l-0.6-1.9l-1.1-1.2l-0.3-0.6l-0.1-1.6l-0.3-1.6l-0.5-1.5
	l-0.8-1.3l-2.8-3.2l-0.6-1.7l-1-1.9l-0.8-2.1l-0.3-0.7l-4.8-6.1l-1.8-5.9l1-2.6l0.7-2.8l0.5-14.7l1.7-2.6l0.4-1.4l0.3-0.5l0.9-0.4
	l-1.1-2.6l0.2-4l0.3-0.1l5.7-4.6l2.3-1l2.8-0.8l1.8-0.3l0.9-1.1l0.8-1.6l6.1-8l2.9-1.3l2-0.6l6.7-1.1l2.2,4.2l4.8,0.2l1.8-0.9l2,0.6
	l1.7-0.8l3.8-0.5l0.5,1.2l-0.1,1.5l0.7,0.9l3.7-1.5l1.2,0.5v1.6l-0.4,1l0.6,1.1l9.3,2.7l4.1,0.5l2,1.2l6,1.9l2.9,0.1l1.6,0.6
	l1.2,0.6l1.7,0.6l2-0.2l3-2.1l1.1-1.3L182.2,441.4L182.2,441.4z"/>
<path id="YEM332" class="st1" d="M697.9,330.1l-0.2-0.5l-0.1-1.6l-0.7-1.2l-0.6-1.5l-0.9-1.5l-0.6-2.1l-0.9-1.6l-0.7-1.6l-1.5-2.1
	l-1.8-0.9l-4.4-0.7l-5.4-1.4l-5.4,0.3l-1.8,0.7l-2.1,0.5l-6.2,0.6l-4-0.1l-5.1-1.8l-1.2-1.4l-0.5-1.4l-0.1-1.6l0.2-1.4l1-1.5
	l1.2-1.5l1.5-2.7l1.3-1l0.9-1.3l0.4-3.4l-0.5-1.6l-0.8-0.8l-3.4-1l-2.3-0.2l-2.5-0.8l-1.4-1.9l-0.8-2.9l0.7-3.3l0.6-2.1l0.8-1.8
	l-0.1-1.5l-0.3-2l-0.1-2.3l0.8-2.4v-2.1l0.7-2.9l1.3-1.5l1.4-2.4l3.1-8.6l-0.5-2.9l-0.9-2.2l-1.8-1l-1.1-1.2l-1.3-1.6l0.2-3.1
	l6.3-24.4l-0.7-3l-0.9-1.8l-0.1-1.9l1.4-3.3l1.7-2.2l1.9-1.6l3.4-2.1l14.2-5.9l6.5-4.4l6.2-7.4l32.4-26.9l10.5-15.6l9.9-22.2
	l7.6-24.1l4.9-25.4L771.1,35l22-32.6l12.6,30.1l3.5,8.2l6.9,16.4l3.4,8.2l10.3,24.6l10.4,24.5l3.4,8.2l9.5,22.4l-0.7,0.1l1.2,0.8
	l3,0.2l1.4,0.5l0.9,1.1l13.1,30l10.1,22.8l-1.7,0.9l-3.8,1l-3-0.7l-0.9,0.8l-1.8,0.2l-0.9,0.5l-1.5,1.6l-0.9,0.7l-2,0.6l-2.8,1.6
	l-3.3,0.7l-1.7,0.7l-2.9,1.8l-1.3,0.6l-11.2,2.9l-5.2,2.5l-9.1,6.4l-8.2,6.7l-2.1,2.3l-1,1.7l-1.5,2.9l-2.6,3.1l-0.6,1l-0.4,1
	l0.2,1.9l0.4,1l-0.6,1.6l-1.8,2.1l-0.8,3.4l-2,2.3l-0.3,1.5l0.6,1.6l1.1,1.9l0.8,2l-0.9,3.4l1.3,1.3l2.6,1.3l0.1,1.3l-0.7,6l0.4,3.6
	l0.8,3.6l0.9,0.9l0.1,1l-0.4,0.8l-0.2,1.1l-0.6,1.1l-0.7,0.2l-1.7,0.2l-12.3,3.4l-1.7,1.6l-0.7,0.2l-2,0.3l-6.4,2.5l-3.1,2l0.1,1.9
	l-0.6,0.5l0.1,1l-0.3,0.1l-1.5-0.8l-0.7-0.6l-0.7-0.2l-1.6,1.1l-4.1,0.9l-6.4,3.5l-1,1l-0.4,1.2l0.5,1.6l0.7,0.9v0.6l-1.7,0.6
	l-8.6,0.8l-1.5,0.5l-1.4,0.8l-1.2,0.8l-1.9,2.3l-1.6,0.1l-0.7,0.2l-0.2,0.6h-0.9l-4.1,1.8l-1.1,0.7l-2.1-0.7l-2.2,1l-2.1,1.3
	l-1.6,0.7l-16,4.4l-17.6,3.3L697.9,330.1L697.9,330.1z"/>
<path id="YEM333" class="st2" d="M275.8,364.2h9.1l1.9,0.9l1.4,1.2l-0.4,1.6l-1,1.7l-0.6,1.7l-0.1,2l1.5,1.3l3.5,0.8l1.8,1.5
	l4.6,12.3l1.8,2.8l2.8,1.9l3.7,0.7l3.4,1.4l1.6,1.1l0.2,1v0.9l0.3,1l0.1,1.1l0.7,1.4l0.3,1.4l1.8,1.7l-1.2,7l-2.2,3.1l-1.3,3.9
	l-3,2.7l-13.8,10.2l-3.3,2l-2.5,1.1l-2.2,0.5l-1.7,0.2h-1.6l-2.9-1.5l-1.2-2.3l-2.5-0.8l-11.2-1.1l-0.9-0.4l0.5-6.4l-1-4.2l-1.3-0.7
	l-1.8,0.3l-4.2,2.7l-1.8,1.6l-2.5,1.3l-1.3-0.2l-4.7-0.1l-0.1-2.2l-0.4-2l-2.1-2.5l-6-5.7l-2.2-2.8l-1.4-2.5l-1.8-2.3l-2.6-1
	l-3.4-0.1l-2.1-0.3l-1.8,0.7l-1.3,0.2l-1.1,0.9l-1.4,0.5h-2.2l-2.3,0.4l-1.6,1l-3.5,1.3l-2.8-1.7l-0.9-0.3l-0.8-1.2l0.1-4.7
	l-2.7-1.7l1.9-4.4l3-1.5l2.7-2.6l2-4l1.5-11.8l2-8.2l6.1-7.4l4.3-0.6l3.4-1.4l3.4-2.9l4.3,0.9l2.2,1.2l1.6,1.8l0.4,2.2v2.5l0.7,4.3
	l0.8,2.8l0.1,2.7l0.7,1.9l0.2,1.8l0.7,1.8l1,1.6l1.6,0.9h2.6l3.1-2.3l0.9-1.1l1.4-0.5l3.3,0.8l0.6-0.9l-0.4-0.9l0.7-0.8l1.5-0.2
	l2.3-0.8l2.7-1.3l2.8-0.2l2.1,0.6l1.8,0.3l1.3-0.5v-1.5l-1.4-2.6l0.1-1.2l0.7-0.9l0.8,0.2l1,1.4l0.8,0.5l1.2-0.6l0.6-0.7
	L275.8,364.2L275.8,364.2z"/>
<path id="YEM334" class="st0" d="M244.6,424.5l-5,11.2l-2.9,2.8l-3.4,1.6l-3.6,2.4l-6.6,2.7l-2.6,0.2l-2,0.4l-0.1,6.1l0.3,2
	l-0.5,1.7l-1.8,0.2l-3.2-1.2l-1.3,0.8l-1.3,1.6l-5.5,2.3l-2.9,2l-2.2,0.4l-3.3-2.5l-1.1-1.3l-3.2-1.2l-0.2-1.7l-0.4-1l-2.5-1.3
	l-1.8-0.1l-1.8,0.4l-1.7-0.5l-1.2-1.3l0.1-1.7l0.7-1.9l0.3-2l-0.2-1.9l-1.5-2.3l0.5-2.1l-0.1-0.5l0.6-1.5l1.3-0.8l1.2-3.4l1-0.6
	l0.9,0.1l0.8-0.5l0.6-2.4l0.2-1.5l1.3-2.1l2-1.4l2.1-0.8l1.9-0.4h1.6l1.5-0.4l0.8-1.5l-1.5-1.4l-0.5-1.7l0.6-1.8l1.3-1.3l0.8-1.8
	l0.1-1.1l0.7-0.7l1.7-0.2l1.6,0.1l1.2-1l0.9-2.6l3.5-1.3l1.6-1l2.3-0.4h2.2l1.4-0.5l1.1-0.9l1.3-0.2l1.8-0.7l2.1,0.3l3.4,0.1l2.6,1
	l1.8,2.3l1.4,2.5l2.2,2.8l6,5.7l2.1,2.5l0.4,2L244.6,424.5L244.6,424.5z"/>
<path id="YEM335" class="st0" d="M391,174.7l3.3,50.8l-16.6,16.4l-67.5,12.6l-24.3,8.6l-10.4,9l-9.2,0.8l-17-2.7l-19.5-10.3
	l-27.1-6.4l-5.3-3.3l-6.9-0.5l-1.6,0.7l-0.7,0.7l-4.5,1l-2-2.3l-2.6-4.6l-0.4-2.3l-0.1-2.6l-0.8-2.2l1.8-5.5l-0.1-1.2l-0.5-0.8
	l-0.4-1.1l0.4-1.5l0.2-1.7l-0.3-1.9l-1.1-2l-0.7-2.2l-0.7-3.1l-1.2-2.4v-1.5l0.8-1l0.4-1.2l-0.5-1.4l-1.2-1.3l-4.6-3.5l-1.3-0.6
	l-4.2-2.8l1.2-2.9l1-4.3l1.6-3l1-1.5l1.8-1.4l2-0.8l0.6-0.5l1.2-0.5l3.3-2.2l1.5-1.6l1.2-0.2l0.8-0.7l1.4-2.6l1.1-1l3.2-4.6l1.5-1.5
	l10.6-5.4l4.5-1.6l5.4-1.2l5.1-0.1l4.7,0.5l6.7-3.4l1.8-26.9l15.5,0.1l4.6,1l13.1,7.7l3.7,1.2l71.9,7.4l31.3-4.3l2.9,1.7l11.2,15.7
	l6.8,9.5l1.1,0.6L391,174.7L391,174.7z"/>
<path id="YEM336" class="st0" d="M527,417.9l-8.6-0.2l-1.4,0.5l-3.6,3.1l-0.8,0.3l-1.3,0.2l-0.7,0.7l-1.5-1.8l-2.8-0.5h-6.2l0.6,1.1
	l-3.4,0.1l-9.3,2.7l0.4-2l-1.3-1.3l-1.8-0.9l-1.2-0.9l-0.5,0.6l-2.2-1l-7.2-1.8l-1.2,0.7l-4.3,1.3l-1.4,0.2l-1.1,0.8l-4.1,4.9
	l-3.7,2l-12.4,4.2l-1.7,1.2l-6.6,7l-10.3,9.2l-3.1,1.9l-5.9,1.9l-0.8-4.3l-0.6-2.1l-0.1-3.2l-2.5-8l-4.2-8.9l0.8-2l1.1-1.5l1-2.1
	l-0.4-2.7l0.1-3.7l-1.1-3.5l-2.9-1.9l-11.1-0.6l-5.4-1.2l-5.2-1.9l-5.8-0.7l-6.1,0.8l-8.1,2.2l-6.4,2.8l-9.4,1.6l-1.4-2l-0.5-2.3
	l-2.8-5.1l-1.1-3.1l-1.9-2.3l-2.4,0.2l-2.5,1.3l-7.1,2.6l-2.4,1.8l-3.1,1.5l-3.6,1.2l-7.3,0.6l-1.8-1.7l-0.3-1.4l-0.7-1.4l-0.1-1.1
	l-0.3-1v-0.9l-0.2-1l-1.6-1.1l-3.4-1.4l-3.7-0.7l-2.8-1.9l-1.8-2.8l-4.6-12.3l-1.8-1.5l-3.5-0.8l-1.5-1.3l0.1-2l0.6-1.7l1-1.7
	l0.4-1.6l-1.4-1.2l-1.9-0.9h-9.1l-1.7-1.1l-1-1.1l-0.7-2.4l0.2-4.5l0.3-2.5l0.6-2.2l-0.2-1.8l1.1-0.7l0.3-1v-1.5l0.6-3.3l1.9-3.5
	l0.6-1.8l1.7-3.6l11.2-9.5l47.3-33.2l113.6-8.8l7.3,2.6l1,2.7l-10.5,16.5l-3.6,4.2l-1.8,4.1l-0.8,2.9l-0.1,2.1l-2.3,7.1l-0.2,2.3
	v2.1l2,2.1l3.4,4.5v2.5l-1.2,2.4L432.7,351l-1.9,2.3l0.6,2.1l9,6.4l5.7,5.6l6.1,4.1l6.3,2.2l8.3,1.3l5.9,0.1l2,0.8l2.1,1.1l1.6,1.9
	l1.6,3.3l0.8,2.5l2,2.7l1.1,2.2l4,4.1l5.9,2.9l5.4,0.5l6.2-0.2l6.8,1.8l7.4,3.5l1.8,2l1.2,1.8l0.7,1.7l0.2,1.4l0.5,1.3l2.2,4.1
	l0.6,1.6L527,417.9L527,417.9z"/>
<path id="YEM337" class="st0" d="M338,290.5l-47.3,33.2l-11.2,9.5l-1.7,3.6l-0.6,1.8l-1.9,3.5l-0.6,3.3v1.5l-0.3,1l-1.1,0.7l0.2,1.8
	l-0.6,2.2l-0.3,2.5l-0.2,4.5l0.7,2.4l1,1.1l1.7,1.1l-0.5,2.7l-0.6,0.7l-1.2,0.6l-0.8-0.5l-1-1.4l-0.8-0.2l-0.7,0.9l-0.1,1.2l1.4,2.6
	v1.5l-1.3,0.5l-1.8-0.3l-2.1-0.6l-2.8,0.2l-2.7,1.3l-2.3,0.8l-1.5,0.2l-0.7,0.8l0.4,0.9l-0.6,0.9l-3.3-0.8l-1.4,0.5l-0.9,1.1
	l-3.1,2.3h-2.6l-1.6-0.9l-1-1.6l-0.7-1.8l-0.2-1.8l-0.7-1.9l-0.1-2.7l-0.8-2.8l-0.7-4.3v-2.5l-0.4-2.2l-1.6-1.8l-2.2-1.2l-4.3-0.9
	l0.1-5l0.4-1.3v-1.6l-1.1-1.1l0.2-0.7l0.9-1l0.6-1.6l1-1.9l1.8-1.9l1.1-2.4l0.4-1.2l1.3-1l4-1.8l1.2-2l0.9-2.6l-0.3-2l0.3-1.6v-1.8
	l-0.9-2.9l-1.5-1.6l-2.5-1.1l-3.6-0.4l-2.9-0.7l-2-1.9l-2.7-2.9l-3.5-2.8l-1.5-0.4l-1.2-0.3l-1.7,1l-0.9,1.5l-1,2l-2.8,0.8l-2.6-1
	l-2.8-3.3l-2.7-2.3l-1.9-0.7l-1.8-0.2l-1.2-0.5l-0.4-1.3l1.7-1.6l9.5-6.6l2.2-2.4l1.6-3.2l-1.7-2.8l-5.3-6.7l-1.2-3.8v-5.8l-1.4-7.8
	l-3.9-8l27.1,6.4l19.5,10.3l17,2.7l9.2-0.8l10.4-9l24.3-8.6l67.5-12.6L338,290.5L338,290.5z"/>
<path id="YEM3496" class="st0" d="M202.7,253.5l3.9,8l1.4,7.8v5.8l1.2,3.8l5.3,6.7l1.7,2.8l-1.6,3.2l-2.2,2.4l-9.5,6.6l-1.7,1.6
	l0.4,1.3l1.2,0.5l1.8,0.2l1.9,0.7l2.7,2.3l2.8,3.3l2.6,1l2.8-0.8l1-2l0.9-1.5l1.7-1l1.2,0.3l1.5,0.4l3.5,2.8l2.7,2.9l2,1.9l2.9,0.7
	l3.6,0.4l2.5,1.1l1.5,1.6l0.9,2.9v1.8l-0.3,1.6l0.3,2l-0.9,2.6l-1.2,2l-4,1.8l-1.3,1l-0.4,1.2l-1.1,2.4l-1.8,1.9l-1,1.9L231,343
	l-0.9,1l-0.2,0.7l1.1,1.1v1.6l-0.4,1.3l-0.1,5l-3.4,2.9l-3.4,1.4l-4.3,0.6l-0.1-2.9l-0.8-1.9l-3.2-4.5l-1.5-3.1l-1.2-5.6l-2.3-3.4
	l-1.8-1.2l-2.1-0.2l-2,0.2l-2.1-0.2l-1.7,0.2l-1.9,1.3l-1.4,2.1l-1.8,2.2l-1.7,0.9l-3.3,1.3l-2.2-0.2l-2.1-1.4l-1.4-1.8l-2-0.3
	l-0.7,1.3l-0.4,1.6l-1.1,1.5l-2.4,0.8L172,344l-1.9-1.6l-1.6-1.8l-2.2-0.8l-1.4-1l-2.2,0.1l-2.6,0.5l-2.8,1l-4.4,3.2l-1.9,1.1
	l-1.6,1l-1.5,0.9l-2.8,2.6l-1.8,0.5l-3.1,0.3l-3.8-0.4l-1.2,1.1l-3.4-1l-0.3-0.9l-4.2-0.6l-0.6-2.5l-1.3-1.9l1.3-2l0.5-0.4v-0.9
	l-1.9-1.8l-1.6,0.2h-1.5l-2.2-0.5l-2.5-1.4l-2.7-2.5l2.1-3.4l1-0.9l0.8-2l-0.3-4.1l0.6-2.2l1.4-1.8l5-3.1l0.9-0.9l5.4-1.1l3-3.1
	l5.7-4.1l1.7-0.8l3.2-2.2l1.4-1.5l0.4-3.6l1-3.7l0.9-2.1l-0.1-1.3l1.1-1.2l3.1,0.3l2.6-0.4l2.3-1.1l4.9-3.9l0.9-3.5l0.1-3.8l1.5-2.2
	l2.3-1.7l1.7-2.4l0.4-1.6l0.1-1.8l-0.6-1.6l-0.5-2.3l-0.4-4.6l0.7-2.2l0.8-1.9l4.7-2.5l4.7-1.8l4.4-0.3l4.5-1l0.7-0.7l1.6-0.7
	l6.9,0.5L202.7,253.5L202.7,253.5z M181.5,291.6l-0.6-0.8l-1.4-0.9l-1.7-1.8l-2.6-1.1l-1.1,0.1l-1.9,0.8l-1,1.1l-1,1.5h-1.1
	l-0.7,0.3l-0.6,0.7l-1.5,0.5l-0.7,0.9l-0.1,2.2l0.1,0.9l-0.8,0.1l-0.3,0.7l-0.6,0.8l-1,0.2l-0.5,0.6l-3.2,0.9l-0.1,0.7l0.4,1
	l0.7,0.6l1.4,0.8l1.1,1.3l0.1,0.9l-1.2,0.4l-0.6,0.7l-0.4,1.7l0.3,1.4l2.8,1.9l0.3,0.8l-0.3,1.8l0.3,0.4h3.8l0.7-0.1l-0.1-1.2
	l0.3-0.5l0.8-0.1l0.7-0.4l0.3-0.7v-1.6l-0.4-1.1l-0.5,0.1l-0.5-0.4l-0.3-1.8l-0.6-1.1l-0.1-0.8l0.2-0.9l-0.1-0.7l0.4-0.8l1.1-1.1
	l2.2-1.6l0.2-0.8l-0.4-1.9l0.5-0.8l0.6-0.8l0.5,0.8l0.5-0.8l2.5,0.2l0.3-0.6v-0.9l0.3-0.8l1-0.8l0.9,0.2l-0.3,1.3l0.6,0.4l1.3-0.1
	l0.7-0.5l0.5-0.7L181.5,291.6L181.5,291.6z"/>
<path id="YEM3497" class="st0" d="M899.7,577.4l0.2,0.6l-3.8-0.3l-1.2-0.5l1.6-0.6l1.5,0.1L899.7,577.4z M878,572.3l1.1,0.5h1.3
	l1.1,0.8l0.4,1.3l-0.1,1.2l-1.2,0.3l-1.2,0.2l-2.4-0.9l-1.6-1.4l-1.7-0.5l0.2-0.8l1.3-0.4l1,0.1l0.9-0.3L878,572.3L878,572.3z
	 M808.7,569.5l1.7,0.7l1.3-0.1l2.4,0.4l3.5,0.1l2.4,1.1l4.4-1.1l1.2,0.3l0.5,0.8l-1.1,0.4l-0.8,0.9l0.6,0.5l0.8,1.4l-2.3-0.4
	l-2.4,0.6l-3.7-0.7l-3.6-0.2l-1.3-1.9h-1l-1.7,0.5l-0.9,0.1l-0.3-0.3l-1.1-1.7l-0.4,0.1l-1.6-0.7l-2,0.5l-0.8-0.7l-2.7-1.2l-0.4-1.1
	l1.2-0.4l1.2-0.2l2,0.1l2.4,0.5L808.7,569.5L808.7,569.5z M921.1,529.1l2.6,0.3l3.9-0.4l3.2,2.9l5.5,4.1l6.7,1.8l1.7-2.1l0.8-2
	l2.2-0.4l1.5,0.2l1.4,0.6l2.7-0.3l2.8,0.1l3-1.8l1-0.3l2-1.3l0.8-1l2.2-0.2l1,1l1.2,0.9l1.7,1.1l1.2-0.3l1-0.6l0.4,0.2l1.5,1.7h1.5
	l1.8,0.4l0.8,1.3l1.2,0.5l2.8,1.2l3.3,0.7l3.3,1.9l1.7,0.5l3.9,2.5l2.1-0.3l1.5-0.9l0.9,0.1l1.1,0.6l-1,1l-2.4,0.7l-1.7,0.5
	l-1.6,0.3l-0.8,0.7l-0.2,2.2l-3.4,1.4l-2.7,0.7l-3.3,1.3l-3.6-0.3l-3,1.1l-0.7,0.7l-1.5,2.1l-0.7,0.5l-2.1,0.9l-2.4,1.9l-1.1,0.7
	l-2.4-0.2l-3.8,0.3l-1.3-0.2l-1.4,0.3l-1.8,1.6l-3.1-1l-2.4,0.6l-3.5,0.5l-9.7,1.9l-3.6,0.4l-4.7-0.5l-4.4-1.3l-3.7-1l-1.7-1.7
	l-2.6-3.2l-1.1-1.9l-2.1-0.7l-3.4-2.2l-8.3-5.3l-2-1.8l-0.2-0.5l0.7-0.5l2.2,0.6l1.6-0.2l2.1-1.3l0.2-0.7l0.9-2.4l-0.5-4.8l1.2-0.5
	l1.3-0.3l3.4-0.5l1.7-2.5l0.7-0.8l1.6-0.2L921.1,529.1L921.1,529.1z M697.9,330.1l-11.5,3.2l-8.7,0.9l-7.6,3.1l-2.2,1.3l-6,5.2
	l-1.2,0.7l-3.3,0.6l-4.7,2.5l-5.2,3.7l-1.2,0.1l-1.5-0.6l-2,0.4l-3.4,1.6l-1.5,0.4l-1.5,0.2l-0.5-1.7l-0.5-1l-0.7,0.1l-1.2,0.4
	l-5.1,0.5l-11.6,3.9l-17.8,4.5l-9.5,5.4l-3.4,1.4l-3.6,0.5l-1.7,0.9l-3.2,2.2l-6.7,3.2l-3.1,2.2l-0.7,2.7l-0.8-0.2l-1.2-0.6
	l-1.6-0.6l-1.9,0.2l-1.7,0.9l-1.2,1.1l-4,5.8l-1.5,3l-0.7,3.4l0.6,0.5v0.9l-0.4,1.5l-0.9,0.7l-3.4,1.3l-0.7,0.6l-0.4,2l-1.2,0.7
	l-1.4,0.3l-1.4,0.6l-0.5,1.3v1.9l-0.3,0.5l-1.1,1l-0.9,2.3l-1.3,0.9l-3.1,1.3l-4.8,6l-1.5,0.9l-0.4,0.2l-1,0.7l-1,0.3l-1.4-0.1
	l-0.2-1.8l-0.6-1.6l-2.2-4.1l-0.5-1.3l-0.2-1.4l-0.7-1.7l-1.2-1.8l-1.8-2l-7.4-3.5l-6.8-1.8l-6.2,0.2l-5.4-0.5l-5.9-2.9l-4-4.1
	l-1.1-2.2l-2-2.7l-0.8-2.5l-1.6-3.3l-1.6-1.9l-2.1-1.1l-2-0.8l-5.9-0.1l-8.3-1.3l-6.3-2.2l-6.1-4.1l-5.7-5.6l-9-6.4l-0.6-2.1
	l1.9-2.3l13.1-11.2l1.2-2.4v-2.5l-3.4-4.5l-2-2.1v-2.1l0.2-2.3l2.3-7.1l0.1-2.1l0.8-2.9l1.8-4.1l3.6-4.2l10.5-16.5l-1-2.7l-7.3-2.6
	L338,290.5l39.7-48.6l16.6-16.4l-3.3-50.8l10.6,0.4l2.6-0.3l2.4-1l19.1-11.2l2.4-3.3l9.2-25.5l1.4-2.6l19.9-25l12.7-16l7.3-9.2
	l6.3-7.9l1.8-1.3l24.2-12.4l29.2-15.1l15.2-7.8l7.5-2.8l10.4-1.5l103.3-14.7l12.9-1.8l12.9-1.9L792.5,1l0.6,1.4l-22,32.6l-13.9,35.1
	l-4.9,25.4l-7.6,24.1l-9.9,22.2l-10.5,15.6l-32.4,26.9l-6.2,7.4l-6.5,4.4L665,202l-3.4,2.1l-1.9,1.6l-1.7,2.2l-1.4,3.3l0.1,1.9
	l0.9,1.8l0.7,3l-6.3,24.4l-0.2,3.1l1.3,1.6l1.1,1.2l1.8,1l0.9,2.2l0.5,2.9l-3.1,8.6l-1.4,2.4l-1.3,1.5l-0.7,2.9v2.1l-0.8,2.4
	l0.1,2.3l0.3,2l0.1,1.5l-0.8,1.8l-0.6,2.1l-0.7,3.3l0.8,2.9l1.4,1.9l2.5,0.8l2.3,0.2l3.4,1l0.8,0.8l0.5,1.6l-0.4,3.4l-0.9,1.3
	l-1.3,1l-1.5,2.7l-1.2,1.5l-1,1.5l-0.2,1.4l0.1,1.6l0.5,1.4l1.2,1.4l5.1,1.8l4,0.1l6.2-0.6l2.1-0.5l1.8-0.7l5.4-0.3l5.4,1.4l4.4,0.7
	l1.8,0.9l1.5,2.1l0.7,1.6l0.9,1.6l0.6,2.1l0.9,1.5l0.6,1.5l0.7,1.2l0.1,1.6L697.9,330.1L697.9,330.1z"/>
<path id="YEM3498" class="st0" d="M181.5,291.6l0.1,0.7l-0.5,0.7l-0.7,0.5l-1.3,0.1l-0.6-0.4l0.3-1.3l-0.9-0.2l-1,0.8l-0.3,0.8v0.9
	l-0.3,0.6l-2.5-0.2l-0.5,0.8l-0.5-0.8l-0.6,0.8l-0.5,0.8l0.4,1.9l-0.2,0.8l-2.2,1.6l-1.1,1.1l-0.4,0.8l0.1,0.7l-0.2,0.9l0.1,0.8
	l0.6,1.1l0.3,1.8l0.5,0.4l0.5-0.1l0.4,1.1v1.6l-0.3,0.7l-0.7,0.4l-0.8,0.1l-0.3,0.5l0.1,1.2l-0.7,0.1H164l-0.3-0.4l0.3-1.8l-0.3-0.8
	l-2.8-1.9l-0.3-1.4l0.4-1.7l0.6-0.7l1.2-0.4l-0.1-0.9l-1.1-1.3l-1.4-0.8l-0.7-0.6l-0.4-1l0.1-0.7l3.2-0.9l0.5-0.6l1-0.2l0.6-0.8
	l0.3-0.7l0.8-0.1l-0.1-0.9l0.1-2.2l0.7-0.9l1.5-0.5l0.6-0.7l0.7-0.3h1.1l1-1.5l1-1.1l1.9-0.8l1.1-0.1l2.6,1.1l1.7,1.8l1.4,0.9
	L181.5,291.6L181.5,291.6z"/>
<path id="YEM3499" class="st0" d="M125.4,343.8l1.3,1.9l0.6,2.5l4.2,0.6l0.3,0.9l3.4,1l0.1,1.5l0.9,2.9l1.9,2.6l5.3,5.9l1.6,2.6
	l0.9,2.2l1.3,1.8l0.7,1.5l-0.7,2l-2.4,3.2l-1.4,1.1l-1.4,1.4l-5.1,3.1l-1.2,0.9l-1.3,0.4l-2.1,0.3l-1.2-0.1l-1.8-0.7l-2.4,0.1
	l-1.4,0.6l-0.8,1.1l-2.8,2.4l-4.8,2.7l-1.4,0.1l-1.9,0.1l2.9-3.5l0.2-1.5v-2.2l-0.3-1l-1-2.1l-0.3-1.3l-3.1-8.4l-0.3-1.6l0.3-1.4
	l-0.3-2.7l0.2-1.5l1-1.2l0.4-1.3l-1.1-6.2l1.3-3.6l1.5-2.2l1.5-1.3l2.4-2.5l0.6-1.2l0.9,0.1l2.5,1l1.2-0.2L125.4,343.8L125.4,343.8z
	"/>
<path id="YEM3510" class="st0" d="M182.8,531.6l5.6-8.7l3.6-2.1l7.3-2.7l16.7-2.8l14.7-4l6.8-0.5l-0.5,1.4l-0.3,1.7l-1.9,5l-0.2,0.8
	l0.4,3.3l-0.3,1.2l-1.5,0.5l-1.8-0.3l-1.8-0.8l-1.2-1l0.1-1.3l1.3-0.5l1.6,0.2l1.5-0.2l0.5-1.4l-0.3-0.1l-1.2-1.6l-0.3-0.7l0.2-0.6
	h-1v0.8l-0.7,1.1l-0.6,0.1l-1.3-0.5l-1.8,0.1l-0.8,0.3l-1,1.8l-1.3,1l-1.5,0.3l-1.1-1.2l-1,0.6l-0.4,0.7l0.4,2.1l1.1-0.7l2.5,0.3
	l0.3,0.3l-0.1,1l-0.5,0.9l-1.2,0.9l-1.3,0.6l-1.1-0.2l-2.3-0.9l-0.7-0.5l-0.5-0.6l-0.2-0.7l-1-0.4l-2-0.2l-1.6,0.5l-3,2l-0.6-1.2
	l0.4-0.8l-0.5-1.2l-1-1.1l-1.1-0.8l-3.3-1.2l-3.4-0.1l-3,0.6l-2.4,1.2l-4.3,3.6l-4.6,5l-0.7,1.5L182.8,531.6L182.8,531.6z"/>
<path id="YEM3511" class="st3" d="M417.4,452.1l-12.7,3.9l-20.6,4.3l-7,4.8l-10,3.8l-1.4,0.2l-1.6-0.2l-2.8-0.9h-1.9l-1.7,0.5
	l-3.5,1.5l-1.7,0.3h-16.6l-3.6-0.6l-1.7-1l-1.1-0.3l-0.8,0.6l-2.2,0.7l-6.9,1.1l-13.8,0.6l-1.4,0.4l-2.6,1.1l-1.2,0.2l-3.4-0.2
	l-1.5,0.2l-0.9,0.6l-11.1,2.5l-2.7,1.4l-7.8,8l-2.2,1.7l-1.2,1.1l-1,3.1l-3.8,4.9l-2.5,2.3l-3,1.4l-13.9,3.4l-3.2,1.7l-2.9,2.5
	l-1.1,1.4l-0.4,0.7l2.6-18.8l5.3-14.7l3.9-2.7l0.7-1.8l-0.1-1l-1-1l-1.2-0.7l-1.1-1.3l-0.3-2.4l0.2-3.3l2.2-3.4l4.5-5.1l0.8-1.1
	l-0.4-0.8l-1.4-0.6l-4.1-0.2l-1.2-0.6v-1.1l3.1-1.9l1.5-1.2l0.2-1.2v-1.4l-0.3-1.3l0.6-1.3l1-1l3-0.7l2.3-1.3l0.3-1.3l-0.3-1.7
	l0.3-2.6l0.6-1.3l3-0.8l0.9,0.4l11.2,1.1l2.5,0.8l1.2,2.3l2.9,1.5h1.6l1.7-0.2l2.2-0.5l2.5-1.1l3.3-2l13.8-10.2l3-2.7l1.3-3.9
	l2.2-3.1l1.2-7l7.3-0.6l3.6-1.2l3.1-1.5l2.4-1.8l7.1-2.6l2.5-1.3l2.4-0.2l1.9,2.3l1.1,3.1l2.8,5.1l0.5,2.3l1.4,2l9.4-1.6l6.4-2.8
	l8.1-2.2l6.1-0.8l5.8,0.7l5.2,1.9l5.4,1.2l11.1,0.6l2.9,1.9l1.1,3.5l-0.1,3.7l0.4,2.7l-1,2.1l-1.1,1.5l-0.8,2l4.2,8.9l2.5,8l0.1,3.2
	l0.6,2.1L417.4,452.1L417.4,452.1z"/>
<polygon id="_x30_" class="st0" points="202.1,307 202.1,307 202.1,307 202.1,307 "/>
<polygon id="_x31_" class="st0" points="212.5,255.6 212.5,255.6 212.5,255.6 212.5,255.6 "/>
<polygon id="_x32_" class="st0" points="87.7,157.9 87.7,157.9 87.7,157.9 87.7,157.9 "/>
</svg>
