<?xml version="1.0" encoding="utf-8"?>
<!-- Generator: Adobe Illustrator 24.0.1, SVG Export Plug-In . SVG Version: 6.00 Build 0)  -->
<svg version="1.1" id="Layer_1" xmlns="http://www.w3.org/2000/svg" xmlns:xlink="http://www.w3.org/1999/xlink" x="0px" y="0px"
	 viewBox="0 0 1000 579" style="enable-background:new 0 0 1000 579;" xml:space="preserve">
<style type="text/css">
	.st0{fill:#404223;stroke:#868048;stroke-miterlimit:10;}
</style>
<path id="YEM99" class="st0" d="M3.1,334.8l-0.5,0.6l-1.4-1.9L1,332.8l1.6-1.5l0.8,0.8v1.1l0.3,1.3L3.1,334.8L3.1,334.8z
	 M26.9,278.3v0.6l-0.7,0.6l-5.1-0.6l-1.7,0.2l-0.6-0.3l0.2-1.4l-0.4-1.3l0.4-0.5h0.5l3.4,1.8l0.2,0.2L26.9,278.3L26.9,278.3z"/>
<path id="YEM3510" class="st0" d="M182.8,531.6l5.6-8.7l3.6-2.1l7.3-2.7l16.7-2.8l14.7-4l6.8-0.5l-0.5,1.4l-0.3,1.7l-1.9,5l-0.2,0.8
	l0.4,3.3l-0.3,1.2l-1.5,0.5l-1.8-0.3l-1.8-0.8l-1.2-1l0.1-1.3l1.3-0.5l1.6,0.2l1.5-0.2l0.5-1.4l-0.3-0.1l-1.2-1.6l-0.3-0.7l0.2-0.6
	h-1v0.8l-0.7,1.1l-0.6,0.1l-1.3-0.5l-1.8,0.1l-0.8,0.3l-1,1.8l-1.3,1l-1.5,0.3l-1.1-1.2l-1,0.6l-0.4,0.7l0.4,2.1l1.1-0.7l2.5,0.3
	l0.3,0.3l-0.1,1l-0.5,0.9l-1.2,0.9l-1.3,0.6l-1.1-0.2l-2.3-0.9l-0.7-0.5l-0.5-0.6l-0.2-0.7l-1-0.4l-2-0.2l-1.6,0.5l-3,2l-0.6-1.2
	l0.4-0.8l-0.5-1.2l-1-1.1l-1.1-0.8l-3.3-1.2l-3.4-0.1l-3,0.6l-2.4,1.2l-4.3,3.6l-4.6,5l-0.7,1.5L182.8,531.6L182.8,531.6z"/>
<path id="YEM150" class="st0" d="M352.1,16.1l-2.8,41.6l-10.4,5.3l-7.3-0.8l-7.9,0.2l-8.3,1.9l-7,2.5l-16.4,8.3l-2.3,2.3l-4.9,7.1
	l-1.7,1.5l-2.2,4l-1.2,1.1l-1.9,0.3l-2.3,2.5l-5.1,3.4l-1.9,0.8l-0.9,0.8l-3.1,1.2l-2.8,2.2l-1.5,2.3l-2.5,4.6l-1.5,6.6l-1.9,4.5
	l-8.8,2.6l-5.3-0.2l-5.7-1.1l-12.7-5.3l-8.8-2.3h-4.9l-3.2,1.1l-1.7,1.2l-3.6,1.9l-2.5,1.1l-16.1,3.9l-13.9-1.2l-9.4,0.6l-2.6-0.3
	L153,121l-21-6.2l-2.5-1.5l-0.8-3.1l-1.1-2l-0.3-1.7l1.9-2.8l3.1-2l0.6-1.4l-0.2-1.5l-0.9-1.5l-1.2-0.9l-4.6-1.4l-1.4-1.1l-1.5-4.8
	l-2.6-5.1l-0.5-2.2l0.8-3.2l2-5.1l0.6-2.5v-2.8l-0.8-2.9l-0.9-2.2l-0.5-2.2l0.6-2.6l2.6-5.1l0.8-2.8l-0.2-2.9l0.8-2.6l2.6-2l3.2-1.4
	l2.8-0.6l2.9-1.4l0.3-2.6l-1.2-2.9L134,32l-7.1-2.3l0.3-0.6l6-7.4l10.8-9.4l11-6.8l2.8-1.1l2.8-0.5l2.2,0.6l4.3,0.2l2,0.5l9.1,4
	l5.3,3.2l8.8,9.7l5.1,4.2l2.5,0.8h2.3l4.6-0.5l4.9,0.5l2.2-0.2l2.9-0.8l0.8,0.3v1.4l-0.3,2.6l0.8,1.7l2.3,0.6l2.9-0.3l1.9-2l1.7-2.6
	l1.9-2.2l2.6-1.4l2.2,0.2l4.8,2.5l3.2,0.5l2.3-1.1l2-2.3l1.7-3.2l1.9-1.4l2.6,0.3l5.3,1.5l2.3-0.2l9.6-2.2l12.1-1.2l7.6,0.2l8.5,1.9
	l3.6-0.2l7.9-3.1l2.6-0.6L352.1,16.1L352.1,16.1z"/>
<path id="YEM151" class="st0" d="M67.6,503.6l-0.3-1.9l0.9-2.6l3.2-5.6l5.3-3.9l2.6-0.9l1.5,1.2l-0.5,2.5l-3.7,4l-0.9,2.8l-1.2,1.2
	L67.6,503.6L67.6,503.6z M80.1,469.9l-0.9,0.8h-3.4l1.7-3.7l-2.6-0.9l-3.1-1.7l-2.6-2.3l-1.1-3.2l1.1-2l2.5-2.3l2.9-1.7l2-0.6
	l0.9-0.9l3.4,4.5l0.8,1.7v1.4l-1.7,4.8l-0.2,4L80.1,469.9z M54.3,281.1l1.4,0.3l1.5-0.5l1.7-0.9l1.1,0.2v1.5l-1.4,4.9l-0.3,1.7
	l0.2,1.1l-0.3,1.1l0.2,1.4l-2.5,3.7l-1.5,1.4l-1.7-0.2l-1.4-1.1l-1.4-2.2v-2.9l1.2-3.1l0.5-6.6l1.4-2.3l2.8-2.6l1.1-2l2.8-1.4
	l0.9,0.3l0.6,1.2l-3.2,2l-0.5,0.9l0.6,0.8l-0.5,0.8l-1.1,0.9l-1.9,0.9L54.3,281.1L54.3,281.1z M145.5,265.8l0.3,5.4l0.6,1.5l0.2,2.8
	l0.6,2.2l0.2,3.7l-0.5,4.3l0.6,2.9l0.3,3.6l3.4,5.1l2.8,2l3.1,2.8l5.1,1.4l1.2,2.3l1.4,3.6l2.5,4.3l1.4,3.9l1.9,2.8l3.9,3.9l3.1,1.7
	l4.2,3.9l3.9,2.2l3.4,0.8h2.3l2.5-0.3l2.9,2.8v1.4l-0.8,0.6l-2,3.1l-1.7,1.2l-1.9,0.3l-3.9-1.5l-1.4-0.2l-0.9,1.9l-3.7,3.9l-2.3,2
	l-2.3,3.4l-2,5.6l1.7,9.6l-0.6,2l-1.5,1.9l-0.3,2.3l0.5,4.2l-0.5,2.2l0.5,2.5l4.8,13l0.5,2l1.5,3.2l0.5,1.5v3.4l-0.3,2.3l-4.5,5.4
	l-2.5,0.2l-0.8,1.7l4.2,17.6v4.3l1.7,4.3l2.2,1.9l2.8,1.9l3.9,1.2l7,4.3l2.5,0.9l2-0.2l1.5-1.5l1.9-1.1l1.5-1.2l2-0.8l0.3,3.6
	l0.6,2.2l-0.8,3.6l-4.8,7.7l-2,1.2l-1.1-0.8l-2-0.8l-2.2,0.9l-0.5,1.7l1.7,2.3l1.1,1.5l0.2,2l-1.4-0.3l-3.2,1.1l-10.4,1.7l-3.1,0.9
	l-4.5,2l-9.4,12.4l-1.2,2.5l-1.4,1.7l-2.8,0.5l-4.3,1.2l-3.6,1.5l-8.8,7.1l-0.5,0.2l0.2-2.8l-0.5-4.5l-4.2-8l-0.6-1.2l-1.2-10.7
	l-0.8-1.1l-8.2-8.8l-2.8-7l-2.6-5.7l-2.8-4l-1.4-9.7l-1.1-4.5l-1.2-3.9l-2.3-6.6l-3.6-11.9l-0.9-2.6l-0.6-4l-1.5-3.7l-0.5-4
	l-0.3-1.2l-0.8-0.6l-2.2-1.7l-0.6-0.8l0.3-1.5l0.6-0.6l0.9,0.3l1.2,0.9l1.2,2.6l1.5,5.9l1.9,1.7l0.2-3.9l-0.3-1.7l-0.8-1.5l1.9-5.3
	l-1.4-4.3l-2.3-3.9l-1.4-4.2l0.3-0.9l1.1-1.4l0.2-1.5l-0.6-0.6l-0.6-1.5l-1.7-1.1l-1.9-2.6l-0.9-4.3l-0.2-1.4l-1.2-4.6l-6-7.4
	l-1.4-4.8l-0.2-2.6l0.2-1.4l0.9,0.2l0.6,1.1l-0.6,1.9v1.4l0.9,2.5l1.5,2.6l2,2.3l2.3,1.5l0.2-1.9l0.8-4.3v-2.6l-1.4-4.6l-0.5-4.3
	l-0.8-1.5l-0.9-1.4l-3.2-3.1l-1.4-1.7l-0.8-2.2l-0.5-2.9l0.6-7l-0.6-2.3l-1.5-2.2l-4.5-2l-4-3.4l-2.5-1.7l-2.8-1.4l-2.6-0.9
	l-2.8-0.6h-2.5l-1.7,1.1l-0.8,2.6l-1.4,0.5l-2.8-1.1l-2.5-2.2l-0.2-2.9l-0.8-1.7l1.4-0.2l4.2,0.9l2.2-0.3l1.2-0.9l0.8-1.4l0.5-1.7
	l-0.2-1.4l-1.2-1.9l-0.3-1.7l3.2-6l0.9-1.4l0.8,1.7l-0.5,2l-0.8,2l-1.1,1.4l2.3,1.1l1.9,1.1l5.1,4.3l0.6,0.9l0.3,1.7l-0.3,2.5
	l0.3,0.8l1.7,0.8v-1.7l-0.9-0.9l1.9-2l0.8-2.9l-0.3-9.9l-1.1-4.5l-2-3.7l-0.5-1.9v-1.4l0.5-2.9l-0.5-2.9l-0.5-1.7l-1.7-3.1l-5.1-7.1
	l0.3-1.1l1.4-1.7l-2.3-2.8l-0.8-1.9l-0.3-2.2l1.2-4.6l-0.3-1.9l-2.6-0.9l0.9-2l1.2-1.1l1.4-0.9l1.5-1.4l1.1-1.2l0.5-1.2l0.2-3.4
	l0.8-3.6l1.5-2.5l2.3-1.9l2.2-1.4l2.3-1.9l1.2-2.3l0.6-2.8l20.2,12.2l8.3-1.2l5.4,0.5l2.6-1.4l1.9-1.4l4.8-1.1l12.8-1.1l3.2,2.5
	l1.5,3.6l-0.3,4.2l-0.8,3.2l-0.8,2.2l-1.1,1.9v2.3l1.5,4.3l-0.9,7.4l-0.6,1.4l-0.2,1.7L145.5,265.8L145.5,265.8z"/>
<path id="YEM152" class="st0" d="M228.9,266.4l-1.5,5.7l-0.6,5.6l-2.2,2.3l-4.9,3.4l-2.6,1.2l-8.8,6.3l-4.6,4.8l-8.3,1.7l-1.4,1.4
	l-7.7,4.8l-2.2,2.8l-0.9,3.4l0.5,6.3l-1.2,3.1l-1.5,1.4l-3.2,5.3l-3.1-1.7l-3.9-3.9l-1.9-2.8l-1.4-3.9l-2.5-4.3l-1.4-3.6l-1.2-2.3
	l-5.1-1.4l-3.1-2.8l-2.8-2l-3.4-5.1l-0.3-3.6l-0.6-2.9l0.5-4.3l-0.2-3.7l-0.6-2.2l-0.2-2.8l-0.6-1.5l-0.3-5.4l7-2.5l21.9-2.2
	l2.6,0.3l2.6-0.2l11.3,1.2l3.4,1.1l2.8-0.3l2.3-0.8l6.5,0.2l5.6-2.2l2.3-1.7l2.3,0.3l1.7,0.6l1.1,1.5l2.3,1.4L228.9,266.4
	L228.9,266.4z"/>
<path id="YEM153" class="st0" d="M339.1,363.1l-9.4,11.4l-3.1,12.7l-2.3,18.2l-3.1,6.2l-4.2,4l-4.6,2.3l-2.9,6.8l-2.5,1.1l-3.7-1.5
	l-7.1-2.5l-5.7-3.7l-2.9-1.2l-3.6-1.2l-2.8-1.7l-6.2-1.7l-2.8-1.2l-2.3-2.5l-5.4-4.5l-2-0.8l-1.5,0.5l-1.4,2.2l-0.2,1.7l-0.9,2.2
	L257,412l-5.7,2.3l-3.2-0.8l-0.9-1.9l-1.7-6.6l-1.9-0.3l-2.3,0.9l-2.9,3.2l-3.4,2.8l-2.8,3.6h-2.9l-2,0.9l-0.9,1.2v2.2l1.1,2
	l0.3,2.9l-0.2,2.9l-3.2,6.2l-2.9,1.5l-3.4,0.8l-2-0.9l-0.5-2.3l0.5-2.8l-0.6-1.2l-1.1,0.2l-0.9,2l-2,2.9l-2,5.4l-1.7,2.5l-1.9,4.2
	l-2,0.8l-1.5,1.2l-1.9,1.1l-1.5,1.5l-2,0.2l-2.5-0.9l-7-4.3l-3.9-1.2l-2.8-1.9l-2.2-1.9l-1.7-4.3v-4.3l-4.2-17.6l0.8-1.7l2.5-0.2
	l2.9-0.2l2.2-0.2l7.4-4.2l4.3-3.7l1.2-1.7l2.2-0.9l3.7-0.2l2.8,1.1l1.9,0.2l3.2-0.5l2-0.6l1.9-1.4l7.9-4.8l2.2-2.2l2.2-1.7l3.7-4.9
	l1.1-3.1l-1.1-2.3l-2-2.8l-1.4-3.4l-2.5-4l-8.2-9.1l-2.9-4l-1.4-4.5l-0.2-2.3l1.9-1.7l5.9,0.6l4.8-0.5l2.8-0.8l4.3-4l2.3-1.4
	l2.5-1.5l2.9-1.7l6.8-4.9l4.3-1.5l4-0.8l3.4-0.2l2.2,1.5l3.4,1.2l2.5,2.8l2.9,2.5l9.6,2l3.7-1.2l1.7-2.3l0.6-2.5l1.1-2l3.1,0.5
	l2.2,2.8l3.2,2.2l3.4,0.3l5.1-2l2.6-1.4l2.8-3.4l2.2-3.2l2.9-2l2.6-0.3l3.2,0.3l3.1-0.3l3.2,0.3l2.8,1.9l3.6,5.3l1.9,8.7l2.3,4.8
	l4.9,7l1.2,2.9L339.1,363.1L339.1,363.1z"/>
<path id="YEM154" class="st0" d="M181.2,123.2l-0.6,22.4l1.9,17.8l-0.3,2.2l-0.3,2.8l0.2,2.3l0.3,1.9v2l0.8,1.4l3.7,2.6l1.4,2.2
	l-0.2,3.9l0.5,3.2l0.2,2.9l4.9,10l-0.2,1.9l-1.1,1.4l-2.9,2.3l-1.2,2.8l1.5,1.4l1.4-0.3l4.8-5.6l1.2-0.5l1.2,0.6l1.5,1.4l3.1,5.1
	l1.2,4.9l0.8,5.1l-0.5,2.5l-0.5,4.6l0.8,3.2l0.3,2.5l2.2,1.9l0.8,1.2l-0.6,4.6l-0.9,3.6l-1.2,1.5l-2,0.5l-2.3-0.6l-2,0.2l-1.5,1.1
	l-1.1,1.1l-0.6,1.4l-0.5,1.7v1.7l1.7,3.1l-0.2,1.9l-2.5,4.8l-3.4-1.1l-11.3-1.2l-2.6,0.2l-2.6-0.3l-21.9,2.2l-7,2.5l-1.9-11.3
	l0.2-1.7l0.6-1.4l0.9-7.4l-1.5-4.3v-2.3l1.1-1.9l0.8-2.2l0.8-3.2l0.3-4.2l-1.5-3.6l-3.2-2.5l-12.8,1.1l-4.8,1.1l-1.9,1.4l-2.6,1.4
	l-5.4-0.5l-8.3,1.2l-20.2-12.2l1.1-17.9l-0.5-5.9L83,171.4l-0.5-9.7l-0.9-3.6v-1.7l-1.5-2.3l6-2.2l4.3-1.9l3.2-2.2l1.1-2.2l-0.5-4
	l0.5-1.7l1.4-0.6l4.8-0.9l1.9-0.6l5.4-3.2l2.6-2l1.5-2.2l3.2-8.5l0.6-2.5l0.2-2.8l0.6-1.9l1.5-0.6l3.1,0.6l4.9,1.5l2.2-0.5l0.8-2.6
	l2.5,1.5l21,6.2l2.2,1.2l2.6,0.3l9.4-0.6L181.2,123.2L181.2,123.2z"/>
<path id="YEM155" class="st0" d="M254.4,120.2l6.5,4.3l2,0.9l7.1,5.4l1.9,2l0.8,2.2l-0.6,1.9l-1.2,1.5v2.3l1.9,3.7l1.1,4.8l1.1,3.4
	l1.7,3.1l0.5,2.9l-0.3,2.6l-0.6,2.3l0.6,1.7l0.8,1.2l0.2,1.9l-2.8,8.5l1.2,3.4l0.2,4l0.6,3.6l4,7.1l3.1,3.6l-6.8,0.5l-7.3,2.8
	l-7.3,3.9l-1.2,2.9l-1.1,3.4l0.6,7.1l0.8,3.6l0.9,2.5l-0.2,2.8l-0.6,2.5l-2.6,3.7l-3.6,2.6l-2.3,3.4l-0.2,5.9l-1.4,5.4l-7.6,6
	l-3.6,1.7l-4,0.6l-4.8-0.5l-1.7,1.9l0.2,2l-1.4,3.2l-7.7-3.7l-2.3-1.4l-1.1-1.5l-1.7-0.6l-2.3-0.3l-2.3,1.7l-5.6,2.2l-6.5-0.2
	l-2.3,0.8l-2.8,0.3l2.5-4.8l0.2-1.9l-1.7-3.1v-1.7l0.5-1.7l0.6-1.4l1.1-1.1l1.5-1.1l2-0.2l2.3,0.6l2-0.5l1.2-1.5l0.9-3.6l0.6-4.6
	l-0.8-1.2l-2.2-1.9l-0.3-2.5l-0.8-3.2l0.5-4.6l0.5-2.5l-0.8-5.1l-1.2-4.9l-3.1-5.1l-1.5-1.4l-1.2-0.6l-1.2,0.5l-4.8,5.6l-1.4,0.3
	l-1.5-1.4l1.2-2.8l2.9-2.3l1.1-1.4l0.2-1.9l-4.9-10l-0.2-2.9l-0.5-3.2l0.2-3.9l-1.4-2.2l-3.7-2.6l-0.8-1.4v-2l-0.3-1.9l-0.2-2.3
	l0.3-2.8l0.3-2.2l-1.9-17.8l0.6-22.4l16.1-3.9l2.5-1.1l3.6-1.9l1.7-1.2l3.2-1.1h4.9l8.8,2.3l12.7,5.3l5.7,1.1l5.3,0.2L254.4,120.2
	L254.4,120.2z"/>
<path id="YEM156" class="st0" d="M309.4,424.8l4.2,2.6l-0.2,7.3l1.2,1.9l1.4,0.5l4.3,2.6l-1.4,4l-1.9,1.5l-2.5-0.2l-2.6,0.3
	l-1.1,1.1l-0.2,1.7l-1.2,2.8l-2,2l-0.9,2.8l0.8,2.6l2.3,2.2l-1.2,2.3l-2.3,0.6h-2.5l-2.9,0.6l-3.2,1.2l-3.1,2.2l-2,3.2l-0.3,2.3
	l-0.9,3.7l-1.2,0.8l-1.4-0.2l-1.5,0.9l-1.9,5.3l-2,1.2l-0.9,2.3l0.2,0.8l-0.8,3.2l-1.2,1.9l-1.7,2l-4.6,3.2l-3.1,0.3l-2.6-0.9
	l-1.9-0.9l-2.5-0.9l-4.5-0.2l-9.3-2.9l-3.1-1.9l-6.3-0.8l-14.4-4.2l-0.9-1.7l0.6-1.5v-2.5l-1.9-0.8l-5.7,2.3l-1.1-1.4l0.2-2.3
	l-0.8-1.9l-5.9,0.8l-2.6,1.2l-3.1-0.9l-2.8,1.4l-7.4-0.3l-3.4-6.5l3.2-1.1l1.4,0.3l-0.2-2l-1.1-1.5l-1.7-2.3l0.5-1.7l2.2-0.9l2,0.8
	l1.1,0.8l2-1.2l4.8-7.7l0.8-3.6l-0.6-2.2l-0.3-3.6l1.9-4.2l1.7-2.5l2-5.4l2-2.9l0.9-2l1.1-0.2l0.6,1.2l-0.5,2.8l0.5,2.3l2,0.9
	l3.4-0.8l2.9-1.5l3.2-6.2l0.2-2.9l-0.3-2.9l-1.1-2v-2.2l0.9-1.2l2-0.9h2.9l2.8-3.6l3.4-2.8l2.9-3.2l2.3-0.9l1.9,0.3l1.7,6.6l0.9,1.9
	l3.2,0.8l5.7-2.3l1.4-2.2l0.9-2.2l0.2-1.7l1.4-2.2l1.5-0.5l2,0.8l5.4,4.5l2.3,2.5l2.8,1.2l6.2,1.7l2.8,1.7l3.6,1.2l2.9,1.2l5.7,3.7
	l7.1,2.5l3.7,1.5L309.4,424.8L309.4,424.8z"/>
<path id="YEM157" class="st0" d="M406,473.8l-4.6,1.2l-0.9,2l-0.5,4l0.5,2.6l-0.5,2l-3.6,2l-4.6,1.1l-1.5,1.5l-0.9,2l0.5,2v2.2
	l-0.3,1.9l-2.3,1.9l-4.8,2.9v1.7l1.9,0.9l6.3,0.3l2.2,0.9l0.6,1.2l-1.2,1.7l-7,7.9l-3.4,5.3l-0.3,5.1l0.5,3.7l1.7,2l1.9,1.1l1.5,1.5
	l0.2,1.5l-1.1,2.8l-6,4.2l-8.2,22.7l-4,29.1l-0.8,1.5l-10.5,0.8l-22.7,6.2l-25.8,4.3l-11.3,4.2l-5.6,3.2l-8.7,13.4l-0.3-1.4
	l-0.6-0.2l-2.9,1.1l-3.6,0.9l-8,3.9l-2.8,0.3l-2.5-0.3h-2.5l-4.6,2.6h-2.8l-2.3-0.8l-1.5-1.9l1.7,0.2l3.1,0.6l1.7,0.2l1.1-0.9v-1.7
	l-0.9-1.1l-1.4,1.1l-3.2-0.5l-4,1.7l-7.4,4l-3.6,0.9h-2l-3.2-1.1l-3.7,1.7l-1.9,0.2l-2.5-1.5l-2.2-4.5l-1.9-0.9l-2.5-0.3l-2.2-0.9
	l-3.4-2.3l-2-1.1l-2.3-0.8l-2.6-0.6l-2.8-0.2l-1.7-0.6l-4.8-2.8l-2.5-0.9h-4.5l-1.1-0.5l-2-1.4l-2.3-0.9l-1.5,0.6l-7.1,7.1l4.5-9.1
	l9.6-14.7l7.1-7.1l4.3-6.6l0.3-2.9l-0.5-2l-1.1-1.5v-2.2l1.7-1.2l4.5-0.6l1.9-0.9l2.2-1.1l1.9-1.9l2.5-1.1l2.5-0.6l2.5,0.3l2.3,1.1
	l2.3,0.8l4.6,2.8l2.3,2l3.4,1.5l2.3,0.2l0.6-2l-0.5-6.3l0.9-0.8l4.8,2.9l2.9,0.5l1.4-1.2l0.6-2.8l1.2-2.5l1.5-0.5l2.8-0.3l1.4-1.1
	l-0.2-3.9l2.8-2.3l1.5-2.8l5.3,0.9l5.3-0.2l6.5-1.5l2.9-2.3l0.5-2.9l-0.6-2.5l0.3-3.2l-0.2-2.2l-1.1-2.5l0.8-1.7l2.8-0.8l8-0.2
	l1.2-1.4l-0.3-2.3l-1.4-1.7l-3.7-0.5l-1.7-0.9l-2.2-0.9L277,531l0.9-2.2l2-1.2l2.2-0.9l3.6-0.6l0.9-0.8l-0.2-1.7l0.5-0.9l1.5-0.5
	h1.7l2.2-0.9l1.2-1.4l1.1-1.5l1.7-0.8l1.1-2.8l4.9,1.9l1.7,2l5.1,3.9l3.4-0.6l4.5-3.1l8.5-3.6l2-2.5l2-1.2l4.9,1.9l2.8-0.3l0.8-2.6
	l-0.5-3.1l0.2-9.4l3.1-0.6l4-0.3l10.2-4.2l5.6-3.7l5.3-2.5l4.5-4.3L378,465l7.3,0.2l2,0.3l3.9-2l2.8-2.5l6.5-4.2l2.8-0.5l2,1.1
	l1.5,6.5L406,473.8L406,473.8z"/>
<path id="YEM158" class="st0" d="M162.3,633.1l-0.2,1.7l-1.5,0.9l-0.8-0.3l-2.2-2.3l-1.5,0.3l-0.8-0.3l-0.3-1.7l2-0.9l2.8-0.2
	l1.7,0.9C161.5,631.3,162.3,633.1,162.3,633.1z M281.6,491.1l2.3,3.6l0.3,2.9l-0.5,3.1l-1.1,2.9l-0.2,2.6l1.9,2l2.6,0.8l2.8-0.6
	l2.8,0.2l3.9,2l0.6,1.5l0.3,2.6l-1.1,2.8l-1.7,0.8l-1.1,1.5l-1.2,1.4l-2.2,0.9h-1.7l-1.5,0.5l-0.5,0.9l0.2,1.7l-0.9,0.8l-3.6,0.6
	l-2.2,0.9l-2,1.2L277,531l0.9,1.9l2.2,0.9l1.7,0.9l3.7,0.5l1.4,1.7l0.3,2.3l-1.2,1.4l-8,0.2l-2.8,0.8l-0.8,1.7l1.1,2.5l0.2,2.2
	l-0.3,3.2l0.6,2.5l-0.5,2.9l-2.9,2.3l-6.5,1.5l-5.3,0.2l-5.3-0.9l-1.5,2.8l-2.8,2.3l0.2,3.9l-1.4,1.1l-2.8,0.3l-1.5,0.5l-1.2,2.5
	l-0.6,2.8l-1.4,1.2l-2.9-0.5l-4.8-2.9l-0.9,0.8l0.5,6.3l-0.6,2l-2.3-0.2l-3.4-1.5l-2.3-2l-4.6-2.8l-2.3-0.8l-2.3-1.1l-2.5-0.3
	l-2.5,0.6l-2.5,1.1l-1.9,1.9l-2.2,1.1l-1.9,0.9l-4.5,0.6l-1.7,1.2v2.2l1.1,1.5l0.5,2L198,590l-4.3,6.6l-7.1,7.1l-9.6,14.7l-4.5,9.1
	l-0.6,0.8l-1.7,0.9l-2.6,0.3l-2.9-0.5l-0.6-1.2l2.3-10.2l0.2-4.9l-1.2-4.5l-2.5-4l-3.7-3.6l-0.9-2.9l-1.7-1.9l-0.5-0.9l-0.2-2.5
	l-0.5-2.5l-0.8-2.3l-1.2-2l-4.3-4.9l-0.9-2.6l-1.5-2.9l-1.2-3.2l-0.5-1.1l-7.4-9.4l-2.8-9.1l1.5-4l1.1-4.3l0.8-22.7l2.6-4l0.6-2.2
	l0.5-0.8l1.4-0.6l-1.7-4l0.3-6.2l0.5-0.2l8.8-7.1l3.6-1.5l4.3-1.2l2.8-0.5l1.4-1.7l1.2-2.5l9.4-12.4l4.5-2l3.1-0.9l10.4-1.7l3.4,6.5
	l7.4,0.3l2.8-1.4l3.1,0.9l2.6-1.2l5.9-0.8l0.8,1.9l-0.2,2.3l1.1,1.4l5.7-2.3l1.9,0.8v2.5l-0.6,1.5l0.9,1.7l14.4,4.2l6.3,0.8l3.1,1.9
	l9.3,2.9l4.5,0.2l2.5,0.9l1.9,0.9l2.6,0.9l3.1-0.3l4.6-3.2l1.7-2L281.6,491.1L281.6,491.1z"/>
<path id="YEM332" class="st0" d="M1078.5,319.1l-0.3-0.8l-0.2-2.5l-1.1-1.9l-0.9-2.3l-1.4-2.3l-0.9-3.2l-1.4-2.5l-1.1-2.5l-2.3-3.2
	l-2.8-1.4l-6.8-1.1l-8.3-2.2l-8.3,0.5l-2.8,1.1l-3.2,0.8l-9.6,0.9l-6.2-0.2l-7.9-2.8l-1.9-2.2l-0.8-2.2l-0.2-2.5l0.3-2.2l1.5-2.3
	l1.9-2.3l2.3-4.2l2-1.5l1.4-2l0.6-5.3l-0.8-2.5l-1.2-1.2l-5.3-1.5l-3.6-0.3l-3.9-1.2l-2.2-2.9l-1.2-4.5l1.1-5.1l0.9-3.2l1.2-2.8
	l-0.2-2.3l-0.5-3.1l-0.2-3.6l1.2-3.7v-3.2l1.1-4.5l2-2.3l2.2-3.7l4.8-13.3l-0.8-4.5l-1.4-3.4l-2.8-1.5l-1.7-1.9l-2-2.5l0.3-4.8
	l9.7-37.7l-1.1-4.6l-1.4-2.8l-0.2-2.9l2.2-5.1l2.6-3.4l2.9-2.5l5.3-3.2l21.9-9.1l10-6.8l9.6-11.4l50.1-41.6l16.2-24.1l15.3-34.3
	l11.7-37.2l7.6-39.3l21.5-54.2l34-50.4l19.5,46.5l5.4,12.7l10.7,25.3l5.3,12.7l15.9,38l16.1,37.9l5.3,12.7l14.7,34.6l-1.1,0.2
	l1.9,1.2l4.6,0.3l2.2,0.8l1.4,1.7l20.2,46.4l15.6,35.2l-2.6,1.4l-5.9,1.5l-4.6-1.1l-1.4,1.2l-2.8,0.3l-1.4,0.8l-2.3,2.5l-1.4,1.1
	l-3.1,0.9l-4.3,2.5l-5.1,1.1l-2.6,1.1l-4.5,2.8l-2,0.9l-17.3,4.5l-8,3.9l-14.1,9.9l-12.7,10.4l-3.2,3.6l-1.5,2.6l-2.3,4.5l-4,4.8
	l-0.9,1.5l-0.6,1.5l0.3,2.9l0.6,1.5l-0.9,2.5l-2.8,3.2l-1.2,5.3l-3.1,3.6l-0.5,2.3l0.9,2.5l1.7,2.9l1.2,3.1l-1.4,5.3l2,2l4,2l0.2,2
	l-1.1,9.3l0.6,5.6l1.2,5.6l1.4,1.4l0.2,1.5l-0.6,1.2l-0.3,1.7l-0.9,1.7l-1.1,0.3l-2.6,0.3l-19,5.3l-2.6,2.5l-1.1,0.3l-3.1,0.5
	l-9.9,3.9l-4.8,3.1l0.2,2.9l-0.9,0.8l0.2,1.5l-0.5,0.2l-2.3-1.2l-1.1-0.9l-1.1-0.3l-2.5,1.7l-6.3,1.4l-9.9,5.4l-1.5,1.5l-0.6,1.9
	l0.8,2.5l1.1,1.4v0.9l-2.6,0.9l-13.3,1.2l-2.3,0.8l-2.2,1.2l-1.9,1.2l-2.9,3.6l-2.5,0.2l-1.1,0.3l-0.3,0.9h-1.4l-6.3,2.8l-1.7,1.1
	l-3.2-1.1l-3.4,1.5l-3.2,2l-2.5,1.1l-24.7,6.8l-27.2,5.1L1078.5,319.1L1078.5,319.1z"/>
<path id="YEM333" class="st0" d="M426.3,371.8h14.1l2.9,1.4l2.2,1.9l-0.6,2.5l-1.5,2.6l-0.9,2.6l-0.2,3.1l2.3,2l5.4,1.2l2.8,2.3
	l7.1,19l2.8,4.3l4.3,2.9l5.7,1.1l5.3,2.2l2.5,1.7l0.3,1.5v1.4l0.5,1.5l0.2,1.7l1.1,2.2l0.5,2.2l2.8,2.6l-1.9,10.8l-3.4,4.8l-2,6
	l-4.6,4.2l-21.3,15.8l-5.1,3.1l-3.9,1.7l-3.4,0.8l-2.6,0.3h-2.5l-4.5-2.3l-1.9-3.6l-3.9-1.2l-17.3-1.7l-1.4-0.6l0.8-9.9l-1.5-6.5
	l-2-1.1l-2.8,0.5L394,461l-2.8,2.5l-3.9,2l-2-0.3L378,465l-0.2-3.4l-0.6-3.1l-3.2-3.9l-9.3-8.8l-3.4-4.3l-2.2-3.9l-2.8-3.6l-4-1.5
	l-5.3-0.2l-3.2-0.5l-2.8,1.1l-2,0.3l-1.7,1.4l-2.2,0.8h-3.4l-3.6,0.6l-2.5,1.5l-5.4,2l-4.3-2.6l-1.4-0.5l-1.2-1.9l0.2-7.3l-4.2-2.6
	l2.9-6.8l4.6-2.3l4.2-4l3.1-6.2l2.3-18.2l3.1-12.7l9.4-11.4l6.6-0.9l5.3-2.2l5.3-4.5l6.6,1.4l3.4,1.9l2.5,2.8l0.6,3.4v3.9l1.1,6.6
	l1.2,4.3l0.2,4.2l1.1,2.9l0.3,2.8l1.1,2.8l1.5,2.5l2.5,1.4h4l4.8-3.6l1.4-1.7l2.2-0.8l5.1,1.2l0.9-1.4l-0.6-1.4l1.1-1.2l2.3-0.3
	l3.6-1.2l4.2-2l4.3-0.3l3.2,0.9l2.8,0.5l2-0.8V382l-2.2-4l0.2-1.9l1.1-1.4l1.2,0.3l1.5,2.2l1.2,0.8l1.9-0.9l0.9-1.1L426.3,371.8
	L426.3,371.8z"/>
<path id="YEM334" class="st0" d="M378,465l-7.7,17.3l-4.5,4.3l-5.3,2.5l-5.6,3.7l-10.2,4.2l-4,0.3l-3.1,0.6l-0.2,9.4l0.5,3.1
	l-0.8,2.6l-2.8,0.3l-4.9-1.9l-2,1.2l-2,2.5l-8.5,3.6l-4.5,3.1l-3.4,0.6l-5.1-3.9l-1.7-2l-4.9-1.9l-0.3-2.6l-0.6-1.5l-3.9-2l-2.8-0.2
	L287,509l-2.6-0.8l-1.9-2l0.2-2.6l1.1-2.9l0.5-3.1l-0.3-2.9l-2.3-3.6l0.8-3.2l-0.2-0.8l0.9-2.3l2-1.2l1.9-5.3l1.5-0.9l1.4,0.2
	l1.2-0.8l0.9-3.7l0.3-2.3l2-3.2l3.1-2.2l3.2-1.2l2.9-0.6h2.5l2.3-0.6l1.2-2.3l-2.3-2.2l-0.8-2.6l0.9-2.8l2-2l1.2-2.8l0.2-1.7
	l1.1-1.1l2.6-0.3l2.5,0.2l1.9-1.5l1.4-4l5.4-2l2.5-1.5l3.6-0.6h3.4l2.2-0.8l1.7-1.4l2-0.3l2.8-1.1l3.2,0.5l5.3,0.2l4,1.5l2.8,3.6
	l2.2,3.9l3.4,4.3l9.3,8.8l3.2,3.9l0.6,3.1L378,465L378,465z"/>
<path id="YEM335" class="st0" d="M604.3,79l5.1,78.5l-25.7,25.3l-104.3,19.5l-37.6,13.3l-16.1,13.9l-14.2,1.2l-26.3-4.2l-30.1-15.9
	l-41.9-9.9l-8.2-5.1l-10.7-0.8l-2.5,1.1l-1.1,1.1l-7,1.5l-3.1-3.6l-4-7.1l-0.6-3.6l-0.2-4l-1.2-3.4l2.8-8.5l-0.2-1.9l-0.8-1.2
	l-0.6-1.7l0.6-2.3l0.3-2.6l-0.5-2.9l-1.7-3.1l-1.1-3.4l-1.1-4.8l-1.9-3.7v-2.3l1.2-1.5l0.6-1.9l-0.8-2.2l-1.9-2l-7.1-5.4l-2-0.9
	l-6.5-4.3l1.9-4.5l1.5-6.6l2.5-4.6l1.5-2.3l2.8-2.2l3.1-1.2l0.9-0.8l1.9-0.8l5.1-3.4l2.3-2.5l1.9-0.3l1.2-1.1l2.2-4l1.7-1.5l4.9-7.1
	l2.3-2.3l16.4-8.3l7-2.5l8.3-1.9l7.9-0.2l7.3,0.8l10.4-5.3l2.8-41.6l24,0.2l7.1,1.5l20.2,11.9l5.7,1.9L520.2,43l48.4-6.6l4.5,2.6
	l17.3,24.3l10.5,14.7l1.7,0.9L604.3,79L604.3,79z"/>
<path id="YEM336" class="st0" d="M814.4,454.8l-13.3-0.3l-2.2,0.8l-5.6,4.8l-1.2,0.5l-2,0.3l-1.1,1.1l-2.3-2.8l-4.3-0.8h-9.6
	l0.9,1.7l-5.3,0.2l-14.4,4.2l0.6-3.1l-2-2l-2.8-1.4l-1.9-1.4l-0.8,0.9l-3.4-1.5l-11.1-2.8l-1.9,1.1l-6.6,2l-2.2,0.3l-1.7,1.2
	l-6.3,7.6l-5.7,3.1l-19.2,6.5l-2.6,1.9l-10.2,10.8l-15.9,14.2l-4.8,2.9l-9.1,2.9l-1.2-6.6l-0.9-3.2l-0.2-4.9l-3.9-12.4l-6.5-13.8
	l1.2-3.1l1.7-2.3l1.5-3.2l-0.6-4.2l0.2-5.7l-1.7-5.4l-4.5-2.9l-17.2-0.9l-8.3-1.9l-8-2.9l-9-1.1l-9.4,1.2l-12.5,3.4l-9.9,4.3
	l-14.5,2.5l-2.2-3.1l-0.8-3.6l-4.3-7.9l-1.7-4.8l-2.9-3.6l-3.7,0.3l-3.9,2l-11,4l-3.7,2.8L504,433l-5.6,1.9l-11.3,0.9l-2.8-2.6
	l-0.5-2.2l-1.1-2.2l-0.2-1.7l-0.5-1.5v-1.4l-0.3-1.5l-2.5-1.7l-5.3-2.2l-5.7-1.1l-4.3-2.9l-2.8-4.3l-7.1-19l-2.8-2.3l-5.4-1.2
	l-2.3-2l0.2-3.1l0.9-2.6l1.5-2.6l0.6-2.5l-2.2-1.9l-2.9-1.4h-14.1l-2.6-1.7l-1.5-1.7l-1.1-3.7l0.3-7l0.5-3.9l0.9-3.4l-0.3-2.8
	l1.7-1.1l0.5-1.5v-2.3l0.9-5.1l2.9-5.4l0.9-2.8l2.6-5.6l17.3-14.7l73.1-51.3l175.5-13.6l11.3,4l1.5,4.2L696.1,278l-5.6,6.5l-2.8,6.3
	l-1.2,4.5l-0.2,3.2l-3.6,11l-0.3,3.6v3.2l3.1,3.2l5.3,7v3.9l-1.9,3.7l-20.2,17.3l-2.9,3.6l0.9,3.2l13.9,9.9l8.8,8.7l9.4,6.3l9.7,3.4
	l12.8,2l9.1,0.2l3.1,1.2l3.2,1.7l2.5,2.9l2.5,5.1l1.2,3.9l3.1,4.2l1.7,3.4l6.2,6.3l9.1,4.5l8.3,0.8l9.6-0.3l10.5,2.8l11.4,5.4
	l2.8,3.1l1.9,2.8l1.1,2.6l0.3,2.2l0.8,2l3.4,6.3l0.9,2.5L814.4,454.8L814.4,454.8z"/>
<path id="YEM337" class="st0" d="M522.4,257.9l-73.1,51.3L432,323.9l-2.6,5.6l-0.9,2.8l-2.9,5.4l-0.9,5.1v2.3l-0.5,1.5l-1.7,1.1
	l0.3,2.8l-0.9,3.4l-0.5,3.9l-0.3,7l1.1,3.7l1.5,1.7l2.6,1.7l-0.8,4.2l-0.9,1.1l-1.9,0.9l-1.2-0.8l-1.5-2.2l-1.2-0.3l-1.1,1.4
	l-0.2,1.9l2.2,4v2.3l-2,0.8l-2.8-0.5l-3.2-0.9l-4.3,0.3l-4.2,2l-3.6,1.2l-2.3,0.3l-1.1,1.2l0.6,1.4l-0.9,1.4l-5.1-1.2l-2.2,0.8
	l-1.4,1.7l-4.8,3.6h-4l-2.5-1.4l-1.5-2.5l-1.1-2.8l-0.3-2.8l-1.1-2.9l-0.2-4.2l-1.2-4.3l-1.1-6.6V365l-0.6-3.4l-2.5-2.8l-3.4-1.9
	l-6.6-1.4l0.2-7.7l0.6-2v-2.5l-1.7-1.7l0.3-1.1l1.4-1.5l0.9-2.5l1.5-2.9l2.8-2.9l1.7-3.7l0.6-1.9l2-1.5l6.2-2.8l1.9-3.1l1.4-4
	l-0.5-3.1l0.5-2.5v-2.8l-1.4-4.5l-2.3-2.5l-3.9-1.7l-5.6-0.6l-4.5-1.1l-3.1-2.9l-4.2-4.5l-5.4-4.3l-2.3-0.6l-1.9-0.5l-2.6,1.5
	l-1.4,2.3l-1.5,3.1l-4.3,1.2l-4-1.5l-4.3-5.1l-4.2-3.6l-2.9-1.1l-2.8-0.3l-1.9-0.8l-0.6-2l2.6-2.5l14.7-10.2l3.4-3.7l2.5-4.9
	l-2.6-4.3l-8.2-10.4l-1.9-5.9v-9l-2.2-12.1l-6-12.4l41.9,9.9l30.1,15.9l26.3,4.2l14.2-1.2l16.1-13.9l37.6-13.3l104.3-19.5
	L522.4,257.9L522.4,257.9z"/>
<path id="YEM3496" class="st0" d="M313.3,200.7l6,12.4l2.2,12.1v9l1.9,5.9l8.2,10.4l2.6,4.3l-2.5,4.9l-3.4,3.7l-14.7,10.2L311,276
	l0.6,2l1.9,0.8l2.8,0.3l2.9,1.1l4.2,3.6l4.3,5.1l4,1.5l4.3-1.2l1.5-3.1l1.4-2.3l2.6-1.5l1.9,0.5l2.3,0.6l5.4,4.3l4.2,4.5l3.1,2.9
	l4.5,1.1l5.6,0.6l3.9,1.7l2.3,2.5l1.4,4.5v2.8l-0.5,2.5l0.5,3.1l-1.4,4l-1.9,3.1l-6.2,2.8l-2,1.5L364,327l-1.7,3.7l-2.8,2.9
	l-1.5,2.9L357,339l-1.4,1.5l-0.3,1.1l1.7,1.7v2.5l-0.6,2l-0.2,7.7l-5.3,4.5l-5.3,2.2l-6.6,0.9l-0.2-4.5l-1.2-2.9l-4.9-7l-2.3-4.8
	l-1.9-8.7l-3.6-5.3l-2.8-1.9l-3.2-0.3l-3.1,0.3l-3.2-0.3l-2.6,0.3l-2.9,2l-2.2,3.2l-2.8,3.4l-2.6,1.4l-5.1,2L291,340l-3.2-2.2
	l-2.2-2.8l-3.1-0.5l-1.1,2l-0.6,2.5l-1.7,2.3l-3.7,1.2l-9.6-2l-2.9-2.5l-2.5-2.8l-3.4-1.2l-2.2-1.5l-3.4,0.2l-4,0.8l-4.3,1.5
	l-6.8,4.9l-2.9,1.7l-2.5,1.5l-2.3,1.4l-4.3,4l-2.8,0.8l-4.8,0.5l-5.9-0.6l-1.9,1.7l-5.3-1.5l-0.5-1.4l-6.5-0.9l-0.9-3.9l-2-2.9
	l2-3.1l0.8-0.6v-1.4l-2.9-2.8l-2.5,0.3h-2.3l-3.4-0.8l-3.9-2.2l-4.2-3.9l3.2-5.3l1.5-1.4l1.2-3.1l-0.5-6.3l0.9-3.4l2.2-2.8l7.7-4.8
	l1.4-1.4l8.3-1.7l4.6-4.8l8.8-6.3l2.6-1.2l4.9-3.4l2.2-2.3l0.6-5.6l1.5-5.7l1.4-3.2l-0.2-2l1.7-1.9l4.8,0.5l4-0.6l3.6-1.7l7.6-6
	l1.4-5.4l0.2-5.9l2.3-3.4l3.6-2.6l2.6-3.7l0.6-2.5l0.2-2.8l-0.9-2.5l-0.8-3.6l-0.6-7.1l1.1-3.4l1.2-2.9l7.3-3.9l7.3-2.8l6.8-0.5
	l7-1.5l1.1-1.1l2.5-1.1l10.7,0.8L313.3,200.7L313.3,200.7z M280.5,259.6l-0.9-1.2l-2.2-1.4l-2.6-2.8l-4-1.7l-1.7,0.2l-2.9,1.2
	l-1.5,1.7l-1.5,2.3h-1.7l-1.1,0.5l-0.9,1.1l-2.3,0.8l-1.1,1.4l-0.2,3.4l0.2,1.4l-1.2,0.2l-0.5,1.1l-0.9,1.2l-1.5,0.3l-0.8,0.9
	l-4.9,1.4l-0.2,1.1l0.6,1.5l1.1,0.9l2.2,1.2l1.7,2l0.2,1.4l-1.9,0.6l-0.9,1.1l-0.6,2.6l0.5,2.2l4.3,2.9l0.5,1.2l-0.5,2.8l0.5,0.6
	h5.9l1.1-0.2l-0.2-1.9l0.5-0.8l1.2-0.2l1.1-0.6l0.5-1.1v-2.5l-0.6-1.7l-0.8,0.2l-0.8-0.6l-0.5-2.8L260,280l-0.2-1.2l0.3-1.4
	l-0.2-1.1l0.6-1.2l1.7-1.7l3.4-2.5l0.3-1.2l-0.6-2.9l0.8-1.2l0.9-1.2l0.8,1.2l0.8-1.2l3.9,0.3l0.5-0.9v-1.4l0.5-1.2l1.5-1.2l1.4,0.3
	l-0.5,2l0.9,0.6l2-0.2l1.1-0.8l0.8-1.1L280.5,259.6L280.5,259.6z"/>
<path id="YEM3497" class="st0" d="M1390.4,701.3l0.3,0.9l-5.9-0.5l-1.9-0.8l2.5-0.9l2.3,0.2L1390.4,701.3z M1356.8,693.4l1.7,0.8h2
	l1.7,1.2l0.6,2l-0.2,1.9l-1.9,0.5l-1.9,0.3l-3.7-1.4l-2.5-2.2l-2.6-0.8l0.3-1.2l2-0.6l1.5,0.2l1.4-0.5L1356.8,693.4L1356.8,693.4z
	 M1249.7,689l2.6,1.1l2-0.2l3.7,0.6l5.4,0.2l3.7,1.7l6.8-1.7l1.9,0.5l0.8,1.2l-1.7,0.6l-1.2,1.4l0.9,0.8l1.2,2.2l-3.6-0.6l-3.7,0.9
	l-5.7-1.1l-5.6-0.3l-2-2.9h-1.5l-2.6,0.8l-1.4,0.2l-0.5-0.5l-1.7-2.6l-0.6,0.2l-2.5-1.1l-3.1,0.8l-1.2-1.1l-4.2-1.9l-0.6-1.7
	l1.9-0.6l1.9-0.3l3.1,0.2l3.7,0.8L1249.7,689L1249.7,689z M1423.4,626.6l4,0.5l6-0.6l4.9,4.5l8.5,6.3l10.4,2.8l2.6-3.2l1.2-3.1
	l3.4-0.6l2.3,0.3l2.2,0.9l4.2-0.5l4.3,0.2l4.6-2.8l1.5-0.5l3.1-2l1.2-1.5l3.4-0.3l1.5,1.5l1.9,1.4l2.6,1.7l1.9-0.5l1.5-0.9l0.6,0.3
	l2.3,2.6h2.3l2.8,0.6l1.2,2l1.9,0.8l4.3,1.9l5.1,1.1l5.1,2.9l2.6,0.8l6,3.9l3.2-0.5l2.3-1.4l1.4,0.2l1.7,0.9l-1.5,1.5l-3.7,1.1
	l-2.6,0.8l-2.5,0.5l-1.2,1.1l-0.3,3.4l-5.3,2.2l-4.2,1.1l-5.1,2l-5.6-0.5l-4.6,1.7l-1.1,1.1l-2.3,3.2l-1.1,0.8l-3.2,1.4l-3.7,2.9
	l-1.7,1.1l-3.7-0.3l-5.9,0.5l-2-0.3l-2.2,0.5l-2.8,2.5l-4.8-1.5l-3.7,0.9l-5.4,0.8l-15,2.9l-5.6,0.6l-7.3-0.8l-6.8-2l-5.7-1.5
	l-2.6-2.6l-4-4.9l-1.7-2.9l-3.2-1.1l-5.3-3.4l-12.8-8.2l-3.1-2.8l-0.3-0.8l1.1-0.8l3.4,0.9l2.5-0.3l3.2-2l0.3-1.1l1.4-3.7l-0.8-7.4
	l1.9-0.8l2-0.5l5.3-0.8l2.6-3.9l1.1-1.2l2.5-0.3L1423.4,626.6L1423.4,626.6z M1078.5,319.1l-17.8,4.9l-13.4,1.4l-11.7,4.8l-3.4,2
	l-9.3,8l-1.9,1.1l-5.1,0.9l-7.3,3.9l-8,5.7l-1.9,0.2l-2.3-0.9l-3.1,0.6l-5.3,2.5l-2.3,0.6l-2.3,0.3l-0.8-2.6l-0.8-1.5l-1.1,0.2
	l-1.9,0.6l-7.9,0.8l-17.9,6l-27.5,7l-14.7,8.3l-5.3,2.2l-5.6,0.8l-2.6,1.4l-4.9,3.4l-10.4,4.9l-4.8,3.4l-1.1,4.2l-1.2-0.3l-1.9-0.9
	l-2.5-0.9l-2.9,0.3l-2.6,1.4l-1.9,1.7l-6.2,9l-2.3,4.6l-1.1,5.3l0.9,0.8v1.4l-0.6,2.3l-1.4,1.1l-5.3,2l-1.1,0.9l-0.6,3.1l-1.9,1.1
	l-2.2,0.5l-2.2,0.9l-0.8,2v2.9l-0.5,0.8l-1.7,1.5l-1.4,3.6l-2,1.4l-4.8,2l-7.4,9.3l-2.3,1.4l-0.6,0.3l-1.5,1.1l-1.5,0.5l-2.2-0.2
	l-0.3-2.8l-0.9-2.5l-3.4-6.3l-0.8-2l-0.3-2.2l-1.1-2.6l-1.9-2.8l-2.8-3.1l-11.4-5.4l-10.5-2.8l-9.6,0.3l-8.3-0.8l-9.1-4.5l-6.2-6.3
	l-1.7-3.4l-3.1-4.2l-1.2-3.9l-2.5-5.1l-2.5-2.9l-3.2-1.7l-3.1-1.2l-9.1-0.2l-12.8-2l-9.7-3.4l-9.4-6.3l-8.8-8.7l-13.9-9.9l-0.9-3.2
	l2.9-3.6l20.2-17.3l1.9-3.7v-3.9l-5.3-7l-3.1-3.2v-3.2l0.3-3.6l3.6-11l0.2-3.2l1.2-4.5l2.8-6.3l5.6-6.5l16.2-25.5l-1.5-4.2l-11.3-4
	l-175.5,13.6l61.3-75.1l25.7-25.3L604.3,79l16.4,0.6l4-0.5l3.7-1.5l29.5-17.3l3.7-5.1l14.2-39.4l2.2-4l30.8-38.6l19.6-24.7
	l11.3-14.2l9.7-12.2l2.8-2l37.4-19.2l45.1-23.3l23.5-12.1l11.6-4.3l16.1-2.3l159.6-22.7l19.9-2.8l19.9-2.9l139.4-19.8l0.9,2.2
	l-34,50.4l-21.5,54.2l-7.6,39.3l-11.7,37.2l-15.3,34.3l-16.2,24.1l-50.1,41.6l-9.6,11.4l-10,6.8l-21.9,9.1l-5.3,3.2l-2.9,2.5
	l-2.6,3.4l-2.2,5.1l0.2,2.9l1.4,2.8l1.1,4.6l-9.7,37.7l-0.3,4.8l2,2.5l1.7,1.9l2.8,1.5l1.4,3.4l0.8,4.5l-4.8,13.3l-2.2,3.7l-2,2.3
	l-1.1,4.5v3.2l-1.2,3.7l0.2,3.6l0.5,3.1l0.2,2.3l-1.2,2.8l-0.9,3.2l-1.1,5.1l1.2,4.5l2.2,2.9l3.9,1.2l3.6,0.3l5.3,1.5l1.2,1.2
	l0.8,2.5l-0.6,5.3l-1.4,2l-2,1.5l-2.3,4.2l-1.9,2.3l-1.5,2.3l-0.3,2.2l0.2,2.5l0.8,2.2l1.9,2.2l7.9,2.8l6.2,0.2l9.6-0.9l3.2-0.8
	l2.8-1.1l8.3-0.5l8.3,2.2l6.8,1.1l2.8,1.4l2.3,3.2l1.1,2.5l1.4,2.5l0.9,3.2l1.4,2.3l0.9,2.3l1.1,1.9l0.2,2.5L1078.5,319.1
	L1078.5,319.1z"/>
<path id="YEM3498" class="st0" d="M280.5,259.6l0.2,1.1l-0.8,1.1l-1.1,0.8l-2,0.2l-0.9-0.6l0.5-2l-1.4-0.3l-1.5,1.2l-0.5,1.2v1.4
	l-0.5,0.9l-3.9-0.3l-0.8,1.2l-0.8-1.2l-0.9,1.2l-0.8,1.2l0.6,2.9l-0.3,1.2l-3.4,2.5l-1.7,1.7l-0.6,1.2l0.2,1.1l-0.3,1.4l0.2,1.2
	l0.9,1.7l0.5,2.8l0.8,0.6l0.8-0.2l0.6,1.7v2.5l-0.5,1.1l-1.1,0.6l-1.2,0.2l-0.5,0.8l0.2,1.9l-1.1,0.2h-5.9l-0.5-0.6l0.5-2.8
	l-0.5-1.2l-4.3-2.9l-0.5-2.2l0.6-2.6l0.9-1.1l1.9-0.6l-0.2-1.4l-1.7-2l-2.2-1.2l-1.1-0.9l-0.6-1.5l0.2-1.1l4.9-1.4l0.8-0.9l1.5-0.3
	l0.9-1.2l0.5-1.1l1.2-0.2l-0.2-1.4l0.2-3.4l1.1-1.4l2.3-0.8l0.9-1.1l1.1-0.5h1.7l1.5-2.3l1.5-1.7l2.9-1.2l1.7-0.2l4,1.7l2.6,2.8
	l2.2,1.4L280.5,259.6L280.5,259.6z"/>
<path id="YEM3499" class="st0" d="M193.8,340.3l2,2.9l0.9,3.9l6.5,0.9l0.5,1.4l5.3,1.5l0.2,2.3l1.4,4.5l2.9,4l8.2,9.1l2.5,4l1.4,3.4
	l2,2.8l1.1,2.3l-1.1,3.1l-3.7,4.9l-2.2,1.7l-2.2,2.2l-7.9,4.8l-1.9,1.4l-2,0.6l-3.2,0.5l-1.9-0.2l-2.8-1.1l-3.7,0.2l-2.2,0.9
	l-1.2,1.7l-4.3,3.7L181,412l-2.2,0.2l-2.9,0.2l4.5-5.4l0.3-2.3v-3.4l-0.5-1.5l-1.5-3.2l-0.5-2l-4.8-13l-0.5-2.5l0.5-2.2l-0.5-4.2
	l0.3-2.3l1.5-1.9l0.6-2l-1.7-9.6l2-5.6l2.3-3.4l2.3-2l3.7-3.9l0.9-1.9l1.4,0.2l3.9,1.5l1.9-0.3L193.8,340.3L193.8,340.3z"/>
<path id="YEM3511" class="st0" d="M645.1,507.6l-19.6,6l-31.8,6.6l-10.8,7.4l-15.5,5.9l-2.2,0.3l-2.5-0.3l-4.3-1.4h-2.9l-2.6,0.8
	l-5.4,2.3l-2.6,0.5h-25.7l-5.6-0.9l-2.6-1.5l-1.7-0.5l-1.2,0.9l-3.4,1.1l-10.7,1.7l-21.3,0.9l-2.2,0.6l-4,1.7l-1.9,0.3l-5.3-0.3
	l-2.3,0.3l-1.4,0.9l-17.2,3.9l-4.2,2.2l-12.1,12.4l-3.4,2.6l-1.9,1.7l-1.5,4.8l-5.9,7.6l-3.9,3.6l-4.6,2.2l-21.5,5.3l-4.9,2.6
	l-4.5,3.9l-1.7,2.2l-0.6,1.1l4-29.1L380,545l6-4.2l1.1-2.8l-0.2-1.5l-1.5-1.5l-1.9-1.1l-1.7-2l-0.5-3.7l0.3-5.1l3.4-5.3l7-7.9
	l1.2-1.7l-0.6-1.2l-2.2-0.9l-6.3-0.3l-1.9-0.9v-1.7l4.8-2.9l2.3-1.9l0.3-1.9v-2.2l-0.5-2l0.9-2l1.5-1.5l4.6-1.1l3.6-2l0.5-2L400,481
	l0.5-4l0.9-2l4.6-1.2l1.4,0.6l17.3,1.7l3.9,1.2l1.9,3.6l4.5,2.3h2.5l2.6-0.3l3.4-0.8l3.9-1.7l5.1-3.1l21.3-15.8l4.6-4.2l2-6l3.4-4.8
	l1.9-10.8l11.3-0.9l5.6-1.9l4.8-2.3l3.7-2.8l11-4l3.9-2l3.7-0.3l2.9,3.6l1.7,4.8l4.3,7.9l0.8,3.6l2.2,3.1l14.5-2.5l9.9-4.3l12.5-3.4
	l9.4-1.2l9,1.1l8,2.9l8.3,1.9l17.2,0.9l4.5,2.9l1.7,5.4l-0.2,5.7l0.6,4.2l-1.5,3.2l-1.7,2.3l-1.2,3.1l6.5,13.8l3.9,12.4l0.2,4.9
	l0.9,3.2L645.1,507.6L645.1,507.6z"/>
<polygon id="_x30_" class="st0" points="312.4,283.4 312.4,283.4 312.4,283.4 "/>
<polygon id="_x31_" class="st0" points="328.4,204 328.4,204 328.4,204 "/>
<polygon id="_x32_" class="st0" points="135.6,53 135.6,53 135.6,53 "/>
<g>
	<g>
		<path class="st0" d="M221.3,190.2L221.3,190.2c-0.2,0-0.4-0.1-0.5-0.2c-0.3-0.3-6.9-7.4-6.9-11.3c0-4,3.3-7.3,7.3-7.3
			c4,0,7.3,3.3,7.3,7.3c0,3.9-6.6,11-6.9,11.3C221.6,190.1,221.5,190.2,221.3,190.2z M221.3,172.7c-3.3,0-6,2.7-6,6
			c0,2.6,4,7.6,6,9.9c2-2.3,6-7.3,6-9.9C227.3,175.4,224.6,172.7,221.3,172.7z"/>
	</g>
	<g>
		<path class="st0" d="M221.3,181.7c-1.8,0-3.3-1.5-3.3-3.3c0-1.8,1.5-3.3,3.3-3.3c1.8,0,3.3,1.5,3.3,3.3
			C224.6,180.2,223.1,181.7,221.3,181.7z M221.3,176.4c-1.1,0-2,0.9-2,2c0,1.1,0.9,2,2,2c1.1,0,2-0.9,2-2
			C223.3,177.3,222.4,176.4,221.3,176.4z"/>
	</g>
</g>
<g>
	<g>
		<path class="st0" d="M259.5,377.3L259.5,377.3c-0.2,0-0.4-0.1-0.5-0.2c-0.3-0.3-6.9-7.4-6.9-11.3c0-4,3.3-7.3,7.3-7.3
			c4,0,7.3,3.3,7.3,7.3c0,3.9-6.6,11-6.9,11.3C259.8,377.2,259.6,377.3,259.5,377.3z M259.5,359.7c-3.3,0-6,2.7-6,6
			c0,2.6,4,7.6,6,9.9c2-2.3,6-7.3,6-9.9C265.5,362.4,262.8,359.7,259.5,359.7z"/>
	</g>
	<g>
		<path class="st0" d="M259.5,368.7c-1.8,0-3.3-1.5-3.3-3.3c0-1.8,1.5-3.3,3.3-3.3c1.8,0,3.3,1.5,3.3,3.3
			C262.8,367.2,261.3,368.7,259.5,368.7z M259.5,363.4c-1.1,0-2,0.9-2,2c0,1.1,0.9,2,2,2c1.1,0,2-0.9,2-2
			C261.4,364.3,260.6,363.4,259.5,363.4z"/>
	</g>
</g>
<g>
	<g>
		<path class="st0" d="M289.6,306.4L289.6,306.4c-0.2,0-0.4-0.1-0.5-0.2c-0.3-0.3-6.9-7.4-6.9-11.3c0-4,3.3-7.3,7.3-7.3
			c4,0,7.3,3.3,7.3,7.3c0,3.9-6.6,11-6.9,11.3C290,306.4,289.8,306.4,289.6,306.4z M289.6,288.9c-3.3,0-6,2.7-6,6c0,2.6,4,7.6,6,9.9
			c2-2.3,6-7.3,6-9.9C295.7,291.6,293,288.9,289.6,288.9z"/>
	</g>
	<g>
		<path class="st0" d="M289.6,297.9c-1.8,0-3.3-1.5-3.3-3.3c0-1.8,1.5-3.3,3.3-3.3c1.8,0,3.3,1.5,3.3,3.3
			C292.9,296.4,291.5,297.9,289.6,297.9z M289.6,292.6c-1.1,0-2,0.9-2,2c0,1.1,0.9,2,2,2c1.1,0,2-0.9,2-2
			C291.6,293.5,290.7,292.6,289.6,292.6z"/>
	</g>
</g>
<g>
	<g>
		<path class="st0" d="M155.1,184.5L155.1,184.5c-0.2,0-0.4-0.1-0.5-0.2c-0.3-0.3-6.9-7.4-6.9-11.3c0-4,3.3-7.3,7.3-7.3
			c4,0,7.3,3.3,7.3,7.3c0,3.9-6.6,11-6.9,11.3C155.4,184.4,155.2,184.5,155.1,184.5z M155.1,167c-3.3,0-6,2.7-6,6c0,2.6,4,7.6,6,9.9
			c2-2.3,6-7.3,6-9.9C161.1,169.7,158.4,167,155.1,167z"/>
	</g>
	<g>
		<path class="st0" d="M155.1,176c-1.8,0-3.3-1.5-3.3-3.3c0-1.8,1.5-3.3,3.3-3.3c1.8,0,3.3,1.5,3.3,3.3
			C158.4,174.5,156.9,176,155.1,176z M155.1,170.7c-1.1,0-2,0.9-2,2c0,1.1,0.9,2,2,2c1.1,0,2-0.9,2-2
			C157,171.6,156.1,170.7,155.1,170.7z"/>
	</g>
</g>
<g>
	<g>
		<path class="st0" d="M278.7,441.8L278.7,441.8c-0.2,0-0.4-0.1-0.5-0.2c-0.3-0.3-6.9-7.4-6.9-11.3c0-4,3.3-7.3,7.3-7.3
			c4,0,7.3,3.3,7.3,7.3c0,3.9-6.6,11-6.9,11.3C279.1,441.7,278.9,441.8,278.7,441.8z M278.7,424.3c-3.3,0-6,2.7-6,6
			c0,2.6,4,7.6,6,9.9c2-2.3,6-7.3,6-9.9C284.7,427,282,424.3,278.7,424.3z"/>
	</g>
	<g>
		<path class="st0" d="M278.7,433.3c-1.8,0-3.3-1.5-3.3-3.3c0-1.8,1.5-3.3,3.3-3.3c1.8,0,3.3,1.5,3.3,3.3
			C282,431.8,280.5,433.3,278.7,433.3z M278.7,428c-1.1,0-2,0.9-2,2c0,1.1,0.9,2,2,2c1.1,0,2-0.9,2-2
			C280.7,428.9,279.8,428,278.7,428z"/>
	</g>
</g>
<g>
	<g>
		<path class="st0" d="M303,319.3L303,319.3c-0.2,0-0.4-0.1-0.5-0.2c-0.3-0.3-6.9-7.4-6.9-11.3c0-4,3.3-7.3,7.3-7.3
			c4,0,7.3,3.3,7.3,7.3c0,3.9-6.6,11-6.9,11.3C303.4,319.2,303.2,319.3,303,319.3z M303,301.7c-3.3,0-6,2.7-6,6c0,2.6,4,7.6,6,9.9
			c2-2.3,6-7.3,6-9.9C309,304.4,306.3,301.7,303,301.7z"/>
	</g>
	<g>
		<path class="st0" d="M303,310.7c-1.8,0-3.3-1.5-3.3-3.3c0-1.8,1.5-3.3,3.3-3.3c1.8,0,3.3,1.5,3.3,3.3
			C306.3,309.2,304.8,310.7,303,310.7z M303,305.4c-1.1,0-2,0.9-2,2c0,1.1,0.9,2,2,2c1.1,0,2-0.9,2-2
			C305,306.3,304.1,305.4,303,305.4z"/>
	</g>
</g>
<g>
	<g>
		<path class="st0" d="M415.6,292.8L415.6,292.8c-0.2,0-0.4-0.1-0.5-0.2c-0.3-0.3-6.9-7.4-6.9-11.3c0-4,3.3-7.3,7.3-7.3
			c4,0,7.3,3.3,7.3,7.3c0,3.9-6.6,11-6.9,11.3C415.9,292.8,415.8,292.8,415.6,292.8z M415.6,275.3c-3.3,0-6,2.7-6,6
			c0,2.6,4,7.6,6,9.9c2-2.3,6-7.3,6-9.9C421.6,278,418.9,275.3,415.6,275.3z"/>
	</g>
	<g>
		<path class="st0" d="M415.6,284.3c-1.8,0-3.3-1.5-3.3-3.3c0-1.8,1.5-3.3,3.3-3.3c1.8,0,3.3,1.5,3.3,3.3
			C418.9,282.8,417.4,284.3,415.6,284.3z M415.6,279c-1.1,0-2,0.9-2,2c0,1.1,0.9,2,2,2c1.1,0,2-0.9,2-2
			C417.6,279.9,416.7,279,415.6,279z"/>
	</g>
</g>
<g>
	<g>
		<path class="st0" d="M132.3,202.5L132.3,202.5c-0.2,0-0.4-0.1-0.5-0.2c-0.3-0.3-6.9-7.4-6.9-11.3c0-4,3.3-7.3,7.3-7.3
			c4,0,7.3,3.3,7.3,7.3c0,3.9-6.6,11-6.9,11.3C132.6,202.4,132.4,202.5,132.3,202.5z M132.3,184.9c-3.3,0-6,2.7-6,6
			c0,2.6,4,7.6,6,9.9c2-2.3,6-7.3,6-9.9C138.3,187.6,135.6,184.9,132.3,184.9z"/>
	</g>
	<g>
		<path class="st0" d="M132.3,193.9c-1.8,0-3.3-1.5-3.3-3.3c0-1.8,1.5-3.3,3.3-3.3c1.8,0,3.3,1.5,3.3,3.3
			C135.6,192.5,134.1,193.9,132.3,193.9z M132.3,188.7c-1.1,0-2,0.9-2,2c0,1.1,0.9,2,2,2c1.1,0,2-0.9,2-2
			C134.2,189.5,133.4,188.7,132.3,188.7z"/>
	</g>
</g>
<g>
	<g>
		<path class="st0" d="M290,384.3L290,384.3c-0.2,0-0.4-0.1-0.5-0.2c-0.3-0.3-6.9-7.4-6.9-11.3c0-4,3.3-7.3,7.3-7.3
			c4,0,7.3,3.3,7.3,7.3c0,3.9-6.6,11-6.9,11.3C290.4,384.2,290.2,384.3,290,384.3z M290,366.7c-3.3,0-6,2.7-6,6c0,2.6,4,7.6,6,9.9
			c2-2.3,6-7.3,6-9.9C296,369.4,293.3,366.7,290,366.7z"/>
	</g>
	<g>
		<path class="st0" d="M290,375.7c-1.8,0-3.3-1.5-3.3-3.3c0-1.8,1.5-3.3,3.3-3.3c1.8,0,3.3,1.5,3.3,3.3
			C293.3,374.2,291.8,375.7,290,375.7z M290,370.4c-1.1,0-2,0.9-2,2c0,1.1,0.9,2,2,2c1.1,0,2-0.9,2-2
			C292,371.3,291.1,370.4,290,370.4z"/>
	</g>
</g>
<g>
	<g>
		<path class="st0" d="M275.3,389.7L275.3,389.7c-0.2,0-0.4-0.1-0.5-0.2c-0.3-0.3-6.9-7.4-6.9-11.3c0-4,3.3-7.3,7.3-7.3
			c4,0,7.3,3.3,7.3,7.3c0,3.9-6.6,11-6.9,11.3C275.6,389.6,275.4,389.7,275.3,389.7z M275.3,372.1c-3.3,0-6,2.7-6,6
			c0,2.6,4,7.6,6,9.9c2-2.3,6-7.3,6-9.9C281.3,374.8,278.6,372.1,275.3,372.1z"/>
	</g>
	<g>
		<path class="st0" d="M275.3,381.1c-1.8,0-3.3-1.5-3.3-3.3c0-1.8,1.5-3.3,3.3-3.3c1.8,0,3.3,1.5,3.3,3.3
			C278.6,379.7,277.1,381.1,275.3,381.1z M275.3,375.9c-1.1,0-2,0.9-2,2c0,1.1,0.9,2,2,2c1.1,0,2-0.9,2-2
			C277.3,376.7,276.4,375.9,275.3,375.9z"/>
	</g>
</g>
<g>
	<g>
		<path class="st0" d="M275.3,369.1L275.3,369.1c-0.2,0-0.4-0.1-0.5-0.2c-0.3-0.3-6.9-7.4-6.9-11.3c0-4,3.3-7.3,7.3-7.3
			c4,0,7.3,3.3,7.3,7.3c0,3.9-6.6,11-6.9,11.3C275.6,369.1,275.4,369.1,275.3,369.1z M275.3,351.6c-3.3,0-6,2.7-6,6
			c0,2.6,4,7.6,6,9.9c2-2.3,6-7.3,6-9.9C281.3,354.3,278.6,351.6,275.3,351.6z"/>
	</g>
	<g>
		<path class="st0" d="M275.3,360.6c-1.8,0-3.3-1.5-3.3-3.3c0-1.8,1.5-3.3,3.3-3.3c1.8,0,3.3,1.5,3.3,3.3
			C278.6,359.1,277.1,360.6,275.3,360.6z M275.3,355.3c-1.1,0-2,0.9-2,2c0,1.1,0.9,2,2,2c1.1,0,2-0.9,2-2
			C277.3,356.2,276.4,355.3,275.3,355.3z"/>
	</g>
</g>
<g>
	<g>
		<path class="st0" d="M237.5,216.3L237.5,216.3c-0.2,0-0.4-0.1-0.5-0.2c-0.3-0.3-6.9-7.4-6.9-11.3c0-4,3.3-7.3,7.3-7.3
			c4,0,7.3,3.3,7.3,7.3c0,3.9-6.6,11-6.9,11.3C237.9,216.2,237.7,216.3,237.5,216.3z M237.5,198.8c-3.3,0-6,2.7-6,6
			c0,2.6,4,7.6,6,9.9c2-2.3,6-7.3,6-9.9C243.5,201.5,240.8,198.8,237.5,198.8z"/>
	</g>
	<g>
		<path class="st0" d="M237.5,207.8c-1.8,0-3.3-1.5-3.3-3.3c0-1.8,1.5-3.3,3.3-3.3c1.8,0,3.3,1.5,3.3,3.3
			C240.8,206.3,239.3,207.8,237.5,207.8z M237.5,202.5c-1.1,0-2,0.9-2,2c0,1.1,0.9,2,2,2c1.1,0,2-0.9,2-2
			C239.5,203.4,238.6,202.5,237.5,202.5z"/>
	</g>
</g>
<g>
	<g>
		<path class="st0" d="M235.5,198L235.5,198c-0.2,0-0.4-0.1-0.5-0.2c-0.3-0.3-6.9-7.4-6.9-11.3c0-4,3.3-7.3,7.3-7.3
			c4,0,7.3,3.3,7.3,7.3c0,3.9-6.6,11-6.9,11.3C235.9,197.9,235.7,198,235.5,198z M235.5,180.5c-3.3,0-6,2.7-6,6c0,2.6,4,7.6,6,9.9
			c2-2.3,6-7.3,6-9.9C241.5,183.2,238.8,180.5,235.5,180.5z"/>
	</g>
	<g>
		<path class="st0" d="M235.5,189.5c-1.8,0-3.3-1.5-3.3-3.3c0-1.8,1.5-3.3,3.3-3.3c1.8,0,3.3,1.5,3.3,3.3
			C238.8,188,237.3,189.5,235.5,189.5z M235.5,184.2c-1.1,0-2,0.9-2,2c0,1.1,0.9,2,2,2c1.1,0,2-0.9,2-2
			C237.5,185.1,236.6,184.2,235.5,184.2z"/>
	</g>
</g>
<g>
	<g>
		<path class="st0" d="M223.3,213.4L223.3,213.4c-0.2,0-0.4-0.1-0.5-0.2c-0.3-0.3-6.9-7.4-6.9-11.3c0-4,3.3-7.3,7.3-7.3
			c4,0,7.3,3.3,7.3,7.3c0,3.9-6.6,11-6.9,11.3C223.6,213.3,223.4,213.4,223.3,213.4z M223.3,195.9c-3.3,0-6,2.7-6,6
			c0,2.6,4,7.6,6,9.9c2-2.3,6-7.3,6-9.9C229.3,198.6,226.6,195.9,223.3,195.9z"/>
	</g>
	<g>
		<path class="st0" d="M223.3,204.9c-1.8,0-3.3-1.5-3.3-3.3c0-1.8,1.5-3.3,3.3-3.3c1.8,0,3.3,1.5,3.3,3.3
			C226.6,203.4,225.1,204.9,223.3,204.9z M223.3,199.6c-1.1,0-2,0.9-2,2c0,1.1,0.9,2,2,2c1.1,0,2-0.9,2-2
			C225.3,200.5,224.4,199.6,223.3,199.6z"/>
	</g>
</g>
<g>
	<g>
		<path class="st0" d="M226.6,237.9L226.6,237.9c-0.2,0-0.4-0.1-0.5-0.2c-0.3-0.3-6.9-7.4-6.9-11.3c0-4,3.3-7.3,7.3-7.3
			c4,0,7.3,3.3,7.3,7.3c0,3.9-6.6,11-6.9,11.3C226.9,237.8,226.7,237.9,226.6,237.9z M226.6,220.3c-3.3,0-6,2.7-6,6
			c0,2.6,4,7.6,6,9.9c2-2.3,6-7.3,6-9.9C232.6,223,229.9,220.3,226.6,220.3z"/>
	</g>
	<g>
		<path class="st0" d="M226.6,229.3c-1.8,0-3.3-1.5-3.3-3.3c0-1.8,1.5-3.3,3.3-3.3c1.8,0,3.3,1.5,3.3,3.3
			C229.9,227.8,228.4,229.3,226.6,229.3z M226.6,224c-1.1,0-2,0.9-2,2c0,1.1,0.9,2,2,2c1.1,0,2-0.9,2-2
			C228.6,224.9,227.7,224,226.6,224z"/>
	</g>
</g>
<g>
	<g>
		<path class="st0" d="M399.3,275.8L399.3,275.8c-0.2,0-0.4-0.1-0.5-0.2c-0.3-0.3-6.9-7.4-6.9-11.3c0-4,3.3-7.3,7.3-7.3
			c4,0,7.3,3.3,7.3,7.3c0,3.9-6.6,11-6.9,11.3C399.6,275.8,399.5,275.8,399.3,275.8z M399.3,258.3c-3.3,0-6,2.7-6,6
			c0,2.6,4,7.6,6,9.9c2-2.3,6-7.3,6-9.9C405.3,261,402.6,258.3,399.3,258.3z"/>
	</g>
	<g>
		<path class="st0" d="M399.3,267.3c-1.8,0-3.3-1.5-3.3-3.3c0-1.8,1.5-3.3,3.3-3.3c1.8,0,3.3,1.5,3.3,3.3
			C402.6,265.8,401.1,267.3,399.3,267.3z M399.3,262c-1.1,0-2,0.9-2,2c0,1.1,0.9,2,2,2c1.1,0,2-0.9,2-2
			C401.3,262.9,400.4,262,399.3,262z"/>
	</g>
</g>
<g>
	<g>
		<path class="st0" d="M151.8,206.2L151.8,206.2c-0.2,0-0.4-0.1-0.5-0.2c-0.3-0.3-6.9-7.4-6.9-11.3c0-4,3.3-7.3,7.3-7.3
			c4,0,7.3,3.3,7.3,7.3c0,3.9-6.6,11-6.9,11.3C152.1,206.1,151.9,206.2,151.8,206.2z M151.8,188.7c-3.3,0-6,2.7-6,6
			c0,2.6,4,7.6,6,9.9c2-2.3,6-7.3,6-9.9C157.8,191.4,155.1,188.7,151.8,188.7z"/>
	</g>
	<g>
		<path class="st0" d="M151.8,197.7c-1.8,0-3.3-1.5-3.3-3.3c0-1.8,1.5-3.3,3.3-3.3c1.8,0,3.3,1.5,3.3,3.3
			C155.1,196.2,153.6,197.7,151.8,197.7z M151.8,192.4c-1.1,0-2,0.9-2,2c0,1.1,0.9,2,2,2c1.1,0,2-0.9,2-2
			C153.7,193.3,152.8,192.4,151.8,192.4z"/>
	</g>
</g>
<g>
	<g>
		<path class="st0" d="M135.6,172.7L135.6,172.7c-0.2,0-0.4-0.1-0.5-0.2c-0.3-0.3-6.9-7.4-6.9-11.3c0-4,3.3-7.3,7.3-7.3
			c4,0,7.3,3.3,7.3,7.3c0,3.9-6.6,11-6.9,11.3C135.9,172.6,135.7,172.7,135.6,172.7z M135.6,155.2c-3.3,0-6,2.7-6,6
			c0,2.6,4,7.6,6,9.9c2-2.3,6-7.3,6-9.9C141.6,157.9,138.9,155.2,135.6,155.2z"/>
	</g>
	<g>
		<path class="st0" d="M135.6,164.2c-1.8,0-3.3-1.5-3.3-3.3c0-1.8,1.5-3.3,3.3-3.3c1.8,0,3.3,1.5,3.3,3.3
			C138.9,162.7,137.4,164.2,135.6,164.2z M135.6,158.9c-1.1,0-2,0.9-2,2c0,1.1,0.9,2,2,2c1.1,0,2-0.9,2-2
			C137.5,159.8,136.7,158.9,135.6,158.9z"/>
	</g>
</g>
<g>
	<g>
		<path class="st0" d="M283.3,324.8L283.3,324.8c-0.2,0-0.4-0.1-0.5-0.2c-0.3-0.3-6.9-7.4-6.9-11.3c0-4,3.3-7.3,7.3-7.3
			c4,0,7.3,3.3,7.3,7.3c0,3.9-6.6,11-6.9,11.3C283.6,324.7,283.5,324.8,283.3,324.8z M283.3,307.3c-3.3,0-6,2.7-6,6
			c0,2.6,4,7.6,6,9.9c2-2.3,6-7.3,6-9.9C289.3,310,286.6,307.3,283.3,307.3z"/>
	</g>
	<g>
		<path class="st0" d="M283.3,316.3c-1.8,0-3.3-1.5-3.3-3.3c0-1.8,1.5-3.3,3.3-3.3c1.8,0,3.3,1.5,3.3,3.3
			C286.6,314.8,285.1,316.3,283.3,316.3z M283.3,311c-1.1,0-2,0.9-2,2c0,1.1,0.9,2,2,2c1.1,0,2-0.9,2-2
			C285.3,311.9,284.4,311,283.3,311z"/>
	</g>
</g>
<g>
	<g>
		<path class="st0" d="M265.5,326.3L265.5,326.3c-0.2,0-0.4-0.1-0.5-0.2c-0.3-0.3-6.9-7.4-6.9-11.3c0-4,3.3-7.3,7.3-7.3
			c4,0,7.3,3.3,7.3,7.3c0,3.9-6.6,11-6.9,11.3C265.8,326.2,265.7,326.3,265.5,326.3z M265.5,308.7c-3.3,0-6,2.7-6,6
			c0,2.6,4,7.6,6,9.9c2-2.3,6-7.3,6-9.9C271.5,311.4,268.8,308.7,265.5,308.7z"/>
	</g>
	<g>
		<path class="st0" d="M265.5,317.7c-1.8,0-3.3-1.5-3.3-3.3c0-1.8,1.5-3.3,3.3-3.3c1.8,0,3.3,1.5,3.3,3.3
			C268.8,316.2,267.3,317.7,265.5,317.7z M265.5,312.4c-1.1,0-2,0.9-2,2c0,1.1,0.9,2,2,2c1.1,0,2-0.9,2-2
			C267.5,313.3,266.6,312.4,265.5,312.4z"/>
	</g>
</g>
<g>
	<g>
		<path class="st0" d="M293.3,282L293.3,282c-0.2,0-0.4-0.1-0.5-0.2c-0.3-0.3-6.9-7.4-6.9-11.3c0-4,3.3-7.3,7.3-7.3
			c4,0,7.3,3.3,7.3,7.3c0,3.9-6.6,11-6.9,11.3C293.7,281.9,293.5,282,293.3,282z M293.3,264.5c-3.3,0-6,2.7-6,6c0,2.6,4,7.6,6,9.9
			c2-2.3,6-7.3,6-9.9C299.3,267.2,296.6,264.5,293.3,264.5z"/>
	</g>
	<g>
		<path class="st0" d="M293.3,273.5c-1.8,0-3.3-1.5-3.3-3.3c0-1.8,1.5-3.3,3.3-3.3c1.8,0,3.3,1.5,3.3,3.3
			C296.6,272,295.1,273.5,293.3,273.5z M293.3,268.2c-1.1,0-2,0.9-2,2c0,1.1,0.9,2,2,2c1.1,0,2-0.9,2-2
			C295.3,269.1,294.4,268.2,293.3,268.2z"/>
	</g>
</g>
<g>
	<g>
		<path class="st0" d="M447.3,454.6L447.3,454.6c-0.2,0-0.4-0.1-0.5-0.2c-0.3-0.3-6.9-7.4-6.9-11.3c0-4,3.3-7.3,7.3-7.3
			c4,0,7.3,3.3,7.3,7.3c0,3.9-6.6,11-6.9,11.3C447.7,454.6,447.5,454.6,447.3,454.6z M447.3,437.1c-3.3,0-6,2.7-6,6
			c0,2.6,4,7.6,6,9.9c2-2.3,6-7.3,6-9.9C453.4,439.8,450.7,437.1,447.3,437.1z"/>
	</g>
	<g>
		<path class="st0" d="M447.3,446.1c-1.8,0-3.3-1.5-3.3-3.3c0-1.8,1.5-3.3,3.3-3.3c1.8,0,3.3,1.5,3.3,3.3
			C450.6,444.6,449.2,446.1,447.3,446.1z M447.3,440.8c-1.1,0-2,0.9-2,2c0,1.1,0.9,2,2,2c1.1,0,2-0.9,2-2
			C449.3,441.7,448.4,440.8,447.3,440.8z"/>
	</g>
</g>
<g>
	<g>
		<path class="st0" d="M367.8,418.4L367.8,418.4c-0.2,0-0.4-0.1-0.5-0.2c-0.3-0.3-6.9-7.4-6.9-11.3c0-4,3.3-7.3,7.3-7.3
			c4,0,7.3,3.3,7.3,7.3c0,3.9-6.6,11-6.9,11.3C368.2,418.3,368,418.4,367.8,418.4z M367.8,400.8c-3.3,0-6,2.7-6,6c0,2.6,4,7.6,6,9.9
			c2-2.3,6-7.3,6-9.9C373.9,403.5,371.2,400.8,367.8,400.8z"/>
	</g>
	<g>
		<path class="st0" d="M367.8,409.8c-1.8,0-3.3-1.5-3.3-3.3c0-1.8,1.5-3.3,3.3-3.3c1.8,0,3.3,1.5,3.3,3.3
			C371.1,408.4,369.7,409.8,367.8,409.8z M367.8,404.6c-1.1,0-2,0.9-2,2c0,1.1,0.9,2,2,2c1.1,0,2-0.9,2-2
			C369.8,405.4,368.9,404.6,367.8,404.6z"/>
	</g>
</g>
<g>
	<g>
		<path class="st0" d="M263.5,454.5L263.5,454.5c-0.2,0-0.4-0.1-0.5-0.2c-0.3-0.3-6.9-7.4-6.9-11.3c0-4,3.3-7.3,7.3-7.3
			c4,0,7.3,3.3,7.3,7.3c0,3.9-6.6,11-6.9,11.3C263.8,454.4,263.7,454.5,263.5,454.5z M263.5,436.9c-3.3,0-6,2.7-6,6
			c0,2.6,4,7.6,6,9.9c2-2.3,6-7.3,6-9.9C269.5,439.6,266.8,436.9,263.5,436.9z"/>
	</g>
	<g>
		<path class="st0" d="M263.5,445.9c-1.8,0-3.3-1.5-3.3-3.3c0-1.8,1.5-3.3,3.3-3.3c1.8,0,3.3,1.5,3.3,3.3
			C266.8,444.4,265.3,445.9,263.5,445.9z M263.5,440.6c-1.1,0-2,0.9-2,2c0,1.1,0.9,2,2,2c1.1,0,2-0.9,2-2
			C265.5,441.5,264.6,440.6,263.5,440.6z"/>
	</g>
</g>
<g>
	<g>
		<path class="st0" d="M239.5,456.3L239.5,456.3c-0.2,0-0.4-0.1-0.5-0.2c-0.3-0.3-6.9-8.1-6.9-12.3c0-4.4,3.3-8,7.3-8
			c4,0,7.3,3.6,7.3,8c0,4.2-6.6,12-6.9,12.3C239.8,456.2,239.7,456.3,239.5,456.3z M239.5,437.3c-3.3,0-6,2.9-6,6.5
			c0,2.8,4,8.3,6,10.7c2-2.5,6-7.9,6-10.7C245.5,440.2,242.8,437.3,239.5,437.3z"/>
	</g>
	<g>
		<path class="st0" d="M239.5,447c-1.8,0-3.3-1.6-3.3-3.6c0-2,1.5-3.6,3.3-3.6c1.8,0,3.3,1.6,3.3,3.6
			C242.8,445.4,241.3,447,239.5,447z M239.5,441.3c-1.1,0-2,1-2,2.2c0,1.2,0.9,2.2,2,2.2c1.1,0,2-1,2-2.2
			C241.5,442.3,240.6,441.3,239.5,441.3z"/>
	</g>
</g>
</svg>
